<?xml version="1.0" encoding="UTF-8" standalone="no"?>
<!-- Generator: Adobe Illustrator 22.0.1, SVG Export Plug-In . SVG Version: 6.00 Build 0)  -->

<svg
   xmlns:dc="http://purl.org/dc/elements/1.1/"
   xmlns:cc="http://creativecommons.org/ns#"
   xmlns:rdf="http://www.w3.org/1999/02/22-rdf-syntax-ns#"
   xmlns:svg="http://www.w3.org/2000/svg"
   xmlns="http://www.w3.org/2000/svg"
   xmlns:sodipodi="http://sodipodi.sourceforge.net/DTD/sodipodi-0.dtd"
   xmlns:inkscape="http://www.inkscape.org/namespaces/inkscape"
   version="1.1"
   id="右下_xA0_画像_1_"
   x="0px"
   y="0px"
   viewBox="0 0 1400 997"
   style="enable-background:new 0 0 1400 997;"
   xml:space="preserve"
   inkscape:version="0.91 r13725"
   sodipodi:docname="elephant_friends_plane.svg"><metadata
     id="metadata179"><rdf:RDF><cc:Work
         rdf:about=""><dc:format>image/svg+xml</dc:format><dc:type
           rdf:resource="http://purl.org/dc/dcmitype/StillImage" /><dc:title></dc:title></cc:Work></rdf:RDF></metadata><defs
     id="defs177" /><sodipodi:namedview
     pagecolor="#ffffff"
     bordercolor="#666666"
     borderopacity="1"
     objecttolerance="10"
     gridtolerance="10"
     guidetolerance="10"
     inkscape:pageopacity="0"
     inkscape:pageshadow="2"
     inkscape:window-width="1306"
     inkscape:window-height="958"
     id="namedview175"
     showgrid="false"
     inkscape:zoom="0.60205092"
     inkscape:cx="580.75021"
     inkscape:cy="492.21071"
     inkscape:window-x="1619"
     inkscape:window-y="489"
     inkscape:window-maximized="0"
     inkscape:current-layer="g5" /><style
     type="text/css"
     id="style3">
	.st0{fill:#282C37;}
	.st1{fill:#606A85;}
	.st2{fill:#323C55;}
	.st3{fill:#A1A8BA;}
	.st4{fill:#5F6A85;}
	.st5{fill:#909CB7;}
	.st6{fill:#909BB6;}
	.st7{fill:#333C56;}
	.st8{fill:#2D313C;}
	.st9{fill:#2E323C;}
	.st10{fill:#383B46;}
	.st11{fill:#B2B8C8;}
	.st12{fill:#B3B9C9;}
	.st13{fill:#DFE4F0;}
	.st14{fill:#F9F9F9;}
	.st15{fill:#FCFCFC;}
	.st16{fill:#C8CEDD;}
	.st17{fill:#C7CDDC;}
	.st18{fill:#4B5D77;}
	.st19{fill:#DDE2EE;}
	.st20{fill:#B2B8C7;}
	.st21{fill:#C6CCDB;}
	.st22{fill:#FAFAFA;}
	.st23{fill:#DCE1ED;}
	.st24{fill:#F4F4F5;}
	.st25{fill:#AEB4C3;}
	.st26{fill:#7387A3;}
	.st27{fill:#465173;}
	.st28{fill:#FDFDFD;}
</style><g
     id="g5"><path
       class="st1"
       d="M485,998c-2.8-7.6-6.1-15-7.2-23.2c-1.9-13.7-1-27.1,4.3-40.1c0.5-1.2,0.7-2.5,1-3.8c1.6,0.2,3.4,0.1,4.9,0.7   c16.5,6,33.3,6.9,50.2,2.2c9.2-2.6,18.3-5.2,26.7-10.4c16.2-9.9,27.4-23.3,33.7-41c0.9-2.5,1.7-5,2.5-7.5   c17.8,1.6,34.1,7,48.2,18.4c4.9,4,9.1,8.8,12.2,14.3c4,6.9,7.7,14,10.9,21.3c9.3,21.7,6.6,42.5-5.3,62.4c-1.2,2.1-3.4,3.8-3.1,6.6   C604.3,998,544.7,998,485,998z"
       id="path11" /><path
       class="st2"
       d="M1308,998c-0.8-5-4.6-8.3-6.9-12.4c-3.8-6.9-6.1-14.2-6.8-21.7c-2.1-22.8,3.9-42.9,20.6-59.5   c12-11.9,26-19.4,42.3-22.6c13.6-2.7,27-2.3,40.4,1.6c1.1,0.3,2.3,0.4,3.4,0.7c0,38,0,76,0,114C1370,998,1339,998,1308,998z"
       id="path13" /><path
       class="st2"
       d="M1,559c9.1-1.2,18.1-1.6,27.2,0.5c19.3,4.5,33.6,15.7,43.9,32.5c11.4,18.6,13.6,38.8,11.2,60   c-0.2,1.6,0,3.3,0.1,5c-3.4,5.2-6.7,10.6-10.2,15.7c-6.8,9.9-14.2,19.4-18.2,31c-0.9,2.5-1.3,5.5-3.6,7.4c-2-0.3-3.5,0.7-5,1.7   c-10.4,6.6-21.6,10-34,9.3c-3.8-0.2-7.5-1.6-11.4-1C1,667,1,613,1,559z"
       id="path15" /><path
       class="st2"
       d="M1401,744c-17.6,2.3-33.6-1.6-47.9-12.3c-14.3-10.6-22.9-24.4-25.3-42.3c-2.6-20.1,5.3-36.5,17-51.5   c12.1-15.6,28.6-24.4,47.8-28.5c2.7-0.6,5.6-0.3,8.4-0.4C1401,654,1401,699,1401,744z"
       id="path17" /><path
       class="st1"
       d="M76,904.6c-8.9,9.2-19.9,15.2-31.9,18.9C30.2,927.9,16,931.8,1,930c0-53.7,0-107.3,0-161   c1.6-0.2,2.6-1.4,3.8-2.2c9.5-6.3,19.6-11.2,31-12.9c-1.6,6.5-1.1,13.2-1.6,19.8c-1.2,13.2,0,26.5,1,39.8c0.4,5.3,1.8,10.7,3.2,16   c1.4,5.3,4.8,9.9,5.5,15.4c2.3,16.7,9.6,31.2,19.2,44.7C67,894.9,71.7,899.6,76,904.6z"
       id="path19" /><path
       class="st3"
       d="M35.8,753.9c4.2-14.6,9.7-28.8,15.5-42.8c2.3-1.9,2.8-4.9,3.6-7.4c3.9-11.6,11.3-21.1,18.2-31   c3.5-5.1,6.8-10.5,10.2-15.7c4.1-5.5,8.2-11.2,12.4-16.5c8.4-10.5,14.4-22.6,23.5-32.5c2-2.2,2-5.2,3.6-7.5c2.9-4.2,5.9-8.3,9.8-12   c-4.1-5.6-9.5-10-9.9-17.2c0.5-5.9-0.6-11.9,1.8-17.7c2.6-6.2,6.3-12.1,7.3-19c0.2-1.4,1.5-2.5,2.3-3.8c3.4-5.5,7.9-10.2,11.6-15.5   c7.8-11.1,17-20.7,28.4-28.2c5.8-3.8,11.5-7.8,16.8-12.3c6.5-2,10.8-7.6,16.8-10.5c-6.6,0-13.2,0-19.8,0   c-8.6-0.2-17.3-2.4-22.9-8.4c-5.5-6-11.6-6.8-18.4-7.6c-2.3-0.3-4.7-0.3-6.8-1.3c-10-4.6-21.7-4.9-30.7-12   c-8.9-4.1-16.1-10.5-23.2-17c-10.4-9.4-13.7-25.5-8.8-38.5c5.5-14.6,16.3-22.9,30.6-27.7c4.5-1.5,9.2-0.9,13.8,0.2   c8.3,1.9,17,2.7,25.1,6.9c0.9-8-0.5-15.8-2.2-23.2c-1.3-6.1-0.8-12.2-2.5-18.2c-4.4-15.5-5.3-31.7-6.6-47.7   c-0.9-10.7-3.1-21.3-3.7-32.1c-0.6-10.5-2.8-21.1-5.2-31.4c-3.6-14.9,7.1-30.9,19.6-35.3c10-3.5,19.4-8.7,29.1-13   c8-3.6,16.6-5.5,24.8-9c10.5-4.6,20.7-9.8,31.4-14c8.5-3.3,17-6.8,25.5-10.2c2.8-1.1,5.9-1.1,8.9-1.2c9.1-0.4,18.3-0.6,27.4-0.9   c1,0,2,0.1,3.4-1.4c-4.5-3-8.1-7-11.3-11.2c-8.4-11-18.8-20.2-27.7-30.8c-7.4-8.8-7.5-19.9-1.2-28.5c6.3-8.5,24.5-9,33,0.1   c6.8,7.2,12.4,15.8,20.8,21.7c2.6,1.8,4.1,5.2,6.2,7.8c4.2,5.2,9.9,8.8,14.6,13.4c6.6,6.4,12.9,13,18.4,20.2   c4.9,6.4,6.5,6.5,10.9,0.2c9.5-13.6,18.8-27.3,28.4-40.9c6.2-8.8,12.2-17.6,18.3-26.5c8.7-12.7,28.6-11.7,35.6-3.4   c7.2,8.6,7.7,21.4-0.4,29.5c-3,3-5.6,6.1-7.5,9.8c-6.5,11.9-15.9,21.6-24.2,32.2c-0.6,0.8-1.1,1.6-2.3,3.3c5.1,0,9.6,0.5,13.9-0.1   c14.8-1.9,29.6-0.2,44.4-1c19.1-1.1,38.2-1.4,57.3-2c4.8-0.2,9.6-1.3,14.4-1.8c2.3-0.3,4.7-0.6,7-0.2c12.9,2.2,25.4,0.2,38.2-1.6   c8.8-1.2,20.6,5.3,22.8,18.3c2.2,13.4,3.5,27,5.3,40.4c2.4,18.1,3.8,36.3,7.1,54.3c2.1,11.5,4.3,23.1,5,34.9   c0.5,8.7,1.8,17.5,3.5,26.1c1.4,6.9,1.9,13.8,2.3,20.7c0.6,10.6,1.7,21.1,3.4,31.7c1.9,12,3.6,24,5.8,35.9c0.3,1.6,0.5,3.3,1.6,5   c10-0.4,17.6,5.4,25.9,10c7.5,4.3,13.6,10.4,20.9,15c6.1,3.8,10.8,10,14.5,16.6c3.4,6.1,6.5,12.4,11.5,17.3c1.8,1.8,3,4,3.8,6.4   c3.6,10.9,7.8,21.5,10.7,32.7c2.2,8.5,6.1,16.5,7.9,25.2c0.7,3.4,1.5,6.8,1.4,10.3c-0.2,5.7,1.6,10.3,6,14.4   c6.5,6.3,12.2,13.4,18.3,20.1c4.8,5.3,10.8,9.3,15.1,15.1c0.9,1.2,2.3,2.1,2.8,3.4c2.7,6.9,9.2,10.7,13.3,16.5   c1.9,2.7,5.5,3,7.9,5.1c16.7,15.2,36.3,16.3,57.3,12.4c9.1-1.7,18.4-2.8,27.2-5.8c14.2-4.9,29.3-7.2,42-16.3   c13-9.4,23.8-20.2,28.6-36c4.2-13.6,10.1-26.5,13-40.6c1.5-7.4,1.6-14.7,0.4-21.8c-1.4-8.3-0.7-16.6-2.1-24.8   c-2.1-12.6-4.5-25.1-11.8-36c0-2.6-1.3-4.8-2.1-7.1c-2.1-5.7-5.7-9.5-12.4-9.8c-3.7-0.1-7.7-0.8-10.9-3.1c-5.4-4-10.1-2.6-14.7,1.4   c-3.4,2.9-7.5,3.7-11.7,2.3c-4.4-1.5-8.5-3.7-12.4-6.3c-4.4-3-6.7-7.9-10.4-11.2c-6.8-6.2-12.3-13.5-18.5-20.1   c-0.7-0.7-1.3-2-2.3-1.6c-5.4,1.9-11.4-0.6-16.6,2.5c-5.4,1.2-10.6-0.5-15.8-1c-5-0.5-8-5-8.7-10.9c-0.7-6.2,0.9-12.1,3.1-17.6   c4.8-12.2,10.6-23.9,17.6-35c5.2-8.3,10.3-16.5,17.1-23.8c3.6-3.9,4-10.2,7-14.8c6.3-9.6,12.8-19,21.2-26.9c2.3-2.2,5.3-4,8.4-4   c7.6-0.2,15.2-1.5,22.9-0.7c4.1,0.4,8.3,0.5,12.5,0c4.7-0.5,9.2-0.3,13.9,0c7.8,0.5,15.5-0.3,23.4,0.2c15.5,1,31.2,0.3,46.6,2.2   c20.7,2.6,41.6,3.6,62,8.9c6.1,1.6,12.6,0.2,18.8,1.6c5.8,1.3,11.6,2.3,17.7,2.5c9.6,0.3,17.3,10.1,16.5,19.7   c-0.2,2.1-0.6,4.1-2,5.5c-4.7,5.1-8.9,10.9-15.6,13.7c-4.5,1.9-8.4,4.9-12,8.1c-8.6,7.5-18.5,12.8-27.9,19.2   c-5.2,3.5-9.8,8-16.1,10.7c3.3,2.7,6.8,4.1,9.5,6.9c10.8,10.9,12.4,23.3,8.7,37.6c-2.3,8.7-7,15.2-13.3,21.1   c-1.1,1-3.6,1.7-2.4,4.2c2.6,4.5,2.7,9.8,4.3,14.6c3.7,11,12.1,18.9,18.8,27.9c1.1,1.5,2.5,3.2,4.7,3.4c-0.2,1.9,0.3,3.6,1.3,5.2   c4.7,7.5,8.4,15.4,11.5,23.7c2.2,5.9,6.7,10.6,8.3,16.9c2.3,9.2,4.5,18.4,7.3,27.4c3.8,12.1,3.8,24.9,7.3,37.1   c1.5,5.1,0.4,10.9,0.8,16.4c1.3,20.7,0.1,41.2-4.5,61.4c-2.8,12.1-6.4,24-10.9,35.6c-6.6,17.1-15.5,33-24.4,48.8   c-6.7,11.9-16.5,21.6-27,30.4c-2.7,2.2-5.5,4.3-8,6.7c-3.9,3.9-8.7,6.5-13.1,9.6c-9.3,6.7-19.7,11-29.5,16.5   c-13.5,7.5-26.5,16-40.9,21.5c-8.2,3.2-16.4,6.4-24.7,9.4c-6.7,0.9-12,5.5-18.6,7c-7.6,1.8-15.6,1.3-23,4   c-4.6,1.7-9.3,2.4-14.2,2.4c-8.8,0.1-17.5,1.6-26.2,3c-11.9,1.9-23.7,2.9-35.7,3c-8.9,0.1-17.9,1.9-26.8,0.1   c-1.5-0.3-3.3-0.5-4.8,0.7c-13.8,1-27.5-0.8-41.3-1.9c-4.6-0.4-8.9-0.4-13.1,1.7c-0.6,0.3-1.2,0.6-1.8,0.8   c-12.9,2.4-24.3,9.5-37.1,12.2c-5.5,1.2-10.7,3.6-16.2,4.7c-5.7,1.1-10.5,4.7-16,6.5c-3.7,1.2-7.3,3.1-11.3,3.6   c-12.9,1.6-24.6,7.9-37.5,10c-3.3,0.5-6.6-0.1-10.1,1c-0.3,3.7-2.1,7.4-1.3,11.4c-0.8,2.5-1.7,5-2.5,7.5c-6.3,17.7-17.6,31-33.7,41   c-8.5,5.2-17.5,7.9-26.7,10.4c-16.9,4.7-33.7,3.8-50.2-2.2c-1.5-0.5-3.3-0.5-4.9-0.7c-2.5-1-4.9-1.9-8.1-3.1   c1.8,5.7,0.8,10.6-2.7,14.7c-3.4,4-7.5,6.8-12.5,8.8c-14.7,5.7-27.6,0.8-40.9-6.2c-11.8,13.1-24.2,7.7-36.7-0.2   c-0.7,1.8-1.2,3.5-1.9,5.2c-3.9,9.2-12.6,12.5-21.6,8.2c-4.5-2.2-9-4.3-13.5-6.5c-1.4-1.7-3.4-2.6-5.3-3.6   c-3.3-1.8-7.4-2.6-9.9-5.6c-7.1-8.3-16.5-13.7-25-20.5c-0.9,2.9-1.6,5.4-2.6,7.9c-3.4,8.1-11.8,13.1-18.6,10.6   c-4-1.4-8.2-3.2-11.5-5.9c-9.7-8.1-19.8-16.1-26.8-27c-2.4,1.9-5.1,3-6.5,5.6c-5.6,4.3-9.9,10.1-16,14.1c-5.3,3.4-7.9,9.1-9.2,15.4   c-3.3,16.2-16.8,27-32.7,26.3c-5.7-0.2-10.4-3.5-15.2-5.9c-12.2-6-24.2-12.3-36.4-18.3c-17.4-8.6-33.4-19.4-47.5-33   c-2.3-2.2-3.3-5.4-6-7.2c-4.3-5-8.9-9.7-12.8-15.1c-9.7-13.5-16.9-28.1-19.2-44.7c-0.8-5.5-4.1-10-5.5-15.4   c-1.4-5.3-2.7-10.7-3.2-16c-1.1-13.2-2.2-26.5-1-39.8C34.8,767,34.2,760.4,35.8,753.9z M1028.9,326c0.2-1.9,1.5-2.2,2.4-2.8   c12.2-7.9,24.9-15.1,36.8-23.5c12-8.5,24.1-17,36.2-25.4c3.3-2.3,6.8-4,9-7.6c1.3-2.1,3.3-3.4,1.6-6.5c-1.7-3.1-4.3-5.2-7.5-4.9   c-11.4,1-21.9-3.7-33.2-3.8c-8.8-0.1-17.6-3-26.5-4.1c-10.8-1.4-21.8-1.9-32.6-3.6c-6.9-1.1-13.9-2-20.9-2.5   c-6.1-0.4-12.2,0.1-18.3-0.3c-11.1-0.7-22.2-0.9-33.3-0.7c-4.1,0.1-8.3-1.2-12.4-0.4c-5.3,0.9-10.7,0.8-15.9,0.3   c-6.7-0.6-13.3,0.7-19.9,0.3c-2.3-0.2-4,1.3-5.5,3c-8.9,9.9-16.9,20.5-22,33c-1.2,2.8-2.2,5.7-4.4,7.8   c-8.9,8.5-14.3,19.4-20.4,29.8c-4.3,7.3-7.8,15.1-11,22.9c-2.1,4.9-3.8,10.2-2.9,15.9c3.5,0.5,7.2,2.1,10,1.1   c6.7-2.4,14-0.2,20.5-3.4c2.1-1,5.6-1.7,6.9,0.8c2.9,5.8,7.3,10.3,11.6,14.9c6.9,7.3,13,15.4,20.8,21.7c6.2,5,13.7,3.4,18.5-3.2   c3.1-4.3,3.9-4.5,8.2-1.1c5.3,4.1,11.2,6.7,17.8,6.9c6.3,0.2,10.4,3.3,14.3,7.8c5.6,6.6,7.2,15.2,11.3,22.6   c5.2,9.3,6.5,20.3,8.2,30.9c1.4,8.5,0.8,17.2,2.2,25.8c0.9,5.6,1.6,11.5,0.6,17.4c-3,18.9-9.9,36.6-16.7,54.4   c-6.7,17.5-19.6,28.6-34.5,38.5c-15.8,10.5-34.3,12.8-51.8,18.2c-5.9,1.8-12.1,1.9-18,3.3c-14.5,3.4-28.9,2.4-42.8-1.2   c-7.5-1.9-15-5.8-20.7-11.9c-1-1.1-2.4-1.8-3.6-2.5c-7.2-4.1-12.8-10.4-17.4-16.8c-4.5-6.2-8.8-12.2-14.6-17.3   c-4.4-3.8-9-7.6-12.4-12.2c-4.5-6-8.7-12-15.1-16.2c-1.2-0.8-2.4-2.2-2.7-3.5c-1.1-5.2-5.1-9.9-2.9-15.7c0.4-1.1,0.2-2.7-0.2-3.9   c-2.2-6.3-2.7-12.9-5.4-19.1c-3.7-8.7-4.8-18.3-9-26.8c-2.7-5.5-2.4-12.3-6.4-17c-4.4-5.1-7-11.3-11.4-16.3   c-1.9-2.3-2.3-5.5-4.8-7.5c-6.3-5.1-11.6-11.2-18.2-16c-6.7-4.9-13.3-9.6-20.5-13.8c-2.6-1.5-5.3-1.9-8-2.4c-3.9-0.6-9.6,2.9-9,5.3   c0.7,3.1,2,6.2,3.7,9c3.7,5.9,7.5,11.7,10.4,18c4.3,9,6.1,18.8,8.9,28.3c0.6,2,0.8,4.2-0.3,6c-2.3,0.4-3.4-0.9-4.3-2.3   c-5.3-8.5-12.2-15.7-19.1-22.7c-10.2-10.3-22.9-17-36.4-22c-3-1.1-5.1,0.5-6.9,2.7c-3.8,4.8-1.3,9.1,1.2,13.3   c3.9,6.6,6.9,13.4,7.7,22.7c-14.1-6.8-27.8-11.1-41.1-16.8c-13.3-5.7-28.3-5.2-42.5-7.9c1.8-8.7,2.3-9.7,6.9-9.9   c9.8-0.3,19.5-1.1,29-3.7c7.6-2.1,15.3-2.2,23-3.3c13.8-1.9,27.5-4.2,41.2-6.8c11.3-2.2,16.5-8.7,13.9-20.2   c-2.6-11.7-4.3-23.5-5.7-35.4c-1.2-10.5-3.2-21-4-31.6c-0.5-6.7-0.7-13.6-2.1-20.3c-2.2-10.8-2.6-21.7-4.4-32.5   c-1.9-11.3-2.5-22.8-4.6-34c-3.3-17.8-5.1-35.8-7-53.8c-1.4-13-3.6-25.9-5.7-38.9c-1.5-9.2-5.6-11.6-14.8-10.4   c-8.5,1.1-17,3.1-25.7,2c-6.3-0.8-12.6-1.7-18.9-0.6c-14.1,2.4-28.5,1.2-42.6,3.3c-3,0.5-6.3-0.9-9.4-0.6   c-15.9,2-31.9,1.1-47.8,1.9c-14.2,0.8-28.6-0.5-42.7,2.3c-1,0.2-2,0.5-2.7-0.5c-0.6-1.1,0.2-1.9,0.5-2.8c3.4-9.6,9.3-18,16.2-25   c11.4-11.5,17.8-26.5,28.5-38.4c4.5-5.1,1.1-13.5-5.4-15.8c-5.3-1.9-9.9-0.4-14.7,5.3c-4.9,5.8-8.6,12.5-13.2,18.5   c-8.7,11.3-16.1,23.6-24.2,35.4c-4.3,6.3-8.9,12.4-13.6,18.5c-1.8,2.4-4,3.7-7.3,4.4c-7.8,1.8-11.9-3.7-14.9-8.3   c-5.1-7.7-11.5-13.9-18.1-19.8c-9.8-8.9-19.1-18.4-27.9-28.2c-5-5.6-10.2-10.9-15.5-16.1c-4.7-4.5-11.5-4.7-15.7-0.6   c-3.8,3.7-3.9,10.2,0.3,14.9c4,4.4,7.2,9.5,11.7,13.5c3.1,2.7,6.1,5.7,8.6,9c6.5,8.2,13.4,16.1,21.7,22.6   c4.6,3.6,9.4,7.2,11.9,13.5c-3.6,0.5-6.6,1.2-9.7,1.5c-14.3,1.2-28.5,1.6-42.8,1.6c-1.2,0-2.3,0-3.4,0.4   c-9.7,3.1-19.2,6.4-28.4,10.9c-10.5,5.1-21.1,9.9-32,14.1c-18.8,7.3-37.5,14.8-55.8,23.2c-6.6,3-11.2,9-11,16.5   c0.3,8,1.8,16.1,3.7,24c2.8,11.3,4.2,22.9,4.9,34.3c0.8,13,4.2,25.6,4.3,38.5c0,2.5,0.2,5.1,0.9,7.4c3.3,10.9,2.7,22.3,5.3,33.3   c2.2,9,1.5,18.5,3.8,27.5c0.9,3.5,2.4,7.5,0.7,11.7c-2.4-1.2-4.4-2.3-6.5-3.1c-11.4-4.6-23.1-8.2-35.3-10c-2.6-0.4-5.3-1.1-7.9-0.1   c-10.4,4-19.3,9.4-22.9,21.2c-1.9,6.3-2,12.1,0.6,17.8c3.6,8.2,10.1,14.5,17.4,19.2c8,5.1,16.3,10.2,26,12.2c4.8,1,9.2,4,14,4.6   c8,0.9,15.6,2.8,23.2,5.3c1.4,0.5,2.5,1,2.8,2.4c1.2,4.6,4.7,6,8.8,7c9,2.3,18.2,1.3,27.3,1c8.7-0.3,17.2-3.1,26.2-1.3   c8.6,1.7,17.1,4.1,26,3.5c2-0.1,3.6,0.5,3.6,3.7c-6.2,0.3-12,2.7-18.1,3.8c-11.2,2.1-21.6,6-31.7,11.1c-5.5,2.8-9.9,7.3-15.6,9.8   c-5.7,2.5-10.2,6.8-15.1,10.4c-3.3,2.5-7.1,3.9-10.2,7c-10.6,10.7-21,21.5-28.2,35c-4.2,7.9-8.4,15.8-10.5,24.5   c-1.9,7.8-1.3,15.3,7,20c1.5,0.9,2.7,2.5,3.9,3.8c1.2,1.2,1.8,2.6,0.7,4c-2.4,3.3-3.9,7.4-7.4,10c-3,2.3-5,5.3-6.3,8.7   c-1,2.5-2,4.9-3.9,6.9c-9,9.2-14.8,20.7-22.2,31c-7.4,10.3-15.1,20.4-22.4,30.9c-5.6,8-11.2,16.3-15.5,24.7   c-6,12-11.1,24.7-15.7,37.6c-5,14.2-7,28.8-8,43.7c-0.7,10.2,1.4,20.2,2.3,30.2c0.8,8.9,1.7,18.2,7.2,25.9c1,1.4,0.6,3.2,0.9,4.8   c1.1,7.4,2.3,14.9,5.7,21.6c6.4,12.4,14.1,23.9,24.2,33.7c2.7,2.6,4.4,6.4,7.3,8.8c9.2,7.4,18.1,15.2,28.6,21   c18.4,10.1,37.2,19.6,56.2,28.6c2.1,1,3.7,3.1,6.7,2.9c9.7-0.9,18.9-9,20.8-18.6c1.4-7.1,4-13.3,9.6-18.5c2.9-2.7,6.6-4.5,9-7.3   c7.4-8.6,17.5-14.3,24.3-23.5c1.5-2.1,3.7-2.5,4.5,1c0.7,2.9,1.6,5.7,2.4,8.6c1.4,4.8,5.6,7.2,8.6,10.8   c5.5,6.5,12.1,11.9,18.9,16.7c6.7,4.8,12.4,1.7,13-6.8c0.3-4.5-0.1-9,0.1-13.5c0.2-3.9,0.8-7.7,1.2-11.6c2.9,0.1,3.8,2,4.9,3.6   c0.9,1.2,1.4,2.7,2.4,3.8c10.5,12.5,23.5,22.3,36.4,32c6.8,5.1,14.3,10.1,22.8,12.8c2.7,0.8,5.1,1.9,7.5,0c2.2-1.8,1.8-4.2,1.6-6.8   c-0.4-6.2-0.1-12.4-0.1-18.5c2-0.5,3-0.2,3.9,0.8c4.2,4.8,9.7,8.1,14.2,12.5c2.9,2.9,6.6,4.5,10.4,5.6c7.9,2.3,14.8-3.1,10.9-11.4   c-0.8-1.7-0.6-3.4,1.1-4.4c1.5-0.8,2.6,0.2,3.8,1.3c8,7.6,16.4,14.1,28.1,15.6c8.6,1.1,17.8-2.2,22.9-10c-4.2-4.1-6.4-9.4-8.8-14.7   c-1.3-2.8-3.2-5.4-0.3-8.1c2.8-2.6,5.7-1.6,8.6,0.3c9.4,6,19.5,10.6,30.3,12.9c11.6,2.4,23.4,4.1,35.6,1c9.6-2.4,18.7-5.2,27.4-10   c16.8-9.4,27.1-23.5,31.6-42c0.9-3.4,1.6-7,0.5-10.7c-2.1-7.2-1.5-8.9,7.6-9.7c2.8-0.2,5.7,0,8.5-0.1c4.5-0.2,8.9-0.8,13.2-2.2   c9.5-3.1,19-6,28.7-8.1c5.6-1.2,11.3-3.1,16.1-6.1c6.3-4,13.4-4.8,20.1-6.8c6.6-2,13.1-4.2,19.8-6c5.4-1.5,9.6-5.2,14.9-6.7   c3.4-1,7-0.3,10.3-1.9c4.6-2.2,9.7-2.6,14.6-2.1c14.3,1.4,28.6,2.5,43,1.7c5.1-0.3,10.4,0.8,15.4,0.5c18-1.1,36.1-1.3,53.9-4.6   c12.6-2.3,25.6-2.2,38.3-5c11-2.5,22-4.4,32.5-8.7c9.4-3.8,19.2-6.3,28.5-10.4c8.9-3.9,17.4-8.9,26-13.5   c14.3-7.7,28.7-15.2,42.7-23.5c9.5-5.6,17.2-13.4,25.7-20.3c15.3-12.5,23.6-30.1,32.5-47c5.2-10,10.1-20.3,13.6-31   c4.6-14.1,9.4-28.3,10.2-43.4c0.5-9.9,3-19.8,2.5-29.6c-0.6-10.7-1.2-21.4-2.7-32.1c-2.5-17.6-6.3-34.8-11-51.9   c-3.6-13.2-11.1-24.7-16.2-37.2c-3.9-9.5-11.1-17.5-17.8-25.6c-4.7-5.6-9.8-11-11.9-18.7c-1.2-4.6-1.7-9.5-4.1-13.7   c-4.2-7.3-4.1-10.3,2.3-15.8c7.6-6.4,11.5-14.6,13.8-24.1c1.9-7.7-1-14.1-5.2-19.4c-5.5-6.9-13.4-10.4-22.4-11   C1032.5,327.8,1030.5,327.7,1028.9,326z M576.3,416.4c-6.7,1-13.2,0.8-20.6,2.8c8.3,3.2,15.1,7.2,23.3,9   C578,424,577.2,420.4,576.3,416.4z M631,416.3c-0.6-4.6-2.5-7.3-4.9-9.7c-2.1,0.4-3.8,0.9-5.4,2C623.9,410.9,627,413.3,631,416.3z"
       id="path23" /><path
       class="st4"
       d="M1193.8,910.1c-14.4-1.5-32.2-2.5-48.5-10.9c-31.3-16-48.6-51.8-40.5-86c2.4-10.2,2.3-20.5,4.2-30.6   c7.7-42,43.5-67.5,85.6-61.9c14.5,1.9,27.8,6.6,40.2,14.1c8.4,5.1,18.2,7.4,26.5,12.7c22.8,14.6,35.3,34.9,34.7,62.3   c-0.2,11.5-3.5,22.5-9.7,32.2c-5.9,9.3-10.8,19.1-16.8,28.4C1254.3,894.1,1225.2,910.1,1193.8,910.1z"
       id="path25" /><path
       class="st2"
       d="M1035.2,837c19.9-0.7,35.5,6.2,48,19c15.9,16.2,21.1,36.2,18.1,58.7c-2.2,16.8-9.3,31.4-20.5,43.5   c-20.2,21.9-47.5,30.8-77.4,18.5c-13.3-5.4-25.2-12.8-33.8-24.6c-5.9-8.1-8.9-17.4-10.7-27.1c-3.4-18.3,1.5-35.1,10.9-50.5   c10.3-16.8,25.2-28.4,44.2-34.7C1021.5,837.5,1029,836.7,1035.2,837z"
       id="path27" /><path
       class="st1"
       d="M191,474.6c-5.3,4.5-11,8.5-16.8,12.3c-11.3,7.5-20.5,17.1-28.4,28.2c-3.7,5.3-8.2,9.9-11.6,15.5   c-0.8,1.3-2.1,2.5-2.3,3.8c-1,6.9-4.7,12.8-7.3,19c-2.4,5.8-1.4,11.8-1.8,17.7c-11.9-1.2-23.3-3.8-33.2-11.1   c-16.1-11.9-24.3-28.4-26.4-47.9c-2-18.8,2-36.4,13.3-52c6.9-9.5,15.5-16.9,26.2-21.7c2.2-1,4.7-1.6,6.5-3.6   c9,7.1,20.7,7.4,30.7,12c2.1,1,4.5,1,6.8,1.3c6.8,0.8,13,1.5,18.4,7.6c5.5,6.1,14.2,8.2,22.9,8.4   C188.4,467.8,191.5,470.7,191,474.6z"
       id="path29" /><path
       class="st5"
       d="M1233.6,583.8c-29.7,0.2-54-24.4-54.2-54.6c-0.2-29.1,22.9-53.5,50.7-53.8c30.7-0.3,58.5,26.1,58.6,55.4   C1288.8,560,1264.2,583.7,1233.6,583.8z"
       id="path31" /><path
       class="st4"
       d="M787,824.9c1.5-1.1,3.3-1,4.8-0.7c9,1.7,17.9,0,26.8-0.1c12-0.1,23.8-1.1,35.7-3c8.6-1.4,17.3-2.9,26.2-3   c4.8,0,9.5-0.8,14.2-2.4c7.4-2.6,15.4-2.2,23-4c6.6-1.5,11.9-6.2,18.6-7c6.5,24.1-0.2,45.2-15.5,63.8c-13,15.8-29.9,25.7-50.7,28.1   c-8.1,0.9-16.1,0.2-23.6-2.4c-12.9-4.5-25.3-10.3-36-19C794.7,862.1,787.3,845.1,787,824.9z"
       id="path33" /><path
       class="st2"
       d="M1311.8,341c-22.1,1-39.4-18-41.9-36.6c-2.7-20,3.9-36.3,20.2-47.7c17.1-12,37.5-11.9,54.6,1.4   c12.7,9.9,18.5,23.2,18.1,38.6c-0.5,18.5-8.7,34-29.7,39.9C1325.8,338.7,1318.9,341.7,1311.8,341z"
       id="path35" /><path
       class="st2"
       d="M796.1,911c-0.3,20.1-9.6,35.1-27.2,44.3c-8.7,4.6-18.3,5.3-27.9,0.9c-5.7-2.6-12.3-2.4-18-5.6   c-12.1-6.9-18.7-17.5-20-31c-2.5-25.5,18-48.4,42-51.8c24-3.4,45.4,10.7,50.6,35.2C796.2,905.6,796,908.3,796.1,911z"
       id="path37" /><path
       class="st2"
       d="M880.2,187.6c0.8,15.9-16.5,34.6-37.4,34.9c-9.6,0.1-19.8-1.1-28.8-5.1c-13-5.9-19.9-16.7-21.1-30.9   c-1.4-16.6,6.1-29,19-38.3c13.7-10,36.1-9.4,49.9,0.5C873.9,157.1,880,168.6,880.2,187.6z"
       id="path39" /><path
       class="st4"
       d="M842.1,364.7c5.2-3.1,11.2-0.6,16.6-2.5c1-0.4,1.6,0.9,2.3,1.6c6.2,6.7,11.7,13.9,18.5,20.1   c3.7,3.4,5.9,8.2,10.4,11.2c3.9,2.6,8,4.8,12.4,6.3c4.2,1.4,8.3,0.6,11.7-2.3c4.7-4,9.3-5.3,14.7-1.4c3.2,2.3,7.2,2.9,10.9,3.1   c6.7,0.3,10.3,4,12.4,9.8c0.9,2.3,2.1,4.6,2.1,7.1c-4.2,4.4-8.1,9.3-12.8,13.2c-16.3,13.8-34.9,19.8-55.6,11.8   c-13.7-5.3-25.8-13.7-34.3-26.4c-9.7-14.5-11.7-30.5-10-47.3C841.6,367.6,841.9,366.2,842.1,364.7z"
       id="path41" /><path
       class="st6"
       d="M953,54.5c-0.2,8.3-5.4,16.4-15.2,21.5c-2.6,1.4-5.4,2.6-8,4.1c-16.6,9.6-36.9,0.3-40.6-18.5   c-0.7-3.6-1.4-7.2-1.8-10.8c-1-8.9,1.7-16.7,9.5-21c10.1-5.6,21.1-9.2,33-6.7C943.8,26.1,953,37.5,953,54.5z"
       id="path43" /><path
       class="st6"
       d="M1082.9,438c-2.2-0.2-3.6-1.9-4.7-3.4c-6.7-9-15.1-16.8-18.8-27.9c-1.6-4.8-1.8-10.1-4.3-14.6   C1078.4,392,1094,417.6,1082.9,438z"
       id="path45" /><path
       class="st7"
       d="M238.9,913.3c1.4-2.6,4.1-3.7,6.5-5.6c7,11,17,18.9,26.8,27c3.2,2.7,7.4,4.5,11.5,5.9   c6.9,2.5,15.3-2.5,18.6-10.6c1-2.4,1.7-5,2.6-7.9c8.5,6.8,17.9,12.2,25,20.5c2.6,3,6.6,3.7,9.9,5.6c1.9,1.1,3.8,1.9,5.3,3.6   c-5.3,6.3-10.4,12.9-17.2,17.8c-12,8.6-25.3,12.6-39.8,11.1c-25.5-2.6-43.6-24.9-49.4-46.1c-1.4-5-1-10.2-0.2-15.3   C238.8,917.2,239,915.3,238.9,913.3z"
       id="path47" /><path
       class="st8"
       d="M1028.9,326c1.6,1.7,3.6,1.8,5.6,1.9c8.9,0.7,16.9,4.2,22.4,11c4.3,5.4,7.1,11.7,5.2,19.4   c-2.3,9.5-6.2,17.7-13.8,24.1c-6.4,5.4-6.5,8.5-2.3,15.8c2.4,4.2,2.9,9.1,4.1,13.7c2.1,7.7,7.1,13.1,11.9,18.7   c6.8,8,13.9,16.1,17.8,25.6c5.1,12.5,12.6,24,16.2,37.2c4.7,17.1,8.4,34.3,11,51.9c1.6,10.7,2.1,21.4,2.7,32.1   c0.5,9.8-1.9,19.7-2.5,29.6c-0.8,15.1-5.6,29.3-10.2,43.4c-3.5,10.7-8.4,21-13.6,31c-8.9,16.9-17.3,34.5-32.5,47   c-8.4,6.9-16.2,14.7-25.7,20.3c-14,8.3-28.4,15.8-42.7,23.5c-8.6,4.7-17.1,9.6-26,13.5c-9.3,4-19.1,6.6-28.5,10.4   c-10.5,4.3-21.6,6.2-32.5,8.7c-12.7,2.9-25.6,2.7-38.3,5c-17.9,3.2-35.9,3.5-53.9,4.6c-5,0.3-10.3-0.8-15.4-0.5   c-14.4,0.8-28.7-0.2-43-1.7c-5-0.5-10-0.1-14.6,2.1c-3.3,1.6-6.9,0.9-10.3,1.9c-5.3,1.5-9.5,5.2-14.9,6.7c-6.6,1.8-13.2,4.1-19.8,6   c-6.7,2-13.8,2.8-20.1,6.8c-4.8,3-10.5,4.9-16.1,6.1c-9.8,2.1-19.3,5-28.7,8.1c-4.3,1.4-8.7,2-13.2,2.2c-2.8,0.1-5.7-0.2-8.5,0.1   c-9,0.8-9.6,2.5-7.6,9.7c1.1,3.7,0.3,7.3-0.5,10.7c-4.6,18.4-14.8,32.6-31.6,42c-8.6,4.8-17.8,7.6-27.4,10c-12.2,3-24,1.4-35.6-1   c-10.7-2.2-20.9-6.9-30.3-12.9c-2.9-1.9-5.8-2.9-8.6-0.3c-2.9,2.7-0.9,5.2,0.3,8.1c2.4,5.3,4.6,10.6,8.8,14.7   c-5.1,7.8-14.3,11-22.9,10c-11.7-1.5-20.1-8-28.1-15.6c-1.2-1.1-2.3-2.2-3.8-1.3c-1.7,0.9-1.9,2.6-1.1,4.4   c3.9,8.3-3,13.6-10.9,11.4c-3.9-1.1-7.5-2.7-10.4-5.6c-4.5-4.4-10-7.7-14.2-12.5c-0.8-0.9-1.9-1.3-3.9-0.8c0,6.1-0.3,12.3,0.1,18.5   c0.2,2.6,0.6,5-1.6,6.8c-2.4,1.9-4.8,0.8-7.5,0c-8.5-2.7-16-7.7-22.8-12.8c-12.9-9.7-26-19.4-36.4-32c-0.9-1.1-1.5-2.6-2.4-3.8   c-1.1-1.6-2-3.5-4.9-3.6c-0.4,3.9-1,7.7-1.2,11.6c-0.2,4.5,0.2,9-0.1,13.5c-0.6,8.4-6.2,11.6-13,6.8c-6.9-4.9-13.5-10.2-18.9-16.7   c-2.9-3.5-7.2-6-8.6-10.8c-0.8-2.9-1.7-5.7-2.4-8.6c-0.9-3.5-3-3-4.5-1c-6.8,9.2-16.9,14.9-24.3,23.5c-2.4,2.8-6.1,4.6-9,7.3   c-5.6,5.2-8.3,11.4-9.6,18.5c-1.9,9.7-11.1,17.8-20.8,18.6c-3,0.3-4.5-1.9-6.7-2.9c-19-9-37.7-18.5-56.2-28.6   c-10.5-5.8-19.4-13.6-28.6-21c-2.9-2.3-4.6-6.1-7.3-8.8C74,888.1,66.3,876.6,60,864.2c-3.4-6.6-4.6-14.2-5.7-21.6   c-0.2-1.6,0.2-3.4-0.9-4.8c-5.6-7.8-6.4-17-7.2-25.9c-0.9-10-3-19.9-2.3-30.2c1.1-14.9,3-29.5,8-43.7c4.5-12.8,9.6-25.5,15.7-37.6   c4.3-8.5,9.9-16.7,15.5-24.7c7.2-10.5,15-20.6,22.4-30.9c7.4-10.3,13.3-21.8,22.2-31c1.9-1.9,2.9-4.4,3.9-6.9   c1.4-3.4,3.3-6.5,6.3-8.7c3.4-2.6,4.9-6.6,7.4-10c1.1-1.5,0.5-2.9-0.7-4c-1.3-1.3-2.4-2.9-3.9-3.8c-8.2-4.7-8.8-12.2-7-20   c2.1-8.7,6.3-16.6,10.5-24.5c7.2-13.5,17.6-24.3,28.2-35c3-3,6.9-4.5,10.2-7c4.8-3.6,9.4-7.9,15.1-10.4c5.6-2.5,10-7,15.6-9.8   c10.1-5.1,20.5-9,31.7-11.1c6-1.1,11.8-3.6,18.1-3.8c0-3.2-1.7-3.8-3.6-3.7c-8.9,0.5-17.5-1.9-26-3.5c-9-1.8-17.5,1-26.2,1.3   c-9.1,0.3-18.3,1.3-27.3-1c-4.1-1-7.6-2.5-8.8-7c-0.4-1.5-1.5-2-2.8-2.4c-7.6-2.5-15.2-4.3-23.2-5.3c-4.8-0.6-9.2-3.6-14-4.6   c-9.7-2-18-7.1-26-12.2c-7.3-4.6-13.8-10.9-17.4-19.2c-2.5-5.7-2.5-11.5-0.6-17.8c3.6-11.8,12.5-17.2,22.9-21.2   c2.6-1,5.2-0.3,7.9,0.1c12.2,1.8,23.9,5.4,35.3,10c2.1,0.8,4.1,1.9,6.5,3.1c1.7-4.2,0.2-8.2-0.7-11.7c-2.3-9.1-1.6-18.5-3.8-27.5   c-2.6-11-2-22.4-5.3-33.3c-0.7-2.3-0.8-4.9-0.9-7.4c-0.1-13-3.5-25.6-4.3-38.5c-0.7-11.4-2.1-23-4.9-34.3c-1.9-7.8-3.4-15.9-3.7-24   c-0.3-7.5,4.4-13.5,11-16.5c18.3-8.4,37-15.8,55.8-23.2c10.8-4.2,21.5-9,32-14.1c9.2-4.5,18.8-7.7,28.4-10.9   c1.1-0.4,2.2-0.3,3.4-0.4c14.3,0,28.6-0.4,42.8-1.6c3.1-0.3,6.1-0.9,9.7-1.5c-2.5-6.3-7.3-10-11.9-13.5   c-8.4-6.5-15.2-14.3-21.7-22.6c-2.6-3.2-5.5-6.3-8.6-9c-4.6-4-7.7-9.1-11.7-13.5c-4.3-4.7-4.2-11.1-0.3-14.9   c4.3-4.2,11.1-4,15.7,0.6c5.4,5.2,10.5,10.6,15.5,16.1c8.8,9.8,18.1,19.3,27.9,28.2c6.5,6,13,12.2,18.1,19.8c3,4.5,7.1,10,14.9,8.3   c3.3-0.7,5.5-2.1,7.3-4.4c4.6-6.1,9.2-12.2,13.6-18.5c8.1-11.8,15.5-24.1,24.2-35.4c4.7-6,8.3-12.7,13.2-18.5   c4.8-5.7,9.4-7.2,14.7-5.3c6.5,2.3,9.9,10.7,5.4,15.8c-10.6,12-17.1,26.9-28.5,38.4c-6.9,7-12.8,15.3-16.2,25   c-0.3,0.9-1.1,1.7-0.5,2.8c0.8,1,1.8,0.7,2.7,0.5c14.1-2.8,28.5-1.6,42.7-2.3c15.9-0.9,31.9,0.1,47.8-1.9c3.1-0.4,6.3,1,9.4,0.6   c14.1-2.1,28.5-0.9,42.6-3.3c6.3-1.1,12.6-0.1,18.9,0.6c8.7,1.1,17.2-0.9,25.7-2c9.2-1.2,13.3,1.1,14.8,10.4   c2.1,12.9,4.3,25.8,5.7,38.9c1.9,18,3.7,36,7,53.8c2.1,11.2,2.7,22.7,4.6,34c1.8,10.8,2.2,21.8,4.4,32.5c1.4,6.6,1.6,13.5,2.1,20.3   c0.8,10.6,2.8,21,4,31.6c1.3,11.9,3.1,23.7,5.7,35.4c2.5,11.5-2.6,18-13.9,20.2c-13.7,2.7-27.4,4.9-41.2,6.8   c-7.7,1-15.5,1.2-23,3.3c-9.5,2.6-19.2,3.4-29,3.7c-4.6,0.1-5.2,1.1-6.9,9.9c14.2,2.7,29.1,2.2,42.5,7.9c13.3,5.7,27,10,41.1,16.8   c-0.9-9.3-3.9-16.2-7.7-22.7c-2.5-4.2-5-8.5-1.2-13.3c1.8-2.2,3.9-3.8,6.9-2.7c13.5,5.1,26.2,11.7,36.4,22   c6.9,7,13.8,14.3,19.1,22.7c0.9,1.4,2,2.7,4.3,2.3c1.2-1.9,0.9-4.1,0.3-6c-2.8-9.5-4.6-19.3-8.9-28.3c-3-6.3-6.8-12.1-10.4-18   c-1.7-2.7-2.9-5.8-3.7-9c-0.6-2.4,5.1-5.9,9-5.3c2.7,0.4,5.5,0.9,8,2.4c7.1,4.2,13.8,8.9,20.5,13.8c6.6,4.9,11.9,10.9,18.2,16   c2.5,2,2.8,5.3,4.8,7.5c4.3,5.1,7,11.2,11.4,16.3c4,4.7,3.7,11.5,6.4,17c4.2,8.5,5.3,18.2,9,26.8c2.7,6.2,3.2,12.8,5.4,19.1   c0.4,1.2,0.6,2.8,0.2,3.9c-2.2,5.9,1.8,10.5,2.9,15.7c0.3,1.3,1.5,2.7,2.7,3.5c6.4,4.2,10.6,10.2,15.1,16.2   c3.4,4.6,8,8.4,12.4,12.2c5.8,5,10.1,11,14.6,17.3c4.6,6.4,10.2,12.6,17.4,16.8c1.3,0.7,2.7,1.5,3.6,2.5c5.7,6.2,13.2,10,20.7,11.9   c13.9,3.6,28.3,4.6,42.8,1.2c5.9-1.4,12.1-1.4,18-3.3c17.5-5.5,36-7.7,51.8-18.2c14.9-9.9,27.8-21.1,34.5-38.5   c6.8-17.8,13.7-35.5,16.7-54.4c0.9-5.9,0.3-11.8-0.6-17.4c-1.4-8.6-0.8-17.2-2.2-25.8c-1.7-10.6-3-21.6-8.2-30.9   c-4.1-7.4-5.7-15.9-11.3-22.6c-3.9-4.6-8-7.6-14.3-7.8c-6.6-0.2-12.5-2.8-17.8-6.9c-4.3-3.4-5.1-3.2-8.2,1.1   c-4.8,6.5-12.3,8.2-18.5,3.2c-7.8-6.3-13.9-14.4-20.8-21.7c-4.3-4.6-8.7-9.1-11.6-14.9c-1.3-2.5-4.8-1.8-6.9-0.8   c-6.5,3.2-13.8,1-20.5,3.4c-2.7,1-6.4-0.6-10-1.1c-0.9-5.7,0.9-11,2.9-15.9c3.3-7.8,6.7-15.6,11-22.9c6.1-10.4,11.5-21.3,20.4-29.8   c2.2-2.1,3.2-5,4.4-7.8c5.2-12.4,13.1-23,22-33c1.5-1.7,3.2-3.1,5.5-3c6.6,0.5,13.2-0.9,19.9-0.3c5.3,0.5,10.6,0.6,15.9-0.3   c4.2-0.7,8.3,0.5,12.4,0.4c11.1-0.2,22.2,0,33.3,0.7c6,0.4,12.2-0.1,18.3,0.3c7,0.5,14,1.4,20.9,2.5c10.8,1.6,21.7,2.2,32.6,3.6   c8.9,1.1,17.7,4.1,26.5,4.1c11.3,0.1,21.9,4.8,33.2,3.8c3.2-0.3,5.7,1.8,7.5,4.9c1.7,3-0.3,4.3-1.6,6.5c-2.2,3.6-5.8,5.4-9,7.6   c-12.1,8.4-24.2,16.9-36.2,25.4c-11.9,8.5-24.6,15.6-36.8,23.5C1030.4,323.9,1029.1,324.2,1028.9,326z M540.1,880.1   c4.8-1,7.7-4.3,8.6-8.6c1.1-5.2,0-10.3-4-14.2c-1-1-2.3-1.3-3.6-1.3c-18.2-0.8-35.7-5.5-53.4-9.2c-1.2-0.2-2.3-0.9-3.1,0.5   c-0.6,1.1,0.1,1.9,0.7,2.6c4.2,4.7,7.4,10.3,12.4,14.2c0.9,0.7,1.7,1.7,2.8,2.1c4.1,1.8,4.9,6.6,8.5,8.9c7.7,4.8,16.3,6.1,25.1,6.8   C536.2,882,538.3,881.5,540.1,880.1z M954,586.4c-0.7,0.5-1.4,1-2,1.5c-1.1-0.1-1.8,0.7-2.6,1.2c-5.7,3.6-10.3,8.6-15.9,12.4   c-11.6,8.1-25,11.6-38,15.8c-10.8,3.5-22.3,4.8-33.5,7.1c-0.8-0.3-1.5-0.2-2.1,0.3c-2,0-3.9,0-5.9,0c-0.7-0.6-1.4-0.8-2.1,0   c-3.1,0.9-2.6,3.5-2.8,5.7c-0.5,7.4,1.1,14.8-1.1,22.2c-2.1,7-4.4,13.9-7.9,20.3c-1,1.9-2.9,2.5-5.5,2.9c1.3-5.2,2.2-9.9,4.2-14.6   c4-9.6,6.3-19.6,5-30.1c-0.7-5.9-2.1-6.6-8-6c-11.1,1.1-21.8-0.7-32.4-3.7c-3.1-0.9-6.8-2.1-8.8-4.4c-5.9-6.7-13.8-10.8-20.6-16.2   c-4.4-5.3-10.8-8.8-14-15.2c-0.9-1.8-2-3.5-3.2-5c-8.3-10.5-18.4-19.5-27.2-29.6c-7.2-8.2-15.2-15.7-23.2-23.1   c-3.5-3.2-7.6-5.8-11.8-7.9c-2.6-1.3-5.9-4.2-8.7-1.6c-2.6,2.4-0.4,6,0.3,8.9c3.5,13.7,7.2,27.4,7.8,41.6c0.3,6.6-0.2,13.3,2,19.7   c0.2,0.6,0,1.3,0,2c0.1,6.5-0.7,12.9-1.4,19.3c-0.9,8.8-1.5,17.6-3.9,26.1c-0.4,0.9-1.1,1.7-1.2,2.7c-1.9,11.1-6.1,21.5-10.7,31.4   c-9.9,21.3-21.7,41.5-40,57c-4.7,4-8,9.5-13.2,12.8c-8.3,5.3-15.6,11.7-23.5,17.5c-11.8,8.7-24.9,15.3-37.7,22.2   c-12.8,6.9-25,15.1-38.5,20.5c-1.2,0.5-2.3,1.4-3.1,2.4c-4.5,5.5-9.5,10.2-16.7,11.9c-1.3,0.3-2.5,1.1-3.3,2.2   c-5.5,7.5-12.8,12.4-21.5,15.6c-1.3,0.5-2.9,1-2.9,2.9c0.8,1.4,2.1,1.7,3.4,1.8c12.2,1.4,24.4,2.8,36.6,4c3.6,0.4,7.4-0.9,10.9,0.4   c6.1,2.3,12.4,1.8,18.7,1.3c7.5-0.6,15-1,22.4-1.8c11.9-1.3,23.8-2.5,35.6-4.3c9.5-1.5,18.7-4.6,27.7-8   c15.1-5.6,31.2-8.2,46.4-13.5c9.6-3.3,18.6-7.9,28-11.9c9.2-3.9,18.6-6.9,28.8-6.5c5.1,0.2,10.6,0.2,13.9-4.8   c4.4-6.8,11-12,14-19.9c1.3-3.5,3.1-5.1,7.5-8.1c-3.7,8.8-5.9,17.6-11.9,24.6c-3.8,4.4-3.3,6.1,2.3,7.1c10.8,1.9,21.8,1,32.7,0.7   c8.6-0.3,17.2-1,25.8-1.1c18.4-0.2,36.8-1.7,55.1-2.9c6-0.4,11.8-1.5,16.7-5.8c2.9-2.5,4-6.1,6.3-8.9c5.7-6.8,8.6-14.6,10-23.4   c1.7-11.1,3-22.1,2.9-33.3c0.6,0,1.3,0,1.9,0c2.1,2.4,1.7,5.3,1.8,8.1c-1,1.4-1,2.7,0.3,3.9c0.2,2,0.4,4,0.6,6.1   c-0.9,1.1-0.8,2.1,0.3,2.9c0,0.7,0,1.4,0,2c-1.3,1.2-1.4,2.5-0.3,3.9c-0.2,3-0.5,6-0.7,9.1c-1.1,0.9-1.2,1.9-0.3,2.9   c-0.2,1.6-0.4,3.3-0.6,4.9c-1,0.7-1.2,1.5-0.8,2.6c-0.9,4-1.9,8.1-2.8,12.1c-1,4.7,0.6,6.2,5.3,4.6c3.6-1.2,7.1-3.1,10.8-3.8   c10-1.9,18.3-7.7,27-12.2c6.9-3.6,13.6-7.5,20.8-10.5c6.8-2.8,12.9-6.7,17.5-12.6c4.4-2.7,8.9-5.2,13.2-7.9   c6.3-3.9,13.4-6.6,18.6-12.1c3.8-2.4,6.9-5.5,9.8-8.9c5.6-6.5,11.2-13,16.2-20c5.3-7.7,10.6-15.4,15.9-23.1   c3.3-6,6.7-11.8,9.7-17.9c6-11.9,10.2-24.4,13-37.5c3.4-16.4,7.2-32.6,6.8-49.7c-0.2-6.3-2.2-12.3-1.1-18.7   c1.2-6.9,0-13.9-2.1-20.7c-1.6-5.2-3.5-10.2-3.1-15.9c0.5-6.5-2.5-11.1-9.3-12.9c-2.7-0.7-5.2-2.3-7.1-4.4c0.5-0.5,1-1,1.5-1.5   c3.4,0.6,6.5,2,10.1,3.5c1.4-4.8-0.2-8.3-2.7-11.6c-3.1-4-7.9-5.9-11.6-9.1c-5.2-4.4-11-7.2-17.8-8.1c-1.3-0.4-2.6-0.8-3.9-1.3   c0-0.6,0-1.1,0-1.7c0.3-0.1,0.6-0.3,0.8-0.5c5.9,1.1,11.7,2.4,17.6,3.4c4.6,0.7,5.4-0.6,4.5-5.2c-1.9-9.7-9.4-16.2-14-24.4   c-4.5-8.2-10.7-15.5-16.4-23c-4.1-5.3-7.3-11.7-14.2-14.2c-5.5-2.1-8.4-6.2-8.6-11.7c-0.2-6.1,2.5-11.5,7.7-14.8   c3.9-2.4,8.1-4.4,12.5-6.1c5.3-2.1,9.5-6.1,12.2-11.3c1-2,1.8-4.1,1-6.7c-4.4-14-20.6-19.7-32.6-11.5c-1,0.7-2.1,1-3.1,1.6   c-8.6,5.5-17,11-14.4,23.4c0.7,3.3-1.4,4.1-4.3,3c-1.7-0.7-3.2-1.8-4.4-3.2c-2.9-3.3-6.2-6.1-10.1-8.1c-3.8-2-8.3-2.5-12-4.9   c-11.1-7.2-24-10.3-35.7-16.2c-2.4-1.2-5.1-1.5-7.8-1.1c-4.9-0.8-9,0.7-11.5,5c-3,5-1.2,15.3,2.7,19.7c3.4,3.8,8.3,5.5,11.9,8.9   c5.2,5,11.1,8,18,10.1c5.4,1.7,11.2,2.8,15.5,7.4c6.1,6.5,9,14.7,12.4,22.6c1.6,3.7,3.5,6.2,7.7,6.7c2.9,0.4,5.8,1.1,7.9,4   c-0.8,0.4-1.3,0.9-1.9,1c-3.2,0.8-7,1.3-6.3,5.9c0.9,6.5,4.1,9.2,9.6,8.6c4.7-0.5,8.8,0.9,13.5,3.3c-4,2-7.3,2.2-10.6,2.5   c-6.4,0.5-8.1,2.2-7.2,8.5c3.2,24.1,1.9,47.9-4.1,71.5c-0.2,0.8-0.4,1.6-0.5,2.4c-0.1,2.4,0.9,4.1,3.5,3.7   c6.6-1.2,12.9,0.7,19.3,1.5c14.1,3.8,30.3,13.9,32.6,20.8c-3.8-1.8-7.3-3.1-10.5-5.1c-7.4-4.5-15.2-8-23.8-9.8   c-6.2-1.7-12.1-4.6-18.8-4.4c-3.3,0.1-5.3,1.1-6.8,4.5c-3.7,8.5-5.5,17.8-10,26c-2.1,3.8,0.3,5.9,4,6.7c10.6,2.5,19.2,8.9,28,14.6   c4.2,2.7,7,7.1,11.5,9.5c1.7,1.2,2.6,2.9,3.6,4.7c0,0.6-0.1,1.1-0.1,1.7c-8-3.5-14.2-9.7-21.5-14.2c-8.1-5.1-15.9-10.9-25.1-14.2   c-2.7-1-4.5-0.7-6,1.6c-2.8,4.3-5.2,8.8-9.4,12.1C954.1,582.8,953.6,584.6,954,586.4L954,586.4z M372.2,526.4   c1.8-1.9,4.4-3.5,3.9-6.6c-1.5-8.5-4-16.6-9.3-23.7c-4.9-10.4-12.9-19-16.4-30.8c-2,1.9-3.2,2.8-4.2,3.9c-1.4,1.6-2.8,3.3-3.9,5.2   c-1.5,2.5-3.6,4.2-6.3,5.5c-6.7,3.2-6.7,3.8-3.9,10.8c4.6,11.5,11.3,21.7,18.7,31.5c3.2,4.3,7.7,6.9,13,7.7   C367.2,530.5,370.6,530.2,372.2,526.4z M691.8,502.4c4.5,2.9,8.6,6.5,14.7,8.5c2.1-19.6-0.1-38.4-7.8-55.6   c-11.6-25.7-31.7-44.4-55.5-59.9c-3,4.9,0.6,6.4,2.8,8.5c6,7.1,11.6,14.5,14.4,23.5c1.5,4.7,2.8,9.4,5.1,13.9   c2.5,5,2.5,10.7,4.3,15.7c3.4,9.3,4.6,18.6,3.1,28.3c-0.2,1.4,0,2.5,0.8,3.7C678.3,495.5,684.8,499.4,691.8,502.4z M131.8,381.3   c-5.9-1.1-11.6-3.2-17.7-2.2c-0.7,0-1.3-0.1-2-0.1c-5.8-0.5-9.7,3.1-12.2,7.2c-2.5,4-1.3,8.7,1.9,12.5c4.9,5.9,9.9,11.7,17.2,14.8   c14,5.9,27.7,13,43.4,14c5,0.3,5.5,0.3,5.8-4.5c0.5-8.4-2.6-16.4-2.6-24.7c0-3.6-2.8-5.9-6.2-7.1c-2.7-1-5.5-1.7-7.9-3.1   C145.4,384.3,138.5,383.2,131.8,381.3z M427.2,453.6c-1.3-3.1-3.6-4.9-6.8-6.1c-13.7-5-27.8-9.1-41.9-12.8   c-5.4-1.4-10.8,0.6-16.1,1.8c-0.7,0.2-1.4,1.4-1.8,2.3c-2.4,6-4.8,12.1-7.2,18.1c-0.8,2.1-0.7,4,1.5,5.1c3.9,2,7.2,4.7,11.1,6.7   c9.9,5.1,20.1,9.7,30.9,12.5c5.5,1.4,9.7,5.3,15.1,6.2c10.1,1.6,20.1,4.6,30.6,3.7c4.6-0.4,9.4-1.2,10.7-5.7   c1.1-4-0.5-8.5-4.3-11.4C444.8,463.9,435.4,459.4,427.2,453.6z M189.2,561.4c3-0.9,5.8-2.3,8.2-4.4c4.5-3.9,9.7-6.7,14.5-10.2   c3.1-0.2,5-2.3,7.1-4.2c1.7-1.6,3.2-3.5,5.1-4.8c13.5-8.9,24.2-20.7,35.6-31.8c4.7-4.6,8.4-10.3,14.3-13.5c2.5,4,2.7,7.9,0.2,13.2   c-3.4,7.2-6.4,14.6-10.1,21.6c-8.9,16.8-14.6,34.9-20.5,52.9c-2.2,6.7-4.3,13.6-5.3,20.7c-1,6.8,2.1,10,8.6,8.2   c6.1-1.7,11.8-4.4,16.8-8.4c1.2-0.9,2.3-1.9,2.6-3.5c0.6-0.4,1.2-0.6,1.7-1.1c10.7-9.8,15.4-23.1,20.7-36c3-5.9,6-11.7,8.9-17.6   c3.1-6.2,4.1-13,5.9-19.5c3.1-11.4,7-22.4,11-33.5c2.6-7.2,2.3-7.7-4.5-11.1c-5.2-2.6-9.6-5.9-12.5-11c-1.8-3.2-4.7-5.5-7.7-7.7   c-1.7-1.2-3.1-1.3-5-0.7c-5.2,1.6-10.5,2.4-15.6,4.7c-9.8,4.5-20.3,7.2-29.6,12.7c-2.3,1.4-4.7,2.4-7.1,3.6   c-7.1,3.5-15.2,5.2-21.5,10.4c-5.6,4.7-11.9,8.5-17.8,12.7c-11.9,8.4-22.6,17.7-30.1,30.3c-0.8,1.3-1.9,2.3-3,3.4   c-4.8,4.7-7.4,10.6-8.6,17.1c-1.3,7.2,6.6,17.8,13,17.1C173.3,569.9,182.4,568.5,189.2,561.4z M517,436.1   c-10.6-2-11.2-1.7-14.8,8.4c-0.2,0.5-0.2,1-0.3,1.5c-1.3,1.5-2.4,3.1-3.1,5c-11.6,8-22.5,9.2-34,0.5c-4.5-3.5-8.7-7.1-12.2-11.7   c-2.6-3.4-7.1-3.6-9.3-0.6c-3.3,4.5-3.1,7.2,0.9,11.2c1.9,1.9,3.6,4,5.7,5.6c9.3,7.1,13.3,17.2,15.9,28c0.6,2.5,0.1,4.8-0.8,7.3   c-2.8,7.9-9.3,9.9-16.4,10.5c-19.8,1.5-38.4-1.9-55.1-13.3c-3.1-2.1-6.8-2.6-10.5-1.6c-2,0.5-3.6,1.8-2.3,4   c4.2,6.9,5.8,14.7,8.1,22.2c2.2,7.2,2.4,14.4,1.6,21.8c-0.3,2.6-0.8,5.2-3.5,6.8c-7.9,4.8-15.7,4.6-23.1-0.9   c-0.8-0.6-1.7-1-2.6-1.5c-8.5-5.9-17-11.7-22-21.2c-3.3-6.1-7.9-11.6-9.4-18.6c-0.2-1.1-1-2.1-2.3-2.5c-2,0.6-2.5,2.4-3.2,4.1   c-3,6.9-4.6,14.2-6.3,21.5c-3.3,14.4-8.4,28.3-13.9,42c-3.4,8.6-6.7,17.2-12,25c-2.2,3.2-5.1,5.7-7.6,8.6   c-9.7,11.5-21.3,19.9-36.8,21.9c-11.9,1.6-20.3-7.7-18.6-19.7c1.6-11,4.9-21.3,8.6-31.7c1.1-3,1.2-6.4,2.9-9   c2.9-4.5,4.1-9.4,5.3-14.4c0.4-1.6,0.8-3.3-2-4.5c-6.9,5.4-15.3,9-22.4,14.8c-7.7,6.3-15.2,12.9-24.6,16.8   c-5.4,2.2-11,4.4-15.6,7.8c-5.1,3.8-10.3,6.5-16.5,7.1c-5.6,0.5-9.4,3.1-12.1,8.2c-3.6,6.7-7.7,13.2-11.9,19.6   c-4.5,6.8-9.7,13.1-13.9,20c-6.5,10.6-13.5,20.9-21,30.8c-6.2,8.2-11.5,17.1-17.6,25.4c-7.2,9.7-12.8,20.3-17.5,31.2   c-6.1,14.3-10.7,29.3-14.3,44.6c-0.3,1.3-0.6,2.6-0.7,3.9c-0.1,1.8-0.5,3.9,1.5,4.9c2.4,1.2,3.1-1.2,4.2-2.5c0.8-1,1.7-2,2.5-3.1   c1.7-1.1,3.1-2.5,4-4.4c4.5-8.9,12.1-15.8,15.7-25.2c0.3-0.7,0.9-1.4,1.4-2c8-8.2,17.9-14.3,25.5-22.9c0.4-0.5,1.1-0.8,1.7-1.1   c7.1-3.2,12.3-8.9,18.4-13.4c9.9-7.3,18.7-15.8,27.7-24.1c1.7-1.6,3.8-2.7,5.1-4.7c5.9-8.7,13.6-15.8,19.7-24.3   c5.3-7.4,11.4-14.2,16.6-21.7c3.3-4.9,7.2-8.9,11.9-12.3c1.1,0.1,2.5-0.1,2.5,1.6c0,4.5,0.9,9.4-2,13.1c-6.4,8.2-8.3,18.5-14.6,27   c-7.9,10.7-16.5,20.7-24.5,31.3c-7.6,10-18.8,16.5-25.7,27.1c-1.2,1.9-3.3,3.3-5.3,4.4c-13,6.9-24.9,15.4-36.2,24.7   c-7.9,6.5-15.7,12.9-20.3,22.2c-0.4,0.9-1.2,1.6-1.8,2.3c-6.6,8.1-13.6,15.9-19.7,24.4c-3.4,4.8-6.3,10.5-6.4,16.6   c-0.1,14.1,4.4,27.3,11.3,39.3c3.1,5.5,6.6,11,10.4,16.3c9.6,13.2,20.5,24.9,33.7,34.4c9,6.4,18,12.9,28,18   c12.4,6.3,25.4,11.5,37.2,19.1c5.8,3.7,9,2.4,12.8-3.5c0.8-1.2,1.2-2.7,1.9-4.1c4-7.4,7.2-15.7,14.7-20.4   c7-4.4,12.5-10.2,18.6-15.5c16.6-14.5,27.5-32.7,35.2-53.1c1.5-4,1.1-7.7-1.7-10.7c-7.5-7.9-9.6-18-11.5-28.1   c-2.4-13-1.5-26.4-4.7-39.4c-0.4-1.5,0.6-3.6-1.8-4c-1.9-0.3-2.5,1.4-3.2,2.6c-0.9,1.4-1.6,2.9-2.5,4.3c-4.5,7-5.8,15.5-10.7,22.4   c-4.5,6.2-5.9,13.9-10,20.5c-3.9,6.4-9.2,11.6-12.9,18.2c-2.6,4.6-6.5,8.9-11.3,11.8c-6.6,4-16,0.9-17.4-5.9   c-3.4-17.6-3.8-35.5,0-53c4.2-19.4,11.4-37.8,22.2-54.7c1.1-1.7,1.5-3.3-1.6-4.9c-12.5,13-24.8,26.6-39.9,37.3   c1.4-5.3,2.3-11.1,5.3-15.3c7.3-10.2,13.2-21.6,23.4-29.5c5.2-4.1,10.9-7.7,15.9-11.9c4-3.3,8.3-5.5,13.5-5.8   c2.7-0.1,6-1.4,7.8,1.6c1.8,2.8-1.4,4.4-2.6,6.4c-0.3,0.6-0.6,1.2-1,1.7c-8.3,13.8-16.1,27.8-22.7,42.6   c-9.1,20.7-15.4,41.8-13.3,64.7c0.3,3,0.7,6,1.5,8.8c1.4,4.7,3,5,6.4,1.4c6.4-6.8,11.3-14.8,15.6-22.9c8.2-15.6,18.1-30.2,26-45.9   c2.5-5,5.7-9.8,10.7-12.8c2.9-1.8,5.2-1.6,6.6,2.1c1.5,3.9,2.6,7.8,3.8,11.8c3.7,11.7,7.6,23.3,9.2,35.5c0.3,1.9,0.1,4.1,2.3,5.5   c2.7-1.3,4.7-3.5,6.3-6c4.6-7.4,9.8-14.3,13.1-22.8c3.6-9.4,7-18.6,7.5-28.7c0.2-3.9,0.7-7.9,3.3-11.2c1.5,0.7,1.3,2,1.6,3.1   c3.6,16.6,1.4,33.2,0.4,49.8c-0.5,8.6-2.6,17.5-7,24.9c-5,8.5-9.2,16.7-10.9,26.7c-2.3,13.7-8.3,26.6-15,38.9   c-1.4,2.6-1.5,4.6-0.3,7.4c1.9,4.6,3.7,9.3,4.5,14.2c1.1,6.5,4.1,12.3,6.6,18.3c1.1,2.6,3.4,4.8,6.4,6.1c2.3-3.1,1.4-6.5,1.4-9.7   c0-9.8,0.4-19.5,5.5-28.5c2.2-3.9,3.8-8.1,4.2-12.7c0.9-10.4,3.7-20.5,4.4-31.4c0.7,0.8,1.2,1.1,1.3,1.5c0.4,1.4,0.8,2.9,1,4.4   c2.4,18.6,9.4,35.8,18,52.1c7.7,14.5,19.3,26.1,31.9,36.6c1.2,1,2.3,2.9,4.2,2.1c2.1-0.9,2.2-3.2,2.3-5.2   c0.5-10.1,0.9-20.3,3.1-30.3c1.5-6.9,3.2-14,10.3-18c1.3,18.9,15.5,43.8,26.9,46.5c3-12.9-0.1-27.2,8-40.1   c2.2,4.8,1.7,9.1,3.7,12.5c7.2,11.9,13.4,24.5,25.9,32.2c3.6,2.2,7.1,4.4,11.4,4.6c3.1,0.2,7.5,2.7,9.2-0.9c1.6-3.2-3-4.9-5-7.1   c-7.6-8.6-13-18-11.4-30.2c0.6-5,2.8-6.4,6.2-2.9c5.4,5.7,12.7,7.1,19.5,9.3c14.1,4.5,28.2,8.5,43.1,10.4   c13.8,1.7,26.8,1.6,39.3-4.9c12.4-6.5,23.6-14.2,30.6-26.9c3.4-6.2,3.1-12,0.1-18.1c-1.2-2.4-3.2-3.9-6-3.8c-3,0.1-6,0.3-9,0.6   c-2.8,0.2-4.1,1.7-4,4.6c0.2,4,0.4,8,0.4,12c-0.1,8.8-4.6,14.3-13,16.7c-5.5,1.6-11.2,2.3-16.8,2.1c-10-0.2-19.4-3.1-25.5-11.5   c-5.3-7.4-12.3-13.3-17-21.3c-3.2-5.3-7.6-10.2-10.4-15.8c-2.3-4.6-5.6-6.6-10.3-6.1c-4.3,0.4-8.6-0.4-12.9,0.5   c-3.1,0.7-5.6-0.7-7.7-3.1c1.7-1.3,3.5-1.3,5.1-1.2c11.7,0.2,20.9-6,30.4-11.5c4-2.4,7-6.1,9.8-9.9c0.8-1.1,1.8-2.1,1-3.6   c-2.5-4.5-4-9.6-8.4-12.7c-4.9-12.9-8.6-26-7.5-39.9c0.3-3.5-0.9-5.7-4.3-4.7c-7.3,2.1-14.6,1-21.8,0.1c-14.4-2-27.9-6.2-36.5-19.3   c-0.7-1.1-1.8-1.9-2.8-2.8c-0.4-0.5-0.8-1.1-1.2-1.6c-1.2-1.6-2.6-3.5-1-5.4c1.7-2.1,3.7-0.4,5.3,0.6c2.9,1.8,5.8,3.9,8.8,5.7   c6.5,4,13.5,8.3,21.1,8.1c9.8-0.3,19.6-0.5,29.3-1.6c2.4-0.3,4.7-0.3,6.9,0.5c3.9,1.5,7.3,0.3,11-1.2c8.1-3.4,13.7-10.5,21.7-14   c9.7-4.2,17.2-11.8,25.7-17.8c4.5-3.2,8.2-7.6,12.4-11.4c9-8.3,18.8-16.2,25.7-26.3c6.7-9.8,14.7-18.7,20.1-29.6   c5.5-11,10.5-22,14-33.7c3.5-12.9,7.3-25.8,9.9-39c1.3-6.7,0.9-13.5,1.5-20.2c1.1-12.9,1.1-25.5-1.8-38.1   c-1.1-4.9-1.8-9.8-2.8-14.7c-1.9-9.1-3.1-18.4-12.8-23.8c-3.2-1.7-6.7-2.9-9.6-4.9c-7.6-5.3-16.1-8.5-24.8-11.2   c-4.6-1.4-9.3-2.6-13.7-4.7C541.7,439,529.5,436.8,517,436.1z M481.8,769.1c-0.1,8.4,0.9,16.4,5.9,23.7c4,5.9,7.4,7,13.8,3.9   c0.9-0.4,1.9-0.9,2.8-0.9c11.1-0.8,20.2-6.7,29.8-11.5c5.8-2.9,11.3-6.5,17.2-8.9c9.6-3.8,18.6-8.7,27.3-14.2   c15.9-10.2,30.8-21.5,45-34.1c9.8-8.7,17.9-18.6,25.9-28.8c3.1-3.9,6.5-7.7,7.6-12.7c0.6-2.7,1.5-5.1,3.2-7.2   c8.7-10.7,13.5-23,16.7-36.2c0.9-3.5,0-6.9,0.4-10.4c1.1-10.2,2.8-20.3,3.1-30.6c0.5-19-0.8-37.8-2.6-56.6   c-1.7-17.6-7.4-34-15.7-49.5c-1.9-3.6-2.4-7.5-4.6-11c-5.3-8.4-10.8-16.7-16.4-24.8c-7.3-10.6-16.5-19.5-25.4-28.7   c-0.7-0.7-1.7-1-2.6-1.5c-3.1-4-7.8-6-11.6-9.2c-1.2-1-2.8-1.1-4.1,0.1c-1.5,1.3-0.6,2.7,0.1,4c2.8,5.2,5.7,10.4,8.4,15.7   c4.7,9.3,8.6,18.9,13.3,28.2c2.6,5.3,3.5,11.1,5.4,16.6c3.6,10.5,6.6,21.3,7.7,32.4c2.9,28.2-3.8,55.2-10.8,82.2   c-2.4,9-6.3,17.4-9.4,26.1c-2.7,7.4-6,14.9-10.4,21.5c-4.6,7-9.8,13.8-14.5,20.7c-9.1,13.4-21.3,23.5-32.7,34.4   c-4.7,4.5-9.5,9.1-14.8,13.1c-15.9,12.2-31.6,24.9-51.6,30.2c-5.5,1.4-10.4,7.3-9.6,11.2C479.5,760.4,479.9,764.9,481.8,769.1z    M242.6,437.2c9.6-0.7,19.2-1.3,28.8-2.1c7.5-0.6,14.9-1.5,22.2-3.1c2.4-0.5,4.3-1.2,3.5-4.2c-2.8-10.5-3-21.4-4.9-32.1   c-1.5-8.2-2.9-16.5-3.5-24.7c-1.2-16.4-4.8-32.4-5.5-48.9c-0.5-12-4.7-23.8-4.9-36c-0.2-10.7-4.7-20.7-5.9-31.3   c-0.6-5,1-10-0.4-14.9c-4.1-14.4-4-29.3-5.8-44c-1.7-13.4-4.4-26.6-6-40c-0.3-2.9-1.8-4-4.8-3.1c-6.7,2-13.5,3.8-19.9,6.7   c-14,6.3-28.1,12-42.6,17.1c-12.5,4.4-25,9.2-37.1,14.6c-6,2.7-7.9,4.9-7,10.5c1.9,12,2.2,24.2,4,36.2c2.6,17.4,6,34.8,7.4,52.3   c0.3,3.3,0.3,6.6,1.1,9.8c3,12,4.4,24.2,6.2,36.3c1.7,11.2,1.9,22.6,4,33.7c3.7,19.7,3.8,39.8,7.5,59.4c1.2,6.3,3.9,9.4,10.4,9.8   c6.8,0.5,13.6,0,20.5-0.1C220.8,439.3,231.6,436.8,242.6,437.2z M336.5,146.1c-16.4-1.1-34.5,1.3-52.6,2.1c-9,0.4-11.8,4-10.5,13   c1.4,9.4,2.4,18.8,3.3,28.3c1.3,13.4,2.2,26.9,4.7,40.1c2.6,13.4,4.7,26.9,5.4,40.6c0.5,10.3,1.5,20.5,3.9,30.6   c3.4,13.9,4.1,28.3,5.8,42.5c1.9,17,5.1,33.9,5.7,51.1c0.3,9.2,2.2,18.1,4.8,27c1.5,5.4,5.6,8.7,10.5,7.8c17.1-3,34.9-1.5,51.7-6.8   c14-4.4,28.9-3.6,43.3-6.1c21.8-3.8,43.7-7.3,65.8-8.4c2-0.1,3.9-0.7,5.9-1c17.2-2.8,34.1-7.1,51.6-8.8c10.3-1,20.5-1.9,30.5-4.6   c5.3-1.4,10.7-3.3,16.1-3.2c8.3,0.2,16.2-1.7,24.2-2.6c7.8-0.9,11.2-5.9,10.1-13.7c-1.8-12-2.2-24.1-5.1-36   c-2.9-12-2.7-24.5-4.2-36.7c-3.2-27.3-8.4-54.3-10.1-81.7c-0.1-1.5-0.3-3-0.7-4.4c-3.5-15-4.8-30.3-6.8-45.4   c-1.1-8.1-2.1-16.2-3.3-24.3c-0.9-5.8-3.1-8.8-7.3-8.8c-11.6,0.1-23-2.7-34.7,0c-8.2,1.9-16.8,2.4-25.3,1.5c-6-0.6-12.2-1-17.9,0.4   c-12,2.9-24.2,0.8-36.2,1.4c-3.4,0.2-6.7,1.5-10.3,0.6c-7.6-1.8-15.3-1.3-22.7,0.6c-9.2,2.2-18.5,1.9-27.6,1.2   c-11.6-0.9-23.4-1.3-34.6,0.5C359.4,144.5,348.8,145,336.5,146.1z M1039.2,268.6c-1.6-2.3-4.2-2.7-6.9-2.5   c-28,2.3-56.1,4.6-84.1,7.1c-9.2,0.8-18.4,1.6-27.5,2.7c-10.9,1.3-21.9,2.4-32.7,4.1c-5.7,0.9-12.2,1.9-13.3,9.7   c-0.1,0.5-0.4,0.9-0.7,1.3c-7.1,9-11.3,19.9-18.6,28.9c-2.2,2.8-3.2,6.5-4.7,9.8c-0.7,1.4-0.2,2.6,0.8,3.6c1,1,1.9,0.8,3.1,0.4   c10.9-3.6,21.3-8.2,31.7-12.8c7.7-3.3,15.7-6,23.3-9.7c7.6-3.7,16.4-5.3,24.6-7.7c12.2-3.6,24.5-7,37-9.6   c14.1-2.8,27.7-7.8,41.3-12.4c8-2.7,15.1-7.5,23.3-9.8C1037.2,271.3,1038.7,270.7,1039.2,268.6z M921.2,327c1.9,2.7,3.7,2.2,5.5,2   c2.6-0.3,5.4-1.2,7.9-0.8c12.5,1.9,24.7,5.2,36.4,9.8c4.4,1.7,8.6,2.5,12.9-0.1c14.1-8.7,28.3-17.1,42.3-26.1   c10-6.5,19.8-13.3,29.4-20.5c5.1-3.8,11.1-6.3,15.1-11.5c-1.1-2.1-2.4-1.4-3.9-1.2c-5.7,0.9-11.3,2.2-16.9,3.8   c-9.4,2.8-19.1,4.3-28.5,7.2c-8,2.5-16.4,3.6-24.3,6.9c-9.9,4.1-20.8,5.4-30.6,9.9c-8.2,3.7-16.8,6.3-25.3,9.1   C933.8,318.2,927.7,322.7,921.2,327z M1018,258.7c-0.9-2.5-3.1-2.1-5-2.2c-19.3-1-38.7-0.1-58-1.3c-18.1-1.1-36.2,1.4-54.3,0.7   c-2.8-0.1-5.3,0.7-7,3.1c-3,4.2-6.1,8.3-8.8,12.7c-1,1.5-2.5,3.5-1.2,5.5c1.5,2.2,3.7,0.8,5.5,0.5c5.8-1.2,11.5-3.3,17.4-3.8   c12.3-1,24.2-3.9,36.5-5.4c13.5-1.6,27.1-3,40.7-4.4c10.2-1,20.4-2.2,30.7-3.2C1015.9,260.6,1017.4,260.5,1018,258.7z M298.3,445.9   c2,4.1,15.6,18.7,19.2,20.8c3.8,2.2,10,1.3,13.3-1.8c5.3-5,9.2-10.9,11.5-17.8c0.7-2.2,3.7-4.2,1.7-6.7c-1.9-2.2-4.9-1.3-7.6-1.1   c-1.5,0.1-3,0.2-4.4,0.7c-8.9,3.2-18.2,3.2-27.5,3.9C302.5,444,300.2,443.8,298.3,445.9z M480.3,444.9c2.5-0.2,4.7-1.2,6.7-2.9   c6.6-5.7,10.4-13.3,14.2-20.9c0.7-1.4,2.1-2.9,0.7-4.5c-1.3-1.5-3-1.2-4.6-0.8c-8.5,2.5-17.3,3-26.1,3.5c-3.6,0.2-7.2,1.2-10.8,2   c-3.1,0.7-3.6,2.8-1.7,5.2c4.8,6,10,11.6,16.1,16.3C476.4,444.1,478.3,444.6,480.3,444.9z M915.5,330.3c-2.4-2.5-5-1.5-7.2,0   c-2,1.3-4,2.1-6.2,2.9c-7.5,2.8-14.8,5.9-22.1,8.9c-2.8,1.2-3.3,2.8-1,5.3c8.1,8.2,16,16.7,24.2,24.8c3,3,4.8,2.4,8-1.7   c-0.7-1.3-1.3-2.6-2.2-3.9c-0.7-1.1-1.7-2-2.6-3c-8.9-10.3-6.9-22.2,4.8-28.8C913,333.9,914.8,332.7,915.5,330.3z M272.1,449.1   c2.5,1.9,7.1,3.8,8.7,3.8c1,0,2-0.2,2.5-1.2c0.6-1.1-0.1-1.8-0.7-2.6C279.8,445.3,276.6,445.2,272.1,449.1z"
       id="path49" /><path
       class="st9"
       d="M576.3,416.4c0.9,4,1.7,7.6,2.7,11.7c-8.2-1.8-15-5.8-23.3-9C563.1,417.3,569.6,417.4,576.3,416.4z"
       id="path51" /><path
       class="st9"
       d="M191,474.6c0.5-3.9-2.6-6.8-2.9-10.5c6.6,0,13.2,0,19.8,0C201.8,467,197.5,472.6,191,474.6z"
       id="path53" /><path
       class="st10"
       d="M631,416.3c-4-3-7.1-5.3-10.3-7.7c1.7-1.1,3.4-1.6,5.4-2C628.5,408.9,630.4,411.6,631,416.3z"
       id="path55" /><path
       class="st11"
       d="M607.3,601.1c-3.5,11.7-8.5,22.7-14,33.7c-5.4,10.9-13.4,19.7-20.1,29.6c-6.9,10.1-16.7,17.9-25.7,26.3   c-4.1,3.8-7.9,8.3-12.4,11.4c-8.5,6-16,13.6-25.7,17.8c-8,3.5-13.6,10.6-21.7,14c-3.7,1.5-7.1,2.7-11,1.2c-2.2-0.8-4.6-0.7-6.9-0.5   c-9.7,1.1-19.6,1.3-29.3,1.6c-7.6,0.2-14.6-4.1-21.1-8.1c-2.9-1.8-5.8-3.8-8.8-5.7c-1.6-1-3.6-2.7-5.3-0.6c-1.6,1.9-0.2,3.7,1,5.4   c0.4,0.5,0.8,1.1,1.2,1.6c-2.5,0.8-5.1,1.5-3.5,5c2.6,5.7,6,10.9,11.3,14.2c11.5,7,23.3,13.5,36.8,15.8c2.4,0.4,3.7,1.7,4.8,3.8   c4.8,8.7,12.4,15.4,16.8,24.5c0.7,1.5,2.5,2.6,3.8,3.9c1.1,1,2.1,0.9,2.9-0.3c4.5,3.2,5.9,8.3,8.4,12.7c0.8,1.4-0.1,2.5-1,3.6   c-2.8,3.8-5.8,7.5-9.8,9.9c-9.4,5.5-18.7,11.7-30.4,11.5c-1.6,0-3.4,0-5.1,1.2c2.1,2.4,4.6,3.8,7.7,3.1c4.3-0.9,8.6-0.2,12.9-0.5   c4.7-0.4,8,1.6,10.3,6.1c2.8,5.6,7.2,10.4,10.4,15.8c4.7,8,11.7,13.9,17,21.3c6.1,8.4,15.5,11.4,25.5,11.5   c5.6,0.1,11.3-0.6,16.8-2.1c8.4-2.4,12.9-7.9,13-16.7c0-4-0.1-8-0.4-12c-0.1-2.9,1.2-4.4,4-4.6c3-0.2,6-0.5,9-0.6   c2.8-0.1,4.7,1.4,6,3.8c3.1,6,3.3,11.9-0.1,18.1c-7,12.7-18.2,20.4-30.6,26.9c-12.5,6.6-25.5,6.7-39.3,4.9   c-14.8-1.9-29-5.9-43.1-10.4c-6.7-2.1-14-3.6-19.5-9.3c-3.4-3.5-5.6-2.2-6.2,2.9c-1.6,12.1,3.8,21.5,11.4,30.2c2,2.2,6.5,3.9,5,7.1   c-1.7,3.5-6,1-9.2,0.9c-4.3-0.2-7.7-2.4-11.4-4.6c-12.6-7.7-18.8-20.3-25.9-32.2c-2.1-3.4-1.6-7.7-3.7-12.5   c-8.1,12.9-5,27.2-8,40.1c-11.3-2.7-25.6-27.6-26.9-46.5c-7.1,4-8.8,11.1-10.3,18c-2.2,10-2.6,20.1-3.1,30.3   c-0.1,2-0.2,4.2-2.3,5.2c-1.9,0.8-3.1-1.1-4.2-2.1c-12.6-10.5-24.2-22.1-31.9-36.6c-8.6-16.3-15.6-33.5-18-52.1   c-0.2-1.5-0.6-2.9-1-4.4c-0.1-0.4-0.6-0.7-1.3-1.5c-0.7,10.9-3.5,21-4.4,31.4c-0.4,4.6-1.9,8.9-4.2,12.7   c-5.1,8.9-5.5,18.6-5.5,28.5c0,3.3,0.9,6.6-1.4,9.7c-3-1.3-5.3-3.4-6.4-6.1c-2.5-5.9-5.5-11.7-6.6-18.3c-0.8-4.9-2.6-9.6-4.5-14.2   c-1.2-2.8-1.1-4.8,0.3-7.4c6.7-12.3,12.7-25.1,15-38.9c1.7-10,5.9-18.2,10.9-26.7c4.3-7.4,6.5-16.3,7-24.9   c1-16.6,3.1-33.2-0.4-49.8c-0.2-1.1,0-2.4-1.6-3.1c-2.6,3.3-3.1,7.2-3.3,11.2c-0.6,10.1-3.9,19.3-7.5,28.7   c-3.2,8.4-8.5,15.3-13.1,22.8c-1.6,2.5-3.6,4.7-6.3,6c-2.2-1.4-2-3.6-2.3-5.5c-1.6-12.2-5.5-23.8-9.2-35.5   c-1.2-3.9-2.4-7.9-3.8-11.8c-1.4-3.7-3.7-3.9-6.6-2.1c-5,3-8.3,7.9-10.7,12.8c-7.8,15.8-17.8,30.3-26,45.9   c-4.2,8.1-9.1,16.1-15.6,22.9c-3.4,3.6-5.1,3.3-6.4-1.4c-0.8-2.9-1.2-5.9-1.5-8.8c-2.1-22.9,4.2-44,13.3-64.7   c6.5-14.8,14.3-28.8,22.7-42.6c0.3-0.6,0.7-1.2,1-1.7c1.1-2.1,4.3-3.6,2.6-6.4c-1.8-2.9-5.1-1.7-7.8-1.6c-5.2,0.3-9.5,2.4-13.5,5.8   c-5.1,4.2-10.7,7.8-15.9,11.9c-10.2,7.9-16.2,19.3-23.4,29.5c-3,4.2-3.9,10-5.3,15.3c15.1-10.7,27.4-24.3,39.9-37.3   c3.1,1.6,2.7,3.2,1.6,4.9c-10.8,16.8-18,35.3-22.2,54.7c-3.8,17.5-3.4,35.4,0,53c1.3,6.9,10.7,9.9,17.4,5.9   c4.8-2.9,8.8-7.1,11.3-11.8c3.7-6.6,9-11.8,12.9-18.2c4-6.6,5.5-14.3,10-20.5c4.9-6.8,6.2-15.4,10.7-22.4c0.9-1.4,1.6-2.9,2.5-4.3   c0.8-1.2,1.4-3,3.2-2.6c2.4,0.4,1.4,2.5,1.8,4c3.2,12.9,2.3,26.4,4.7,39.4c1.9,10.1,3.9,20.2,11.5,28.1c2.9,3,3.2,6.8,1.7,10.7   c-7.6,20.4-18.6,38.6-35.2,53.1c-6.1,5.3-11.6,11.1-18.6,15.5c-7.5,4.7-10.6,13-14.7,20.4c-0.7,1.3-1.1,2.8-1.9,4.1   c-3.8,5.9-7,7.2-12.8,3.5c-11.8-7.6-24.8-12.8-37.2-19.1c-10-5.1-19-11.5-28-18c-13.2-9.4-24.1-21.2-33.7-34.4   c-3.8-5.3-7.3-10.8-10.4-16.3c-6.9-12-11.4-25.2-11.3-39.3c0.1-6.1,3-11.8,6.4-16.6c6-8.5,13.1-16.3,19.7-24.4   c0.6-0.8,1.4-1.5,1.8-2.3c4.7-9.3,12.5-15.8,20.3-22.2c11.3-9.3,23.2-17.8,36.2-24.7c2-1.1,4.1-2.5,5.3-4.4   c6.9-10.6,18.1-17.1,25.7-27.1c8-10.5,16.6-20.6,24.5-31.3c6.3-8.5,8.2-18.8,14.6-27c2.9-3.7,2-8.6,2-13.1c0-1.8-1.4-1.5-2.5-1.6   c2.3-7.5,3.8-15.1,6.9-22.4c1.4-3.3,2.3-6.9-0.6-10.4c-3.7,2-6.2,4.9-8.4,7.9c-13.3,18.7-28.7,35.8-44.8,52.1   c-12.3,12.4-27,22.1-40,33.6c-11.7,10.3-24.8,18.9-34.8,31.2c-13.8,17.1-21.7,36.8-27.9,57.5c-0.7,2.4-1,5,1.8,6.6   c-0.8,1-1.7,2-2.5,3.1c-1.1,1.3-1.8,3.7-4.2,2.5c-2-1-1.6-3.1-1.5-4.9c0-1.3,0.4-2.6,0.7-3.9c3.5-15.3,8.2-30.3,14.3-44.6   c4.7-10.9,10.3-21.5,17.5-31.2c6.1-8.3,11.4-17.2,17.6-25.4c7.5-9.9,14.5-20.2,21-30.8c4.2-6.9,9.4-13.2,13.9-20   c4.2-6.4,8.3-12.8,11.9-19.6c2.7-5.1,6.5-7.7,12.1-8.2c6.3-0.5,11.4-3.2,16.5-7.1c4.6-3.4,10.2-5.5,15.6-7.8   c9.4-3.9,16.9-10.5,24.6-16.8c7.1-5.8,15.6-9.4,22.4-14.8c2.8,1.2,2.3,2.9,2,4.5c-1.1,5-2.3,9.9-5.3,14.4c-1.7,2.5-1.8,6-2.9,9   c-3.7,10.3-7,20.7-8.6,31.7c-1.7,12,6.7,21.3,18.6,19.7c15.4-2.1,27.1-10.4,36.8-21.9c2.5-2.9,5.4-5.4,7.6-8.6   c5.3-7.7,8.6-16.4,12-25c5.4-13.7,10.5-27.6,13.9-42c1.7-7.3,3.3-14.6,6.3-21.5c0.7-1.7,1.2-3.5,3.2-4.1c1.3,0.4,2.1,1.4,2.3,2.5   c1.5,7.1,6.1,12.5,9.4,18.6c5,9.4,13.6,15.3,22,21.2c0.8,0.6,1.8,0.9,2.6,1.5c7.4,5.5,15.2,5.8,23.1,0.9c2.7-1.6,3.2-4.3,3.5-6.8   c0.8-7.3,0.6-14.6-1.6-21.8c-2.3-7.6-4-15.3-8.1-22.2c-1.3-2.2,0.3-3.5,2.3-4c3.7-1,7.5-0.5,10.5,1.6   c16.7,11.5,35.3,14.9,55.1,13.3c7.2-0.5,13.7-2.5,16.4-10.5c0.9-2.5,1.4-4.7,0.8-7.3c-2.6-10.9-6.6-20.9-15.9-28   c-2.1-1.6-3.8-3.7-5.7-5.6c-4-4-4.2-6.6-0.9-11.2c2.2-3,6.7-2.8,9.3,0.6c3.4,4.6,7.7,8.2,12.2,11.7c11.4,8.8,22.4,7.6,34-0.5   c0.7,0.6,1,1.3,0.9,2.2c-2.1,13.7-1.7,27.5-1.7,41.2c0,4.2,0.8,8.2,2.6,12.1c7.3,16,14.9,31.9,24.9,46.5c1.3,1.9,2.8,3.6,4.7,5   c9.1,6.5,19,11.5,28.7,17c12.3,6.9,25,13.2,36.5,21.4C599.1,599,603.1,600.2,607.3,601.1z M446.1,584.1c-4.1,0.9-9.3-0.1-13.6,3.4   c-7.7,6.3-12.2,14.1-15,23.9c-3.6,12.6,3.5,24.3,12.7,31.7c6.6,5.3,14.6,4.6,22.9,3.2c14.7-2.4,23.6-9.9,25.3-25   C480.9,599.5,466.1,585.3,446.1,584.1z"
       id="path57" /><path
       class="st12"
       d="M915.9,729c-0.1-2.8,0.3-5.8-1.8-8.1c-1.1-4.7-2.3-9.4-5.4-13.4c-0.1,4.8,1.8,9.1,3.6,13.4   c0.1,11.2-1.2,22.2-2.9,33.3c-1.4,8.8-4.3,16.6-10,23.4c-2.3,2.8-3.4,6.4-6.3,8.9c-4.8,4.2-10.7,5.4-16.7,5.8   c-18.4,1.2-36.7,2.7-55.1,2.9c-8.5,0.1-17.2,0.9-25.8,1.1c-10.9,0.3-21.9,1.2-32.7-0.7c-5.6-1-6.1-2.6-2.3-7.1   c6-7,8.2-15.8,11.9-24.6c-4.4,3.1-6.2,4.7-7.5,8.1c-3,7.8-9.6,13-14,19.9c-3.2,5.1-8.8,5-13.9,4.8c-10.2-0.4-19.6,2.6-28.8,6.5   c-9.3,3.9-18.3,8.5-28,11.9c-15.3,5.3-31.3,7.9-46.4,13.5c-9.1,3.3-18.2,6.5-27.7,8c-11.8,1.8-23.7,3.1-35.6,4.3   c-7.4,0.8-14.9,1.1-22.4,1.8c-6.3,0.5-12.6,1-18.7-1.3c-3.5-1.3-7.3-0.1-10.9-0.4c-12.2-1.2-24.4-2.6-36.6-4   c-1.3-0.1-2.7-0.4-3.4-1.8c0-1.9,1.5-2.4,2.9-2.9c8.6-3.2,16-8.1,21.5-15.6c0.8-1.1,2-1.9,3.3-2.2c7.2-1.7,12.2-6.4,16.7-11.9   c0.8-1,2-1.9,3.1-2.4c13.6-5.4,25.7-13.6,38.5-20.5c12.8-6.9,25.9-13.5,37.7-22.2c7.9-5.8,15.2-12.3,23.5-17.5   c5.2-3.3,8.5-8.8,13.2-12.8c18.3-15.5,30.2-35.8,40-57c4.6-9.9,8.9-20.4,10.7-31.4c0.2-0.9,0.8-1.8,1.2-2.7c2.2,0,4.3,0.4,6.4,0.8   c12.3,2.4,24.5,4.7,37.3,4.6c12.1-0.1,21.4-5.6,28.8-13.4c6.7-7.1,11.9-16.1,10.9-26.9c6.8,5.4,14.7,9.5,20.6,16.2   c2,2.3,5.7,3.5,8.8,4.4c10.6,3,21.3,4.8,32.4,3.7c5.9-0.6,7.3,0.1,8,6c1.3,10.4-1,20.5-5,30.1c-1.9,4.7-2.8,9.4-4.2,14.6   c2.7-0.3,4.5-1,5.5-2.9c3.5-6.4,5.8-13.3,7.9-20.3c2.2-7.4,0.6-14.8,1.1-22.2c0.2-2.2-0.3-4.9,2.8-5.7c0.7,0.9,1.4,0.9,2.1,0   c2,0,3.9,0,5.9,0c0.9,1.2,1.6,1,2.1-0.3c11.2-2.3,22.7-3.7,33.5-7.1c13-4.2,26.3-7.7,38-15.8c5.6-3.9,10.2-8.9,15.9-12.4   c0.8-0.5,1.5-1.3,2.6-1.2c0.7,0.9,1.4,0.8,2.1-0.1c12,3.6,23.3,8.8,32.2,17.9c11.5,11.7,20.9,24.8,25.5,40.9c1,3.4,2.5,6.5,6.9,7   c1.1-1.9,2.1-3.8,3.1-5.6c1.3,0.9,1.1,2.3,1.4,3.6c3.1,14.2,11,20.5,25.5,20.5c6.1,0,12.2-0.5,18.3,1c-5.3,7.7-10.5,15.5-15.9,23.1   c-4.9,7.1-10.6,13.5-16.2,20c-2.9,3.4-6,6.6-9.8,8.9c0-3.7-0.1-7.3,0-11c0.1-3.7-1.3-6.9-3.3-9.7c-6-8.2-14.5-10.9-24.2-9.2   c-9.7,1.7-17.1,6.8-20.4,16.8c-2.2,6.6-0.4,12.9,1.1,19.1c1.8,7.6,7,12.6,15.1,14.1c-4.6,6-10.7,9.8-17.5,12.6   c-7.2,3-13.9,6.9-20.8,10.5c-8.8,4.5-17,10.3-27,12.2c-3.7,0.7-7.2,2.6-10.8,3.8c-4.7,1.5-6.3,0.1-5.3-4.6   c0.9-4.1,1.9-8.1,2.8-12.1c0.8-0.7,1.2-1.5,0.8-2.6c0.2-1.6,0.4-3.3,0.6-4.9c0.8-0.9,1-1.9,0.3-2.9c0.2-3,0.5-6,0.7-9.1   c0.9-1.2,1-2.6,0.3-3.9c0-0.7,0-1.4,0-2c0.6-1.1,0.5-2-0.3-2.9c-0.2-2-0.4-4-0.6-6.1C916.9,731.6,916.8,730.3,915.9,729z"
       id="path59" /><path
       class="st13"
       d="M242.6,437.2c-11-0.5-21.8,2.1-32.8,2.2c-6.8,0.1-13.6,0.6-20.5,0.1c-6.5-0.5-9.2-3.6-10.4-9.8   c-3.7-19.7-3.8-39.7-7.5-59.4c-2.1-11.1-2.3-22.5-4-33.7c-1.8-12.1-3.2-24.4-6.2-36.3c-0.8-3.2-0.8-6.5-1.1-9.8   c-1.4-17.6-4.8-34.9-7.4-52.3c-1.8-12-2.1-24.2-4-36.2c-0.9-5.7,1-7.9,7-10.5c12.2-5.4,24.6-10.2,37.1-14.6   c14.5-5.1,28.6-10.8,42.6-17.1c6.4-2.9,13.2-4.7,19.9-6.7c3-0.9,4.5,0.2,4.8,3.1c1.6,13.4,4.3,26.6,6,40c1.9,14.7,1.8,29.6,5.8,44   c1.4,4.9-0.2,9.9,0.4,14.9c1.3,10.6,5.7,20.6,5.9,31.3c0.3,12.2,4.4,24,4.9,36c0.7,16.5,4.2,32.5,5.5,48.9c0.6,8.2,2,16.5,3.5,24.7   c1.9,10.6,2.1,21.6,4.9,32.1c0.8,3-1.1,3.7-3.5,4.2c-7.3,1.5-14.8,2.5-22.2,3.1C261.9,435.9,252.2,436.5,242.6,437.2z"
       id="path61" /><path
       class="st14"
       d="M336.5,146.1c12.3-1.1,22.8-1.6,33.4-3.3c11.3-1.8,23-1.3,34.6-0.5c9.1,0.7,18.4,1,27.6-1.2   c7.4-1.8,15.2-2.4,22.7-0.6c3.6,0.9,6.9-0.5,10.3-0.6c12.1-0.6,24.2,1.4,36.2-1.4c5.8-1.4,12-1,17.9-0.4c8.6,0.9,17.1,0.4,25.3-1.5   c11.7-2.7,23.2,0.1,34.7,0c4.2,0,6.4,3,7.3,8.8c1.2,8.1,2.2,16.2,3.3,24.3c2.1,15.2,3.3,30.5,6.8,45.4c0.3,1.5,0.6,3,0.7,4.4   c1.7,27.4,6.9,54.5,10.1,81.7c1.4,12.2,1.3,24.7,4.2,36.7c2.9,11.9,3.3,24,5.1,36c1.2,7.8-2.2,12.9-10.1,13.7   c-8.1,0.9-16,2.8-24.2,2.6c-5.3-0.1-10.8,1.8-16.1,3.2c-10,2.7-20.3,3.6-30.5,4.6c-17.4,1.7-34.4,5.9-51.6,8.8   c-2,0.3-3.9,0.9-5.9,1c-22.1,1.2-44,4.7-65.8,8.4c-14.4,2.5-29.3,1.6-43.3,6.1c-16.9,5.3-34.6,3.7-51.7,6.8c-5,0.9-9-2.4-10.5-7.8   c-2.5-8.8-4.4-17.8-4.8-27c-0.6-17.2-3.8-34.1-5.7-51.1c-1.6-14.2-2.3-28.6-5.8-42.5c-2.5-10.1-3.5-20.3-3.9-30.6   c-0.7-13.7-2.8-27.2-5.4-40.6c-2.6-13.3-3.4-26.7-4.7-40.1c-0.9-9.5-1.9-18.9-3.3-28.3c-1.4-8.9,1.5-12.6,10.5-13   C302,147.4,320.1,145,336.5,146.1z M368.9,167.5c-24.7-0.7-45.7,2.1-66.8,2.6c-7.6,0.2-8.1,0.8-7,8.2c3.4,23.1,5,46.3,7.7,69.4   c2.9,24.5,8.4,48.5,10.1,73.2c0.7,11.1,4.6,21.9,4.8,33.1c0.2,14.9,4,29.3,5.4,44.1c0.7,7.4,2,8.3,9.3,7.8   c11.1-0.8,22.2-1.6,33.1-4.4c7.7-2,15.5-3.5,23.5-4.5c5.6-0.7,11.2,0,16.8-1.5c5.6-1.5,11.4-2.6,17.1-3.3   c17.7-2.1,35.3-4.8,53.1-5.4c8.8-0.3,16.6-4.6,25.3-5.4c5.3-0.4,10.6-0.6,15.9-1.4c12.5-2,25-3.7,37.4-6.1   c13.7-2.6,27.8-1.4,41.4-5.2c3.2-0.9,4.3-1.8,4.1-5.2c-2.1-25.6-6.2-50.9-9.6-76.3c-3.8-28.4-7.5-56.9-11.2-85.3   c-1.7-12.9-3.4-25.7-5.3-38.6c-1.1-7.4-2.1-8.1-9.5-7.1c-18,2.2-36,4-54.2,4c-4,0-8.1-0.6-12,0c-16.4,2.2-32.9,0.2-49.3,2.4   c-11.2,1.5-22.6,0.3-33.9,1.6C398.6,166,381.9,166.6,368.9,167.5z"
       id="path63" /><path
       class="st15"
       d="M613.2,428.9c0.9,0.5,1.9,0.8,2.6,1.5c8.8,9.2,18,18.1,25.4,28.7c5.6,8.2,11.1,16.4,16.4,24.8   c2.2,3.5,2.7,7.4,4.6,11c8.2,15.5,14,31.8,15.7,49.5c1.8,18.8,3.1,37.7,2.6,56.6c-0.3,10.3-2,20.4-3.1,30.6   c-0.4,3.5,0.5,6.9-0.4,10.4c-3.2,13.2-8,25.6-16.7,36.2c-1.7,2.1-2.6,4.6-3.2,7.2c-1.1,5-4.5,8.8-7.6,12.7   c-8,10.2-16.1,20.1-25.9,28.8c-14.2,12.6-29.1,23.9-45,34.1c-8.7,5.6-17.7,10.4-27.3,14.2c-6,2.4-11.5,6-17.2,8.9   c-9.5,4.8-18.7,10.7-29.8,11.5c-1,0.1-1.9,0.5-2.8,0.9c-6.4,3.1-9.8,2-13.8-3.9c-5-7.2-6-15.3-5.9-23.7c4.6-1.5,8.8-3.7,12.9-6.4   c14-9.3,28-18.5,42.1-27.5c16.9-10.8,33-22.4,47.2-36.6c11.2-11.2,20.9-23.7,30.5-36.2c6.9-8.9,13.1-18.2,16.1-29.1   c4.5-16.6,10.1-33,12.1-50.4c1.5-13.1,1.5-26.2,1.8-39.3c0.4-15.4-2.6-30.7-4.1-46c-2.1-22.7-10-42.4-24.1-60.1   C614.4,435.3,611.5,432.7,613.2,428.9z"
       id="path65" /><path
       class="st16"
       d="M607.3,601.1c-4.2-0.8-8.2-2.1-11.8-4.7c-11.5-8.2-24.2-14.5-36.5-21.4c-9.7-5.5-19.6-10.5-28.7-17   c-2-1.4-3.4-3.1-4.7-5c-10.1-14.6-17.6-30.5-24.9-46.5c-1.8-3.8-2.6-7.9-2.6-12.1c-0.1-13.8-0.4-27.6,1.7-41.2   c0.1-0.9-0.2-1.6-0.9-2.2c0.7-1.9,1.8-3.5,3.1-5c5.4-2.7,10.5-5.9,15.1-9.9c12.5,0.8,24.7,3,36.2,8.4c4.3,2,9.1,3.3,13.7,4.7   c8.7,2.7,17.2,5.9,24.8,11.2c3,2.1,6.4,3.2,9.6,4.9c9.7,5.3,10.9,14.6,12.8,23.8c1,4.9,1.7,9.8,2.8,14.7   c2.9,12.6,2.9,25.2,1.8,38.1c-0.6,6.7-0.2,13.6-1.5,20.2C614.6,575.2,610.8,588.1,607.3,601.1z"
       id="path67" /><path
       class="st17"
       d="M1066.9,673c-6-1.5-12.2-0.9-18.3-1c-14.5,0-22.4-6.3-25.5-20.5c-0.3-1.3-0.1-2.7-1.4-3.6c0-1,0.1-2,0.1-2.9   c1.1-4.9,2.5-9.8,3.1-14.8c1-8.8,2.1-17.4,9.5-23.6c0.2-0.1,0-0.6,0-1.3c-5.7-2.4-10.8-6-15.4-10.2c-0.5,0-1-0.1-1.5-0.1   c-1-1.7-1.9-3.5-3.6-4.7c0.4-2.1-0.8-3.8-1.6-5.6c-7.7-16.4-10.4-33.4-6.2-51.2c8.5,1.8,16.3,5.3,23.8,9.8   c3.2,1.9,6.8,3.3,10.5,5.1c-2.3-6.8-18.5-16.9-32.6-20.8c0-5.6,2.1-10.8,4.3-15.7c7.6-17.9,18.5-32.9,38-39.5   c2.1-0.7,3.1-1.6,3.1-3.8c6.7,0.9,12.6,3.7,17.8,8.1c3.7,3.2,8.5,5.1,11.6,9.1c2.6,3.3,4.2,6.8,2.7,11.6c-3.6-1.5-6.7-2.9-10.1-3.5   c-4.7-4.4-10.8-4.8-17.4-6.5c5,4.6,10.7,5.8,15.9,8.1c1.9,2.2,4.4,3.7,7.1,4.4c6.8,1.8,9.8,6.4,9.3,12.9   c-0.4,5.7,1.5,10.8,3.1,15.9c2.1,6.8,3.3,13.7,2.1,20.7c-1.1,6.4,0.9,12.5,1.1,18.7c0.5,17.1-3.3,33.3-6.8,49.7   c-2.7,13-7,25.6-13,37.5C1073.6,661.2,1070.2,667,1066.9,673z"
       id="path69" /><path
       class="st18"
       d="M266.1,597.2c-0.3,1.6-1.4,2.6-2.6,3.5c-5,4-10.7,6.7-16.8,8.4c-6.5,1.8-9.6-1.5-8.6-8.2   c1-7.1,3.1-14,5.3-20.7c5.9-18,11.6-36.1,20.5-52.9c3.8-7.1,6.8-14.4,10.1-21.6c2.5-5.3,2.4-9.2-0.2-13.2c-6,3.3-9.6,9-14.3,13.5   c-11.4,11.1-22.2,23-35.6,31.8c-1.9,1.3-3.3,3.2-5.1,4.8c-2.1,1.9-4,4-7.1,4.2c0.5-1.1,0.8-2.2,1.5-3.1c3.5-4.9,2.7-9.7-0.3-14.4   c-3-4.7-7.7-6.2-12.6-5c-12.3,3.1-22.3,9.8-27.7,21.7c-2.9,6.3,1.3,15.4,9.1,15.5c2.5,0,4.9-0.9,7.4,0c-6.8,7.1-15.9,8.6-24.9,9.5   c-6.5,0.7-14.3-9.9-13-17.1c1.1-6.5,3.7-12.4,8.6-17.1c1.1-1,2.2-2.1,3-3.4c7.5-12.6,18.2-21.9,30.1-30.3c5.9-4.2,12.2-8,17.8-12.7   c6.2-5.2,14.3-6.8,21.5-10.4c2.4-1.2,4.8-2.2,7.1-3.6c9.3-5.6,19.9-8.3,29.6-12.7c5.1-2.3,10.5-3.1,15.6-4.7c2-0.6,3.4-0.5,5,0.7   c3,2.2,5.8,4.5,7.7,7.7c2.9,5.1,7.4,8.4,12.5,11c6.8,3.5,7.1,3.9,4.5,11.1c-4,11.1-7.9,22.1-11,33.5c-1.8,6.6-2.8,13.4-5.9,19.5   c-2.9,5.9-5.9,11.7-8.9,17.6c-7.8-12-17.9-13.4-27.3-3.7c-4.9,5.1-8.1,11.3-10.2,18C247.3,586.7,253.5,596,266.1,597.2z    M284.2,537.1c-3.5,0.1-7,3.5-6.9,6.6c0.1,3,3.7,6.3,6.6,6.2c3.5-0.2,6.1-3.1,6-6.6C289.8,539.8,287.2,537,284.2,537.1z"
       id="path71" /><path
       class="st17"
       d="M774,601c1,10.8-4.2,19.8-10.9,26.9c-7.5,7.8-16.7,13.3-28.8,13.4c-12.8,0.2-25-2.2-37.3-4.6   c-2.1-0.4-4.2-0.8-6.4-0.8c2.4-8.5,3-17.3,3.9-26.1c0.7-6.4,1.5-12.8,1.4-19.3c0-0.7,0.2-1.4,0-2c-2.2-6.4-1.7-13-2-19.7   c-0.6-14.2-4.3-27.9-7.8-41.6c-0.7-2.9-2.9-6.6-0.3-8.9c2.8-2.6,6.1,0.4,8.7,1.6c4.2,2.1,8.4,4.7,11.8,7.9c8,7.4,16,14.9,23.2,23.1   c8.8,10.1,18.9,19.1,27.2,29.6c1.2,1.6,2.4,3.2,3.2,5C763.2,592.2,769.6,595.7,774,601z"
       id="path73" /><path
       class="st19"
       d="M613.2,428.9c-1.7,3.8,1.2,6.4,3,8.7c14.1,17.6,22,37.4,24.1,60.1c1.4,15.3,4.5,30.6,4.1,46   c-0.3,13.1-0.3,26.2-1.8,39.3c-2,17.3-7.6,33.7-12.1,50.4c-2.9,10.8-9.2,20.2-16.1,29.1c-9.7,12.5-19.3,25-30.5,36.2   c-14.2,14.2-30.3,25.8-47.2,36.6c-14.1,9-28.2,18.2-42.1,27.5c-4.1,2.7-8.3,4.9-12.9,6.4c-1.9-4.1-2.2-8.7-3.1-13.1   c-0.8-3.9,4.2-9.8,9.6-11.2c20-5.3,35.7-17.9,51.6-30.2c5.2-4,10.1-8.6,14.8-13.1c11.4-10.9,23.6-21.1,32.7-34.4   c4.7-6.9,9.9-13.7,14.5-20.7c4.3-6.6,7.7-14,10.4-21.5c3.1-8.7,7-17.1,9.4-26.1c7.1-27,13.7-53.9,10.8-82.2   c-1.1-11.1-4.1-21.9-7.7-32.4c-1.9-5.5-2.8-11.3-5.4-16.6c-4.6-9.3-8.6-18.9-13.3-28.2c-2.7-5.3-5.6-10.5-8.4-15.7   c-0.7-1.4-1.6-2.7-0.1-4c1.3-1.2,2.9-1.1,4.1-0.1C605.4,422.8,610.1,424.8,613.2,428.9z"
       id="path75" /><path
       class="st20"
       d="M1053.1,468.5c0,2.1-1,3.1-3.1,3.8c-19.5,6.6-30.4,21.6-38,39.5c-2.1,5-4.2,10.1-4.3,15.7   c-6.4-0.8-12.7-2.7-19.3-1.5c-2.5,0.5-3.6-1.3-3.5-3.7c0-0.8,0.3-1.6,0.5-2.4c6-23.6,7.4-47.4,4.1-71.5c-0.8-6.3,0.8-8,7.2-8.5   c3.3-0.3,6.6-0.5,10.6-2.5c-4.7-2.4-8.8-3.8-13.5-3.3c-5.5,0.5-8.6-2.2-9.6-8.6c-0.7-4.7,3.1-5.1,6.3-5.9c0.6-0.1,1.1-0.6,1.9-1   c-2.1-2.9-5-3.6-7.9-4c-4.2-0.5-6.1-3.1-7.7-6.7c-3.4-7.9-6.2-16.1-12.4-22.6c-4.3-4.6-10.2-5.7-15.5-7.4   c-6.8-2.2-12.8-5.2-18-10.1c-3.6-3.4-8.5-5.1-11.9-8.9c-3.9-4.4-5.7-14.7-2.7-19.7c2.6-4.3,6.6-5.8,11.5-5   c-5.2,15.1-1,24.7,13.8,30.2c8.1,3,16.7,4.9,25.3,4.6c12.2-0.4,20.7,5.6,28,14.3c6,7.3,11.9,14.7,17.7,22.1   c3.1,3.9,5.7,8.1,7.4,12.9c0.6,1.7,0.7,3.1-0.5,4.6c-5.5,6.6-4.9,14.1-1.6,21.1c5.4,11.3,14.3,18.1,27.4,18.1c2.2,0,4.6-0.4,4.5,3   c-0.2,0.2-0.5,0.4-0.8,0.5c-3.3-1-6.4,0.5-10.4,1c4,0.7,7.1,1.7,10.4,0.7C1050.5,467.7,1051.8,468.1,1053.1,468.5z"
       id="path77" /><path
       class="st21"
       d="M1050,465c0.1-3.4-2.3-3-4.5-3c-13.1,0-22-6.8-27.4-18.1c-3.4-7-3.9-14.5,1.6-21.1c1.2-1.5,1.1-2.8,0.5-4.6   c-1.7-4.8-4.3-9-7.4-12.9c-5.8-7.4-11.7-14.9-17.7-22.1c-7.2-8.7-15.8-14.7-28-14.3c-8.7,0.3-17.2-1.6-25.3-4.6   c-14.8-5.5-19-15.1-13.8-30.2c2.7-0.4,5.4-0.1,7.8,1.1c11.7,5.9,24.6,9,35.7,16.2c3.7,2.4,8.1,2.9,12,4.9c3.8,2,7.2,4.8,10.1,8.1   c1.2,1.4,2.7,2.5,4.4,3.2c2.9,1.1,5,0.3,4.3-3c-2.6-12.5,5.9-18,14.4-23.4c1-0.6,2.1-1,3.1-1.6c12-8.2,28.2-2.4,32.6,11.5   c0.8,2.5,0,4.7-1,6.7c-2.7,5.2-6.9,9.1-12.2,11.3c-4.4,1.7-8.6,3.7-12.5,6.1c-5.3,3.3-7.9,8.6-7.7,14.8c0.2,5.5,3.1,9.6,8.6,11.7   c6.8,2.5,10.1,8.9,14.2,14.2c5.7,7.5,11.9,14.8,16.4,23c4.5,8.2,12.1,14.7,14,24.4c0.9,4.6,0.1,5.9-4.5,5.2   C1061.7,467.4,1055.9,466.2,1050,465z"
       id="path79" /><path
       class="st22"
       d="M1039.2,268.6c-0.4,2.1-2,2.7-3.3,3.1c-8.2,2.3-15.3,7-23.3,9.8c-13.6,4.7-27.2,9.6-41.3,12.4   c-12.5,2.5-24.8,5.9-37,9.6c-8.2,2.4-17,4-24.6,7.7c-7.6,3.7-15.6,6.4-23.3,9.7c-10.4,4.5-20.9,9.2-31.7,12.8   c-1.2,0.4-2.2,0.6-3.1-0.4c-1-1.1-1.5-2.2-0.8-3.6c1.5-3.3,2.5-7.1,4.7-9.8c7.2-9,11.5-19.8,18.6-28.9c0.3-0.4,0.7-0.8,0.7-1.3   c1.1-7.8,7.6-8.8,13.3-9.7c10.8-1.7,21.8-2.8,32.7-4.1c9.1-1.1,18.3-1.9,27.5-2.7c28-2.6,56.1-4.8,84.1-7.1   C1035,265.9,1037.5,266.2,1039.2,268.6z"
       id="path81" /><path
       class="st21"
       d="M64.2,770.1c-2.8-1.6-2.6-4.2-1.8-6.6c6.2-20.6,14.1-40.4,27.9-57.5c10-12.3,23.1-20.9,34.8-31.2   c13.1-11.6,27.7-21.2,40-33.6c16.1-16.3,31.5-33.4,44.8-52.1c2.2-3.1,4.7-5.9,8.4-7.9c2.8,3.5,1.9,7.1,0.6,10.4   c-3.1,7.3-4.6,14.9-6.9,22.4c-4.7,3.4-8.6,7.5-11.9,12.3c-5.2,7.5-11.3,14.3-16.6,21.7c-6.1,8.5-13.8,15.7-19.7,24.3   c-1.4,2-3.4,3.1-5.1,4.7c-9,8.3-17.9,16.8-27.7,24.1c-6.1,4.5-11.3,10.3-18.4,13.4c-0.6,0.3-1.2,0.6-1.7,1.1   c-7.6,8.7-17.4,14.8-25.5,22.9c-0.6,0.6-1.2,1.3-1.4,2c-3.6,9.4-11.2,16.4-15.7,25.2C67.3,767.6,66,769.1,64.2,770.1z"
       id="path83" /><path
       class="st23"
       d="M921.2,327c6.6-4.3,12.6-8.9,19.9-11.3c8.5-2.8,17.1-5.4,25.3-9.1c9.9-4.5,20.7-5.8,30.6-9.9   c7.9-3.3,16.3-4.4,24.3-6.9c9.4-2.9,19.1-4.5,28.5-7.2c5.6-1.7,11.2-2.9,16.9-3.8c1.6-0.2,2.9-0.9,3.9,1.2   c-3.9,5.1-10,7.7-15.1,11.5c-9.6,7.1-19.4,14-29.4,20.5c-13.9,8.9-28.2,17.4-42.3,26.1c-4.3,2.6-8.4,1.8-12.9,0.1   c-11.8-4.6-24-7.9-36.4-9.8c-2.5-0.4-5.3,0.5-7.9,0.8C924.9,329.3,923,329.7,921.2,327z"
       id="path85" /><path
       class="st18"
       d="M449,474c3.8,2.9,5.4,7.5,4.3,11.4c-1.2,4.5-6.1,5.3-10.7,5.7c-10.5,0.9-20.5-2.1-30.6-3.7   c-5.4-0.9-9.6-4.8-15.1-6.2c-10.7-2.8-20.9-7.4-30.9-12.5c-3.9-2-7.2-4.8-11.1-6.7c-2.2-1.1-2.4-3-1.5-5.1c2.4-6,4.7-12.1,7.2-18.1   c0.4-0.9,1.1-2.1,1.8-2.3c5.3-1.2,10.7-3.2,16.1-1.8c14.1,3.7,28.2,7.7,41.9,12.8c3.2,1.2,5.5,3,6.8,6.1c-3.3,1.5-7.1,2-9.4,5.3   c-5.7,8.3-4.6,17,2.8,23.7c7.8,7,18.8,5.8,24.9-1.5C447.3,478.9,447.2,476,449,474z M408.6,459c3-0.1,4.9-1.1,5.2-3.9   c0.2-2.3-3.3-5.9-5.9-5.7c-2.8,0.1-4.8,2-4.7,4.7C403.4,457.3,405.8,458.8,408.6,459z"
       id="path87" /><path
       class="st18"
       d="M131.8,381.3c6.6,1.9,13.6,3,19.6,6.8c2.4,1.5,5.2,2.2,7.9,3.1c3.4,1.2,6.2,3.5,6.2,7.1   c0.1,8.3,3.1,16.3,2.6,24.7c-0.3,4.8-0.8,4.8-5.8,4.5c-15.7-1-29.4-8.1-43.4-14c-7.3-3.1-12.3-8.9-17.2-14.8   c-3.2-3.8-4.4-8.5-1.9-12.5c2.6-4.1,6.4-7.7,12.2-7.2c0.7,0.1,1.3,0.1,2,0.1c-2,6.8-1.1,8.6,5.9,10.1c6.2,1.3,12.5,1.7,18.8-0.7   C137.2,384.6,133.2,384.4,131.8,381.3z"
       id="path89" /><path
       class="st17"
       d="M993.2,745.1c-8-1.4-13.2-6.4-15.1-14.1c-1.5-6.2-3.3-12.5-1.1-19.1c3.3-9.9,10.7-15,20.4-16.8   c9.7-1.7,18.2,0.9,24.2,9.2c2,2.8,3.4,6.1,3.3,9.7c-0.1,3.7,0,7.3,0,11c-5.2,5.6-12.3,8.3-18.6,12.1   C1002.1,739.9,997.6,742.4,993.2,745.1z"
       id="path91" /><path
       class="st12"
       d="M1019,595c4.6,4.3,9.8,7.8,15.4,10.2c0,0.7,0.1,1.2,0,1.3c-7.4,6.2-8.5,14.8-9.5,23.6c-0.5,5-2,9.9-3.1,14.8   c-3-6.2-5.8-12.6-8.7-18.9c-5.3-11.4-13.6-20.1-23.7-26.7c-8.8-5.7-18.2-11-29.2-11.8c-2.1-0.2-4.4-0.1-6.3-1.3   c-0.4-1.8,0.2-3.6,1.4-4.6c4.2-3.2,6.6-7.7,9.4-12.1c1.4-2.3,3.3-2.6,6-1.6c9.2,3.3,16.9,9.1,25.1,14.2   c7.3,4.5,13.5,10.7,21.5,14.2C1018.8,597,1018.8,596,1019,595z"
       id="path93" /><path
       class="st24"
       d="M1018,258.7c-0.6,1.8-2.1,2-3.6,2.1c-10.2,1-20.4,2.2-30.7,3.2c-13.6,1.4-27.1,2.8-40.7,4.4   c-12.2,1.5-24.2,4.4-36.5,5.4c-5.9,0.5-11.6,2.6-17.4,3.8c-1.8,0.4-4,1.8-5.5-0.5c-1.3-2,0.2-4,1.2-5.5c2.7-4.4,5.8-8.5,8.8-12.7   c1.7-2.4,4.2-3.2,7-3.1c18.1,0.7,36.2-1.8,54.3-0.7c19.3,1.2,38.7,0.3,58,1.3C1014.9,256.6,1017.1,256.2,1018,258.7z"
       id="path95" /><path
       class="st25"
       d="M1006.1,533.4c-4.2,17.8-1.4,34.8,6.2,51.2c0.8,1.8,2,3.5,1.6,5.6c-4.5-2.4-7.3-6.8-11.5-9.5   c-8.9-5.7-17.5-12.1-28-14.6c-3.7-0.9-6.1-3-4-6.7c4.6-8.2,6.4-17.5,10-26c1.5-3.4,3.4-4.3,6.8-4.5   C993.9,528.8,999.8,531.7,1006.1,533.4z"
       id="path97" /><path
       class="st14"
       d="M646,404c-2.2-2.1-5.9-3.6-2.8-8.5c23.7,15.5,43.8,34.1,55.5,59.9c7.8,17.2,10,36,7.8,55.6   c-6.1-2.1-10.2-5.6-14.7-8.5c2.3-10,1-19.8-1.3-29.5c-4.2-17.5-13-33-22.1-48.2c-3.9-6.6-8.3-12.8-14.1-17.9   C651.9,404.7,649.6,402.4,646,404z"
       id="path99" /><path
       class="st19"
       d="M646,404c3.6-1.7,5.9,0.7,8.3,2.8c5.8,5.1,10.2,11.4,14.1,17.9c9.1,15.3,17.9,30.7,22.1,48.2   c2.3,9.7,3.6,19.5,1.3,29.5c-7-3.1-13.5-6.9-18-13.3c-0.9-1.2-1.1-2.3-0.8-3.7c1.5-9.7,0.3-19-3.1-28.3c-1.8-5-1.9-10.8-4.3-15.7   c-2.2-4.4-3.6-9.2-5.1-13.9C657.6,418.5,651.9,411.1,646,404z"
       id="path101" /><path
       class="st26"
       d="M266.1,597.2c-12.7-1.2-18.9-10.5-15.1-22.7c2.1-6.8,5.2-12.9,10.2-18c9.4-9.7,19.5-8.3,27.3,3.7   c-5.3,12.9-10,26.2-20.7,36C267.3,596.5,266.7,596.8,266.1,597.2z"
       id="path103" /><path
       class="st18"
       d="M372.2,526.4c-1.7,3.9-5,4.1-8.4,3.6c-5.3-0.8-9.7-3.4-13-7.7c-7.3-9.9-14-20-18.7-31.5   c-2.8-7-2.8-7.6,3.9-10.8c2.6-1.2,4.7-2.9,6.3-5.5c1.1-1.8,2.5-3.5,3.9-5.2c1-1.1,2.2-2,4.2-3.9c3.5,11.8,11.5,20.4,16.4,30.8   c-4.7,0.7-8.1,3.1-9.5,7.7C353.9,515.3,360.4,525.1,372.2,526.4z"
       id="path105" /><path
       class="st26"
       d="M189.2,561.4c-2.4-0.9-4.9,0-7.4,0c-7.8-0.2-11.9-9.3-9.1-15.5c5.4-11.9,15.4-18.6,27.7-21.7   c4.9-1.2,9.7,0.3,12.6,5c3,4.7,3.7,9.5,0.3,14.4c-0.7,0.9-1,2.1-1.5,3.1c-4.8,3.5-10,6.3-14.5,10.2   C195,559,192.3,560.5,189.2,561.4z"
       id="path107" /><path
       class="st21"
       d="M480.3,795.5c-0.8,1.2-1.8,1.4-2.9,0.3c-1.3-1.3-3.1-2.3-3.8-3.9c-4.4-9-12-15.8-16.8-24.5   c-1.1-2-2.4-3.3-4.8-3.8c-13.5-2.3-25.3-8.8-36.8-15.8c-5.3-3.2-8.8-8.5-11.3-14.2c-1.6-3.5,1-4.3,3.5-5c0.9,0.9,2.1,1.7,2.8,2.8   c8.6,13.2,22.2,17.4,36.5,19.3c7.1,1,14.4,2,21.8-0.1c3.4-0.9,4.5,1.3,4.3,4.7C471.8,769.5,475.4,782.6,480.3,795.5z"
       id="path109" /><path
       class="st23"
       d="M298.3,445.9c1.9-2.1,4.2-1.9,6.3-2c9.3-0.7,18.6-0.7,27.5-3.9c1.4-0.5,2.9-0.6,4.4-0.7   c2.6-0.2,5.7-1.1,7.6,1.1c2,2.4-0.9,4.5-1.7,6.7c-2.3,6.9-6.2,12.8-11.5,17.8c-3.3,3.1-9.5,4-13.3,1.8   C313.9,464.6,300.3,450,298.3,445.9z"
       id="path111" /><path
       class="st26"
       d="M449,474c-1.8,2-1.7,4.9-3.5,7.1c-6.1,7.3-17.2,8.5-24.9,1.5c-7.4-6.7-8.6-15.3-2.8-23.7   c2.3-3.3,6.1-3.8,9.4-5.3C435.4,459.4,444.8,463.9,449,474z"
       id="path113" /><path
       class="st23"
       d="M480.3,444.9c-2-0.3-3.9-0.8-5.5-2.1c-6.1-4.7-11.3-10.3-16.1-16.3c-1.9-2.4-1.4-4.5,1.7-5.2   c3.6-0.8,7.2-1.8,10.8-2c8.8-0.5,17.6-1.1,26.1-3.5c1.7-0.5,3.4-0.8,4.6,0.8c1.4,1.7,0,3.1-0.7,4.5c-3.8,7.6-7.6,15.1-14.2,20.9   C485,443.7,482.8,444.6,480.3,444.9z"
       id="path115" /><path
       class="st9"
       d="M954,586.4c1.9,1.2,4.2,1.1,6.3,1.3c11,0.8,20.4,6.1,29.2,11.8c10.1,6.6,18.4,15.3,23.7,26.7   c2.9,6.3,5.7,12.6,8.7,18.9c0,1-0.1,2-0.1,2.9c-1,1.9-2,3.7-3.1,5.6c-4.4-0.5-5.9-3.6-6.9-7c-4.6-16.1-14-29.1-25.5-40.9   c-9-9.1-20.2-14.2-32.2-17.9C954.1,587.4,954,586.9,954,586.4L954,586.4z"
       id="path117" /><path
       class="st26"
       d="M540.1,880.1c-1.8,1.4-3.9,1.9-6.1,1.7c-8.8-0.7-17.4-2-25.1-6.8c-3.6-2.2-4.4-7.1-8.5-8.9   c-1-0.4-1.8-1.4-2.8-2.1c1.2-5.5,5.7-6.5,10.2-7.1c8.7-1.1,16.5,1.7,23.3,6.9C536.4,867.9,540.8,872.7,540.1,880.1z"
       id="path119" /><path
       class="st23"
       d="M915.5,330.3c-0.6,2.4-2.5,3.5-4.4,4.6c-11.7,6.6-13.6,18.5-4.8,28.8c0.9,1,1.9,1.9,2.6,3   c0.8,1.2,1.5,2.6,2.2,3.9c-3.2,4.1-5,4.7-8,1.7c-8.2-8.2-16.1-16.6-24.2-24.8c-2.4-2.4-1.8-4.1,1-5.3c7.3-3.1,14.7-6.2,22.1-8.9   c2.2-0.8,4.3-1.6,6.2-2.9C910.5,328.9,913,327.8,915.5,330.3z"
       id="path121" /><path
       class="st27"
       d="M540.1,880.1c0.6-7.4-3.7-12.2-9-16.2c-6.8-5.2-14.6-8-23.3-6.9c-4.4,0.6-9,1.6-10.2,7.1   c-5.1-3.9-8.2-9.6-12.4-14.2c-0.7-0.7-1.4-1.6-0.7-2.6c0.8-1.4,1.9-0.7,3.1-0.5c17.7,3.7,35.2,8.4,53.4,9.2   c1.4,0.1,2.6,0.3,3.6,1.3c4.1,4,5.2,9,4,14.2C547.8,875.8,544.9,879.2,540.1,880.1z"
       id="path123" /><path
       class="st26"
       d="M372.2,526.4c-11.8-1.2-18.3-11-14.9-22.6c1.4-4.5,4.8-7,9.5-7.7c5.3,7,7.8,15.2,9.3,23.7   C376.6,522.8,374,524.5,372.2,526.4z"
       id="path125" /><path
       class="st26"
       d="M131.8,381.3c1.3,3.1,5.4,3.3,7,7.1c-6.3,2.4-12.6,2-18.8,0.7c-7-1.5-7.9-3.3-5.9-10.1   C120.2,378.1,126,380.2,131.8,381.3z"
       id="path127" /><path
       class="st25"
       d="M517,436.1c-4.6,4-9.7,7.2-15.1,9.9c0.1-0.5,0.1-1,0.3-1.5C505.9,434.3,506.4,434,517,436.1z"
       id="path129" /><path
       class="st27"
       d="M272.1,449.1c4.5-3.9,7.7-3.8,10.5,0c0.6,0.8,1.3,1.6,0.7,2.6c-0.5,1-1.5,1.2-2.5,1.2   C279.2,452.9,274.6,450.9,272.1,449.1z"
       id="path131" /><path
       class="st27"
       d="M1073.7,495.3c-5.2-2.2-10.9-3.4-15.9-8.1c6.6,1.8,12.7,2.1,17.4,6.5C1074.7,494.3,1074.2,494.8,1073.7,495.3   z"
       id="path133" /><path
       class="st18"
       d="M912.2,721c-1.7-4.3-3.6-8.6-3.6-13.4c3.2,3.9,4.3,8.6,5.4,13.4C913.4,720.9,912.8,721,912.2,721z"
       id="path135" /><path
       class="st18"
       d="M1049.2,467.3c-3.3,1-6.4,0-10.4-0.7c4-0.5,7-2,10.4-1C1049.2,466.1,1049.2,466.7,1049.2,467.3z"
       id="path137" /><path
       class="st18"
       d="M917.2,744c0.6,1.4,0.6,2.7-0.3,3.9C915.8,746.5,915.8,745.2,917.2,744z"
       id="path139" /><path
       class="st18"
       d="M915.9,729c0.9,1.3,1.1,2.6,0.3,3.9C914.9,731.8,914.8,730.4,915.9,729z"
       id="path141" /><path
       class="st18"
       d="M916.1,757c0.7,1.1,0.5,2-0.3,2.9C914.9,758.9,915,757.9,916.1,757z"
       id="path143" /><path
       class="st18"
       d="M916.8,739.1c0.9,0.9,0.9,1.9,0.3,2.9C916,741.1,915.9,740.2,916.8,739.1z"
       id="path145" /><path
       class="st18"
       d="M915.3,764.8c0.4,1.1,0,1.9-0.8,2.6C914.1,766.4,914.3,765.5,915.3,764.8z"
       id="path147" /><path
       class="st25"
       d="M1019,595c-0.2,0.9-0.2,1.9-1.6,1.6c0-0.6,0.1-1.1,0.1-1.7C1018,595,1018.5,595,1019,595z"
       id="path149" /><path
       class="st25"
       d="M862,624.5c-0.5,1.3-1.2,1.5-2.1,0.3C860.6,624.3,861.3,624.2,862,624.5z"
       id="path151" /><path
       class="st25"
       d="M854.1,624.9c-0.7,1-1.4,1-2.1,0C852.6,624,853.3,624.2,854.1,624.9z"
       id="path153" /><path
       class="st25"
       d="M954,586.4c0,0.5,0,1,0,1.4c-0.7,0.9-1.4,1-2.1,0.1C952.7,587.4,953.3,586.9,954,586.4z"
       id="path155" /><path
       class="st9"
       d="M446.1,584.1c20,1.2,34.7,15.4,32.2,37.3c-1.7,15.1-10.6,22.6-25.3,25c-8.3,1.4-16.3,2.1-22.9-3.2   c-9.2-7.5-16.3-19.1-12.7-31.7c2.8-9.8,7.3-17.6,15-23.9C436.8,584,442,585,446.1,584.1z M467.8,616.8c-0.7-6.2-2.9-13.1-7.7-18.9   c-4.3-5.1-11.7-6.7-16.1-3.3c-3.2,2.5-6.6,4.5-9.9,6.7c-3.4,2.3-5.2,5.4-6,9.4c-2,10.5,1.7,17.6,12.5,23.4   C452.7,640.6,467.7,631.8,467.8,616.8z"
       id="path157" /><path
       class="st10"
       d="M368.9,167.5c13.1-0.9,29.7-1.4,46.3-3.2c11.3-1.2,22.7-0.1,33.9-1.6c16.4-2.2,32.9-0.2,49.3-2.4   c3.9-0.5,8,0.1,12,0c18.2,0,36.2-1.8,54.2-4c7.4-0.9,8.4-0.3,9.5,7.1c1.9,12.8,3.6,25.7,5.3,38.6c3.8,28.4,7.4,56.9,11.2,85.3   c3.4,25.4,7.5,50.7,9.6,76.3c0.3,3.4-0.8,4.3-4.1,5.2c-13.6,3.8-27.7,2.6-41.4,5.2c-12.4,2.3-24.9,4.1-37.4,6.1   c-5.3,0.8-10.6,1-15.9,1.4c-8.7,0.7-16.6,5.1-25.3,5.4c-17.8,0.6-35.4,3.3-53.1,5.4c-5.8,0.7-11.5,1.8-17.1,3.3   c-5.5,1.5-11.2,0.7-16.8,1.5c-8,1-15.8,2.5-23.5,4.5c-10.9,2.8-22,3.6-33.1,4.4c-7.3,0.5-8.5-0.4-9.3-7.8   c-1.5-14.7-5.2-29.1-5.4-44.1c-0.2-11.2-4-22-4.8-33.1c-1.6-24.6-7.2-48.7-10.1-73.2c-2.7-23.1-4.4-46.4-7.7-69.4   c-1.1-7.5-0.6-8.1,7-8.2C323.2,169.6,344.2,166.8,368.9,167.5z M322.1,175.9c-1.3,0.1-2.7,0.2-4,0.2c-13.1,0.8-16.6,7.6-15.5,18.4   c2.7,26.9,5.6,53.8,9.9,80.6c3.6,22.4,5.8,44.9,8.7,67.4c1.7,13.4,3.3,26.8,5.4,40.1c1.5,9.5,10.3,15.5,19.9,13.6   c10.9-2.2,21.8-4.1,33-4.8c22.4-1.5,44.3-7.1,66.8-8c12.8-0.5,25.1-4.1,37.9-5.2c13.6-1.2,27.2-4.3,40.7-6.7   c16.8-2.9,33.9-4.7,51-6.4c13.6-1.3,18.7-6.7,17.4-20.4c-0.1-1-0.1-2-0.4-3c-4.8-18.8-5.3-38.3-7.9-57.4   c-3.4-25.4-7.4-50.7-10.5-76.2c-0.6-4.6-1.8-9.1-1.8-13.8c0-5.8-0.7-11.6-2-17.3c-1.8-7.7-8.2-13.1-16.1-12.8   c-7.9,0.3-15.9-0.3-23.8,1.2c-2.3,0.4-4.7,0.7-6.9,0.4c-10.1-1.6-20.2,0.2-30.2,0.9c-16.4,1.1-32.8,2.3-49.2,2.8   c-16.9,0.6-33.7,2.3-50.7,2C369.9,171.1,346.1,175.4,322.1,175.9z"
       id="path159" /><path
       class="st26"
       d="M284.2,537.1c3-0.1,5.6,2.7,5.7,6.2c0.1,3.5-2.5,6.4-6,6.6c-3,0.1-6.5-3.2-6.6-6.2   C277.2,540.6,280.6,537.2,284.2,537.1z"
       id="path161" /><path
       class="st26"
       d="M408.6,459c-2.8-0.2-5.2-1.7-5.3-4.9c-0.1-2.7,1.8-4.6,4.7-4.7c2.6-0.1,6.1,3.4,5.9,5.7   C413.5,457.9,411.6,458.9,408.6,459z"
       id="path163" /><path
       class="st22"
       d="M467.8,616.8c-0.1,15-15.1,23.8-27.2,17.3c-10.8-5.8-14.6-12.8-12.5-23.4c0.8-3.9,2.6-7.1,6-9.4   c3.3-2.2,6.7-4.3,9.9-6.7c4.4-3.4,11.8-1.8,16.1,3.3C464.9,603.7,467.1,610.7,467.8,616.8z"
       id="path165" /><path
       class="st28"
       d="M322.1,175.9c24-0.5,47.8-4.8,71.7-4.4c17,0.3,33.8-1.4,50.7-2c16.3-0.5,32.8-1.7,49.2-2.8   c10-0.7,20.1-2.5,30.2-0.9c2.2,0.4,4.7,0.1,6.9-0.4c7.9-1.5,15.9-0.9,23.8-1.2c7.9-0.3,14.3,5.1,16.1,12.8c1.3,5.7,2,11.5,2,17.3   c0,4.7,1.2,9.2,1.8,13.8c3.2,25.4,7.1,50.8,10.5,76.2c2.6,19.1,3.1,38.6,7.9,57.4c0.2,1,0.3,2,0.4,3c1.3,13.7-3.8,19.1-17.4,20.4   c-17,1.6-34.1,3.4-51,6.4c-13.6,2.4-27.2,5.5-40.7,6.7c-12.8,1.1-25.1,4.7-37.9,5.2c-22.5,1-44.4,6.5-66.8,8   c-11.2,0.8-22.1,2.6-33,4.8c-9.6,1.9-18.4-4.1-19.9-13.6c-2.1-13.3-3.7-26.7-5.4-40.1c-2.9-22.5-5.1-45-8.7-67.4   c-4.3-26.8-7.2-53.7-9.9-80.6c-1.1-10.9,2.4-17.6,15.5-18.4C319.4,176.1,320.8,176,322.1,175.9z M489.6,346.4   c1.1-4.6,0.3-8-3.1-10.7c-6.7-5.4-12.6-11.8-18.8-17.8c-4-3.9-6.9-3.3-9.9,1.7c-4.4,7.4-8.8,14.8-13.4,22.1   c-2.1,3.4-2.2,6.7-0.8,10.7C459.2,350.3,474.5,348.3,489.6,346.4z M382.3,280.2c-0.1-3.2-0.2-6.3-1.3-9.3c-2.3-6.1-10-12-15.4-11.7   c-7,0.4-12.8,5.7-13.9,13.4c-0.7,5.1-0.1,10.2,2.1,15c3,6.7,11.5,10.9,18.6,9.2C379.5,295.1,382.4,290.2,382.3,280.2z M544.4,226.9   c-0.1-4.7-0.8-9.3-3.3-13.4c-4.5-7.4-15.4-9.4-20.6-3.9c-6.9,7.3-3.7,25.8,5.3,30.4C535.5,245.1,544.5,238.8,544.4,226.9z"
       id="path167" /><path
       class="st9"
       d="M489.6,346.4c-15.2,2-30.5,3.9-46,5.9c-1.4-4-1.3-7.3,0.8-10.7c4.6-7.3,9-14.7,13.4-22.1c3-5,5.8-5.5,9.9-1.7   c6.2,6,12,12.4,18.8,17.8C489.9,338.3,490.7,341.8,489.6,346.4z"
       id="path169" /><path
       class="st8"
       d="M382.3,280.2c0.1,10-2.8,14.9-10,16.6c-7.1,1.6-15.5-2.6-18.6-9.2c-2.2-4.8-2.8-9.9-2.1-15   c1.1-7.7,6.9-13,13.9-13.4c5.4-0.3,13.1,5.6,15.4,11.7C382.1,273.9,382.2,277,382.3,280.2z"
       id="path171" /><path
       class="st9"
       d="M544.4,226.9c0,11.9-8.9,18.2-18.6,13.1c-8.9-4.6-12.1-23.1-5.3-30.4c5.2-5.5,16.1-3.5,20.6,3.9   C543.6,217.7,544.3,222.2,544.4,226.9z"
       id="path173" /></g></svg>