<svg xmlns="http://www.w3.org/2000/svg" viewBox="0 0 273.77 272.59"><defs><style>.c1{fill:#040000;}.c2{fill:#fff;}</style></defs><g><g><path class="c1" d="M273.77,236.73v-.51a15.51,15.51,0,0,0-.37-2.94,18.39,18.39,0,0,1-.49-5.06,13.73,13.73,0,0,0-.12-3.39,6.2,6.2,0,0,1,0-.68c-.1-1.67,0-3.35-.22-5-.08-.65-.1-1.3-.13-2a45.57,45.57,0,0,1,.4-5.42,27.65,27.65,0,0,0-.21-5.94,29.42,29.42,0,0,1-.37-4.57c0-1.19.06-2.38.08-3.57a42.91,42.91,0,0,1,.53-6.94,9.54,9.54,0,0,0,.13-2.88,10,10,0,0,1,0-3,15.34,15.34,0,0,0,.23-4,8.44,8.44,0,0,1,0-2.29,18.1,18.1,0,0,0,0-6.76,14.72,14.72,0,0,1-.11-4.74,5.2,5.2,0,0,0,0-1.19,10.06,10.06,0,0,1-.19-3,33.55,33.55,0,0,0,.31-9.65,23.92,23.92,0,0,1,0-5,24.38,24.38,0,0,0,.06-5.18c-.13-1.63-.48-3.25-.55-4.9a18.32,18.32,0,0,1,0-3.82,27.62,27.62,0,0,0,.49-5.83c-.08-1.78-.27-3.56-.26-5.35a8.41,8.41,0,0,0-.26-1.76,20.76,20.76,0,0,1-.31-5.51,43.28,43.28,0,0,0,0-5.87,35,35,0,0,1-.16-5.52c.12-1.47.23-2.94.23-4.42a22.36,22.36,0,0,1,.53-5.15,4.62,4.62,0,0,0,.08-1.69c-.15-1.15-.3-2.31-.42-3.46a6.88,6.88,0,0,1,.17-2.44,11.59,11.59,0,0,0,.46-3.79c-.08-1-.18-1.92-.22-2.88-.07-1.87-.48-3.7-.48-5.58a24.16,24.16,0,0,1-.07-3.73,19,19,0,0,0,0-5.85,4.7,4.7,0,0,1-.07-1.35,15.9,15.9,0,0,0-1.65-8.81,2.2,2.2,0,0,0-.64-.78,14.4,14.4,0,0,0-1.58-.95,9.77,9.77,0,0,0-6.65-1.08,26.64,26.64,0,0,1-4,.35,11.3,11.3,0,0,0-3.21.32,6,6,0,0,1-1.26.18c-1.39.06-2.79.07-4.16.26a57.62,57.62,0,0,1-5.77.32,6.32,6.32,0,0,1-1.36-.08,27.56,27.56,0,0,0-3.8-.37,53.84,53.84,0,0,1-7.24-.83,25.89,25.89,0,0,0-5.24-.31,20,20,0,0,0-2.38.08c-1.41.21-2.83.17-4.24.28a36.37,36.37,0,0,0-3.73.19,18.91,18.91,0,0,1-2.61.27l-4.25.15a17,17,0,0,1-3.56-.07,18.37,18.37,0,0,0-2.53-.31c-2-.07-3.91.29-5.86,0a1.22,1.22,0,0,0-.34,0c-1.57.19-3.15.41-4.72.56a26.19,26.19,0,0,1-4.07.23c-1.13-.07-2.26,0-3.39-.06a28.79,28.79,0,0,1-5.16-.3,12,12,0,0,0-3.12-.23c-.45,0-.9.1-1.35.15-1.32.14-2.66.08-4,.29a9.22,9.22,0,0,1-1.7.08c-1,0-2,0-3,0a17.88,17.88,0,0,1-3.81-.11,3.5,3.5,0,0,0-1,0l-1.29.06a9.51,9.51,0,0,0,.67-.79c.54-.72,1.29-1.24,1.79-2a7.86,7.86,0,0,1,.64-.9c.6-.68,1.2-1.36,1.85-2a8.37,8.37,0,0,1,2-1.72,5.43,5.43,0,0,0,1.2-.86c1.26-1.09,2.59-2.1,3.83-3.22,1-.87,2.07-1.56,3.06-2.41s2.07-1.76,3-2.71a11.14,11.14,0,0,0,1.88-2.06,15.77,15.77,0,0,1,2.9-3.18A14.92,14.92,0,0,0,185.49,29a4.77,4.77,0,0,1,.83-1.07c.73-.65,1.3-1.44,2.09-2,1.34-1,2.41-2.34,3.74-3.39.65-.52,1-1.3,1.63-1.84,1-.86,2-1.75,3-2.62a10.75,10.75,0,0,0,2.64-3.08,6.23,6.23,0,0,1,1.11-1.5c.47-.49.8-1.09,1.31-1.55.69-.63,1.21-1.42,1.87-2.09a4.16,4.16,0,0,0,1.18-1.93,6.43,6.43,0,0,0,0-3,5.43,5.43,0,0,0-2.91-4,8.22,8.22,0,0,0-5.9-.64,5.43,5.43,0,0,0-2.53,1.63,12.89,12.89,0,0,1-2,1.94,2.6,2.6,0,0,0-.61.58,3.39,3.39,0,0,1-.88.79,17.69,17.69,0,0,0-3,2.23,17.28,17.28,0,0,0-2.33,2.4,18.47,18.47,0,0,1-1.56,1.95c-.58.65-1.28,1.2-1.82,1.88a23.15,23.15,0,0,1-1.87,1.95c-.88.88-2,1.46-3,2.24a18.07,18.07,0,0,0-2.11,2c-.81.91-1.53,1.9-2.33,2.81s-1.57,1.63-2.35,2.44A23.67,23.67,0,0,1,166,28.38c-.65.44-1.36.74-2,1.19a16.68,16.68,0,0,0-2.57,2.08,23.33,23.33,0,0,1-2.47,2.2c-1.18.92-2.43,1.75-3.55,2.77a20,20,0,0,1-2.25,2,4.11,4.11,0,0,0-1,.89,15.16,15.16,0,0,1-2.47,2.44,16.31,16.31,0,0,0-1.72,1.62c-.45.51-.79,1.11-1.26,1.59a47.62,47.62,0,0,1-4.14,3.71,10.51,10.51,0,0,1-1,.75,17.38,17.38,0,0,0-2.72,2A7.67,7.67,0,0,1,137,53l-1.22-.13c-.54-.46-1.13-.84-1.7-1.26a30.83,30.83,0,0,1-2.57-2.33c-.6-.56-1.31-1-1.87-1.6s-1.19-1.09-1.73-1.68a24.44,24.44,0,0,0-2.49-2.49,17.94,17.94,0,0,0-3.06-2,1.23,1.23,0,0,1-.34-.27,39.3,39.3,0,0,1-4.33-3.17c-.72-.7-1.56-1.29-2.3-2-1-1-2-2-3.08-2.88a9.15,9.15,0,0,1-1.58-1.46c-.82-1.08-1.83-2-2.69-3a15.35,15.35,0,0,0-1.74-1.67c-1.23-1.1-2.38-2.29-3.67-3.33a25,25,0,0,1-2.46-2.13c-.87-.91-1.92-1.62-2.82-2.52C96.25,18,95.22,16.8,94.16,15.6a9.94,9.94,0,0,0-1.33-1.37c-1.23-.95-2.52-1.82-3.67-2.87a8.93,8.93,0,0,1-.91-.94A13.36,13.36,0,0,0,87,9a36.89,36.89,0,0,0-3-2.56c-1.14-.84-2.15-1.81-3.23-2.72a6.11,6.11,0,0,0-1.47-1.07,4.33,4.33,0,0,1-.82-.52A7.11,7.11,0,0,0,75.95.94a10,10,0,0,0-3-.36,2.48,2.48,0,0,0-1.34.29,6.14,6.14,0,0,1-1.1.63,4.37,4.37,0,0,0-1.72,1.7,8.51,8.51,0,0,0-1.11,3.38q0,.43,0,.85c.09.56.17,1.12.28,1.67a4.55,4.55,0,0,0,.52,1.6,10.32,10.32,0,0,0,2.45,2.51c.82.65,1.67,1.29,2.54,1.89A49.13,49.13,0,0,1,78,19.25a29.65,29.65,0,0,1,2.21,2.22c.4.45,1,.71,1.27,1.23.46.88,1.21,1.53,1.74,2.34a10.9,10.9,0,0,0,1.3,1.51c.51.54,1.07,1,1.62,1.5.21.25.5.41.69.68a.55.55,0,0,1,.34.27A12.07,12.07,0,0,0,89,30.51a6.94,6.94,0,0,1,1.93,1.71,1.55,1.55,0,0,0,.61.52,26.57,26.57,0,0,1,2.78,1.85A15.91,15.91,0,0,1,97,36.77c.46.45,1,.81,1.43,1.26.67.68,1.38,1.3,2,2s1.66,1.23,2.39,2c.26.27.49.59.77.84.83.74,1.52,1.6,2.3,2.38s1.47,1.91,2.25,2.82c1.07,1.24,2,2.63,3,3.87.33.39.65.79,1,1.18h-.58c-1,0-1.93-.08-2.89,0-2.07.09-4.11.42-6.17.64a13.45,13.45,0,0,1-1.52.1c-2,0-4-.1-6,0a64.09,64.09,0,0,1-8.38-.6A29.84,29.84,0,0,0,82.47,53a24.36,24.36,0,0,1-5.5-.23,16.9,16.9,0,0,0-4.65-.29,10.35,10.35,0,0,1-3-.08,31.41,31.41,0,0,0-5.42-.25,30.27,30.27,0,0,0-4.4.37,26,26,0,0,1-3,.15c-1.58,0-3.14-.38-4.72-.53a31.55,31.55,0,0,0-7.29.17c-1.85.26-3.73.31-5.57.62-1.32.22-2.66.07-4,.29a9.41,9.41,0,0,1-2.37.13c-1.25-.12-2.49,0-3.74-.06A29.91,29.91,0,0,1,23.63,53a12.8,12.8,0,0,0-4.39.15c-1.66.25-3.33.27-5,.36-.14,0-.28,0-.42-.05-1.08,0-2.1-.5-3.19-.4-.76.07-1.53.1-2.29.18a8.39,8.39,0,0,0-5.19,2.62,10.93,10.93,0,0,0-2.92,8,47.74,47.74,0,0,1-.07,5.52,12.57,12.57,0,0,0,.06,2.8,21.15,21.15,0,0,1,.2,5,10.28,10.28,0,0,0,0,2.8A27.56,27.56,0,0,1,1,84.23c0,1.27.12,2.55.09,3.82s-.23,2.25-.2,3.4a9.26,9.26,0,0,1-.14,1.69,10.62,10.62,0,0,0-.07,4,8.7,8.7,0,0,1,.07,3.22,4.08,4.08,0,0,0,0,1.1A19.52,19.52,0,0,1,1,104.55a42.15,42.15,0,0,1-.44,4.65,18.12,18.12,0,0,0,.24,7.59,13.49,13.49,0,0,1,.36,4.72,16,16,0,0,1-.44,2.25,16.48,16.48,0,0,0-.49,3.1q-.11,2.42-.21,4.84a2.68,2.68,0,0,0,0,.51c.33,2.18.61,4.37.94,6.56s.4,4.51.51,6.77c0,.88-.13,1.75-.11,2.63a25.64,25.64,0,0,1-.62,6.91,7.49,7.49,0,0,0,0,4.21A6,6,0,0,1,1,161a9.08,9.08,0,0,0,.27,2.44,3,3,0,0,1,.08.93c0,1.93.12,3.85.18,5.77a5.5,5.5,0,0,1-.26,2.43,25.08,25.08,0,0,0-.74,3,1.62,1.62,0,0,0,0,.67,15.45,15.45,0,0,1,.25,2.53,12.05,12.05,0,0,0,.31,3.46,1.65,1.65,0,0,1,0,.42c0,1.36-.16,2.7,0,4.07A28.8,28.8,0,0,1,1,192.18a17.4,17.4,0,0,0,.09,4.56,6.67,6.67,0,0,1-.11,2.86,7.7,7.7,0,0,0-.08,3.53,25.93,25.93,0,0,1,.34,7.53c-.08.79-.15,1.58-.19,2.37a33.79,33.79,0,0,0,.21,4.42,31.86,31.86,0,0,1,.17,3.22c0,2.75-.17,5.5-.22,8.25a40.29,40.29,0,0,0,.14,5.35,16.44,16.44,0,0,1,.18,4.24,2.37,2.37,0,0,0,0,.85,19.18,19.18,0,0,1,.31,2.36,5.27,5.27,0,0,0,3.31,4.66c.44.19.88.4,1.3.62a9,9,0,0,0,4.73,1.09,6.07,6.07,0,0,1,2.2.16,11.91,11.91,0,0,0,4.54.35c2.4-.18,4.79-.5,7.18-.75a28.76,28.76,0,0,1,6.1.23,12.23,12.23,0,0,0,2.29.07,13.37,13.37,0,0,1,2,0,17.68,17.68,0,0,0,3.21-.24,9.71,9.71,0,0,1,4.21.2,6.66,6.66,0,0,0,4,.09,4.35,4.35,0,0,1,1.6-.07,21.69,21.69,0,0,0,2.84.08c.09.25.18.5.27.75a16.08,16.08,0,0,0,3.22,5.43,34.14,34.14,0,0,1,3.27,3.77,23.9,23.9,0,0,1,2.25,4.36,4.29,4.29,0,0,0,1.7,2.35,5.46,5.46,0,0,1,1.14,1,15.05,15.05,0,0,0,3.28,2.68,8.46,8.46,0,0,1,1.61,1.22,4.32,4.32,0,0,0,2,1.35c1.79.4,3.46,1.24,5.29,1.46l1.19,0a1.51,1.51,0,0,1,.41-.09c1,.05,1.92-.13,2.88-.13a15,15,0,0,0,3.61-.52,9.24,9.24,0,0,0,4.81-3.2c1.06-1.26,2.25-2.39,3.32-3.64a3.31,3.31,0,0,1,1-.69,5,5,0,0,0,2-2.07,15.41,15.41,0,0,1,1.82-2.86,6.55,6.55,0,0,0,1.2-2.13c.07-.19.13-.37.21-.56a57,57,0,0,1,3.84-6.4c.3-.5.59-1,.85-1.51l.48,0a35.34,35.34,0,0,1,3.88-.48,9.73,9.73,0,0,0,1.61-.16,13.5,13.5,0,0,1,5,.15,29.56,29.56,0,0,0,5,.76,13,13,0,0,0,3.45-.32c1.61-.38,3.28-.18,4.9-.43a9.09,9.09,0,0,1,1.87-.11,22.18,22.18,0,0,1,3.73.15,1.22,1.22,0,0,0,.42,0c.56-.08,1.12-.21,1.68-.25a13.11,13.11,0,0,1,2.63-.12c2.16.29,4.32.58,6.49.84a11.11,11.11,0,0,0,3.64.08,2.66,2.66,0,0,1,1,.07,6.17,6.17,0,0,0,2.87,0,16.52,16.52,0,0,1,5.66-.37,10.87,10.87,0,0,0,1.7,0c1.3-.13,2.59-.33,3.9-.37,2.32-.07,4.64-.25,7-.17a21.64,21.64,0,0,0,2.47-.12c.15.26.3.52.44.8a12.24,12.24,0,0,0,2.35,3.89,34.06,34.06,0,0,1,3.3,3.65,11.94,11.94,0,0,1,1.65,2.56,11.09,11.09,0,0,0,2.61,3.64,18.65,18.65,0,0,1,1.64,1.71,21.61,21.61,0,0,0,3,2.91,18.16,18.16,0,0,1,1.53,1.34,14,14,0,0,0,4.85,3.05,17.64,17.64,0,0,0,4.93,1.14,2.46,2.46,0,0,1,.84,0c2.1-.27,4.22-.38,6.3-.86a14,14,0,0,0,3.8-1.64,6.84,6.84,0,0,0,2.15-1.77,11.39,11.39,0,0,1,.77-1,16.57,16.57,0,0,0,3-4.47,13,13,0,0,1,1.2-2.15c1.13-1.57,2.58-2.86,3.72-4.42a6.73,6.73,0,0,0,1-1.82,12.93,12.93,0,0,1,1.24-2.88q1-1.55,1.88-3.15c1,0,2.07.07,3.1.11a15.83,15.83,0,0,0,3,.08,40.6,40.6,0,0,1,8.15-.23,32.79,32.79,0,0,0,5.1,0,32.81,32.81,0,0,1,4.92,0,16.06,16.06,0,0,0,4.4-.26,5,5,0,0,1,1.52-.13,32.06,32.06,0,0,0,3.4,0c1,0,1.93-.1,2.89-.05a18,18,0,0,0,5.4-.44,6.65,6.65,0,0,0,2.62-.94,5.69,5.69,0,0,0,2-2.14c.08-.2.3-.34.41-.54.33-.58,1-.84,1.35-1.4a7.56,7.56,0,0,0,1.49-4Q273.77,237.59,273.77,236.73Z"/><path class="c2" d="M81.35,260.23c1.49-1.39,2.76-3,4.34-4.31a7.21,7.21,0,0,0,1.57-2.41c.55-1.06,1.28-2,1.91-3,.38-.6.78-1.18,1.19-1.76-.84-.07-1.68-.11-2.53-.09a12,12,0,0,1-1.7-.06,17.45,17.45,0,0,0-4.5.14,10,10,0,0,1-3.13-.1,19.35,19.35,0,0,0-5.49-.11,20.73,20.73,0,0,1-6.69-.18,5.14,5.14,0,0,0-1.95-.11l-.59.07a20,20,0,0,0,1.86,2.59A31.11,31.11,0,0,1,68,254.42a2.13,2.13,0,0,0,.36.57c1.23,1,1.92,2.52,3.1,3.58a1.63,1.63,0,0,1,.17.19c2.31,2.83,2.41,2.2,4.81,2.85A5,5,0,0,0,81.35,260.23Z"/><path class="c2" d="M213.06,248.09l-.76.12a5.45,5.45,0,0,1-2.1,0c-.39-.08-.78-.15-1.16-.25a8.87,8.87,0,0,0-3.45,0,23.27,23.27,0,0,1-5.41.34,6.12,6.12,0,0,0-2.6.31,11.06,11.06,0,0,1-4.55.15l-3.9-.34a3.35,3.35,0,0,0-.76,0,20.38,20.38,0,0,1-2.37.21c.88,1.5,1.75,3,2.7,4.44a29.3,29.3,0,0,0,4.8,5.81c.51.45.94,1,1.46,1.42a6.68,6.68,0,0,0,7,.55,10.52,10.52,0,0,0,2.16-1.64c.29-.3.65-.54,1-.82a12.74,12.74,0,0,0,2-2c1-1.35,2.08-2.68,3.1-4a37.45,37.45,0,0,0,2.51-3.62Z"/><path class="c2" d="M244.24,194.76c.05-2.36.22-4.7.37-7.06.11-1.78,0-3.58.22-5.36a70.73,70.73,0,0,0,.07-11.9,14.49,14.49,0,0,0-.3-2.36,11.29,11.29,0,0,1-.17-4.31,36.66,36.66,0,0,0,.51-7.12c0-.88,0-1.76,0-2.64a40.08,40.08,0,0,1,0-5.52,19,19,0,0,0,.07-2.72c0-2.22-.39-4.41-.5-6.62a31.12,31.12,0,0,1,0-4.42,28.5,28.5,0,0,0,.09-5c-.12-1.35-.1-2.72-.31-4.07a15.11,15.11,0,0,1,.22-4.49,7.14,7.14,0,0,0,0-3,13.38,13.38,0,0,1-.5-4.28c0-.79.06-1.59,0-2.38-.05-1.33-.15-2.66-.23-4a11.7,11.7,0,0,1,.34-4.21,3.36,3.36,0,0,0,.12-.75,50.34,50.34,0,0,0,.32-6.89,14.94,14.94,0,0,0,0-3.3,10,10,0,0,0-2.54-6.69A14.72,14.72,0,0,0,239,83.14a2.08,2.08,0,0,0-.55-.21,25.89,25.89,0,0,0-4.17-.78,28.19,28.19,0,0,0-4.75-.15,13.89,13.89,0,0,1-2.21.09,14.08,14.08,0,0,0-2.12.06,7.94,7.94,0,0,1-2.46,0,14.65,14.65,0,0,0-4.91-.15,18.63,18.63,0,0,1-3.89.2c-1.28-.14-2.54.08-3.82,0s-2.64.33-4,.07a12.37,12.37,0,0,0-1.75-.35c-1.92-.08-3.81-.64-5.74-.29a1.23,1.23,0,0,1-.34,0,21.92,21.92,0,0,0-5.34.1,7.49,7.49,0,0,1-1.86,0,7.71,7.71,0,0,0-1.28,0,23,23,0,0,1-4.58-.22,15.84,15.84,0,0,0-4.57-.1,17.44,17.44,0,0,1-4.4,0,13.4,13.4,0,0,0-2.45-.08,24.56,24.56,0,0,0-2.44.3,17.66,17.66,0,0,1-3.31,0,29.82,29.82,0,0,1-3.32-.11,14.12,14.12,0,0,0-5,.29,3.67,3.67,0,0,1-1.52,0,29.27,29.27,0,0,0-4.32-.32c-1.3,0-2.6-.16-3.9-.21a5.6,5.6,0,0,0-1.69.12,24.49,24.49,0,0,1-7,.73,7.48,7.48,0,0,0-1,0,11.66,11.66,0,0,1-3.8-.21A9.93,9.93,0,0,0,133,81.8a9.47,9.47,0,0,1-4-.08c-.38-.11-.78-.12-1.17-.2-1.23-.23-2.49.11-3.72-.16a4.76,4.76,0,0,0-1.7,0,18,18,0,0,1-3.82.16,6.75,6.75,0,0,0-2.36.24,18,18,0,0,1-5.57.43c-2.12-.06-4.22-.48-6.35-.57a22.78,22.78,0,0,1-3-.26,12.66,12.66,0,0,0-5.07,0,9.43,9.43,0,0,1-1.86.14,73.86,73.86,0,0,1-7.56-.29,9.71,9.71,0,0,0-3.39.11,4.76,4.76,0,0,1-2.44,0,2.33,2.33,0,0,0-1-.09,19.56,19.56,0,0,1-2.88.27c-.85,0-1.7.06-2.54.08a24.79,24.79,0,0,1-6.35-.3,4.49,4.49,0,0,0-1.68-.06,21.43,21.43,0,0,1-4.58.2,3.88,3.88,0,0,0-.84.08c-1.2.16-2.4.37-3.61.46-1,.08-2,.08-3.06.18a14.25,14.25,0,0,1-2.63,0c-1.38-.12-2.77-.22-4.14-.44a5.59,5.59,0,0,0-1.61.07,14.16,14.16,0,0,1-3.73,0,17.52,17.52,0,0,0-5.24.2A16.89,16.89,0,0,0,33,83.59a4.12,4.12,0,0,0-1.89,1.9,24.08,24.08,0,0,0-1.87,5.45A9.63,9.63,0,0,0,29,93.82c.08,1.5.18,3,.25,4.51a9.4,9.4,0,0,1,0,2.21,17.12,17.12,0,0,0-.19,5,3.45,3.45,0,0,1-.05,1,33.58,33.58,0,0,0-.69,5c-.06,1.62-.24,3.22-.31,4.84a30.9,30.9,0,0,0,.08,6.29c.23,1.43.46,2.86.56,4.3a10.5,10.5,0,0,1,0,2,24.22,24.22,0,0,0,.17,7.79,13.17,13.17,0,0,1,.08,4.91,25.77,25.77,0,0,0-.13,6.78,43.51,43.51,0,0,1,.06,6.88c-.18,3.11-.15,6.24-.19,9.36a20.1,20.1,0,0,0,.08,2.12c.15,1.64.11,3.28.17,4.93.1,2.72-.27,5.44-.11,8.17a55.34,55.34,0,0,1-.22,5.87,54.28,54.28,0,0,0,0,6.46c.17,2.32-.05,4.66.17,7a5.78,5.78,0,0,1,0,.93c-.13,1.9-.14,3.8-.12,5.7,0,2.25.37,4.47.51,6.7a5.39,5.39,0,0,0,.85,2.9,10.46,10.46,0,0,0,6.31,4.15,21.3,21.3,0,0,0,4.37.57c1.82.07,3.62-.06,5.43-.13,2.64-.11,5.22-.72,7.88-.65,1.9.05,3.8.12,5.68.33a36.62,36.62,0,0,0,5.84.31c1.31-.06,2.6,0,3.9,0a10.66,10.66,0,0,0,1.69.12,38.81,38.81,0,0,1,6.45,0,18.59,18.59,0,0,0,2.62.2c1-.08,1.92-.19,2.87-.36a11.92,11.92,0,0,1,3.23-.08,83.7,83.7,0,0,0,11.13.43c1.61-.06,3.22-.24,4.83-.27.43,0,.85-.07,1.27-.1a16.37,16.37,0,0,1,3.88-.37,19.65,19.65,0,0,0,3.57.14A8.27,8.27,0,0,1,113,220c.58.14,1.16.28,1.74.36a11.63,11.63,0,0,0,3.72.13,8.13,8.13,0,0,1,3,0,10.1,10.1,0,0,0,3,.21,2.89,2.89,0,0,1,1.1,0,3.11,3.11,0,0,0,1.35,0,35.09,35.09,0,0,1,3.72-.36c1.16-.07,2.33,0,3.48,0,1.53-.06,3-.25,4.57-.38a42.67,42.67,0,0,1,5.44,0c1.44.06,2.86.42,4.3.54a19.17,19.17,0,0,0,5.42-.2,3.75,3.75,0,0,1,1.52,0,11.06,11.06,0,0,0,5.05,0,4.1,4.1,0,0,1,1.61-.08,8,8,0,0,0,1.69.14c1.33-.09,2.65-.25,4-.41a13.24,13.24,0,0,1,4,0,23.39,23.39,0,0,0,9.86-.12,13,13,0,0,1,4.14-.26,33.83,33.83,0,0,0,4.5.07c2.22-.11,4.42.29,6.63.13a1.24,1.24,0,0,1,.34,0,34.67,34.67,0,0,0,6.36.36,4.93,4.93,0,0,0,1.27-.05c1.77-.44,3.55-.1,5.33-.1,2.12,0,4.21.38,6.35,0a26.85,26.85,0,0,1,7.28-.36c.5,0,1-.08,1.52,0a39.31,39.31,0,0,0,5.41.46,7.3,7.3,0,0,0,1.44.1c1.07-.15,2.14-.21,3.21-.39.84-.14,1.65-.37,2.5-.48a6.52,6.52,0,0,0,3.21-1.24,12.51,12.51,0,0,1,1.12-.92,4.51,4.51,0,0,0,1.63-2,14.15,14.15,0,0,0,1-3.67,25.36,25.36,0,0,0-.07-8.47A51,51,0,0,1,244.24,194.76ZM80.65,150.45a4.19,4.19,0,0,0-.1.85c-.11.16,0,.35-.08.51s-.09.38-.1.58.05.32-.11.43l-.24.91a3.65,3.65,0,0,1-.37.88.59.59,0,0,0-.14.41,6.63,6.63,0,0,1-.35.62,2.79,2.79,0,0,0-.42.74.72.72,0,0,1-.28.37,20.56,20.56,0,0,1-1.6,2,1,1,0,0,1-.34.29,15.74,15.74,0,0,1-3.15,2.1,1.79,1.79,0,0,1-.67.29h0a16.27,16.27,0,0,1-3.23.56,12.29,12.29,0,0,1-4.56-.48,4.29,4.29,0,0,1-.8-.2c-.4-.17-.8-.37-1.22-.51A12.64,12.64,0,0,1,58.31,158,11.62,11.62,0,0,1,55,151.64l-.1-1.19V150q0-.39,0-.77l0-.67h0c.12-.39-.05-.8.09-1.19h0c.08-.14,0-.31.08-.44v0l0,0c.1-.2,0-.44.09-.64h0c.09-.14,0-.31.08-.44v0c.07-.15,0-.33.08-.47h0c.11-.16,0-.36.09-.51a4.63,4.63,0,0,1,.47-1.32c.06-.18.13-.35.18-.53a7,7,0,0,1,1.32-2.1c.15-.2.33-.39.49-.58a.88.88,0,0,1,.26-.23c.16,0,.21-.19.33-.27a2.33,2.33,0,0,1,.52-.5l.17-.17c.13-.07.22-.21.37-.25a12.37,12.37,0,0,1,2.51-1.5c.41-.18.81-.38,1.21-.57l.44-.15.41-.16c.12-.12.3,0,.43-.09s.3,0,.44-.08h0a13.35,13.35,0,0,1,2.73-.42,12,12,0,0,1,2.05,0,.17.17,0,0,1,.14.06,1.82,1.82,0,0,1,.6.18h0a1.31,1.31,0,0,1,.44.17c.08.13.21.05.32.08s.28.05.36.19.16.06.25.07.39,0,.52.2a1.21,1.21,0,0,0,.5.22c.14.07.32.07.44.19a20.91,20.91,0,0,1,3.3,2.11.75.75,0,0,1,.36.28l1.84,2.53c.14.11.14.28.2.42a1.28,1.28,0,0,1,.25.44h0a16.06,16.06,0,0,1,1,2.14c.12.69.22,1.39.37,2.08.07.35,0,.7.07,1A14.17,14.17,0,0,1,80.65,150.45Zm76.78,48.43a3.12,3.12,0,0,1-1.66,2.7,1.23,1.23,0,0,1-.63.24c-.79,0-1.58.11-2.38.09-.41,0-.82-.05-1.23-.05-4.91,0-9.82,0-14.72,0-2,0-4,.07-6,.11-1.22,0-2.43,0-3.65,0-2.23,0-4.45,0-6.68,0a19,19,0,0,1-2,0,2.53,2.53,0,0,1-2-1.42A3.32,3.32,0,0,1,116,199a.41.41,0,0,0-.07-.24v-.09a1.11,1.11,0,0,0,0-.68v-.09a5.91,5.91,0,0,1,1-2.1,18.57,18.57,0,0,1,1.88-2.14c.82-.83,1.6-1.68,2.41-2.52.66-.68,1.34-1.34,1.95-2.07.73-.88,1.55-1.68,2.33-2.52a32.85,32.85,0,0,1,3.1-3.14,5.17,5.17,0,0,0,.64-.68c.72-.85,1.59-1.57,2.35-2.39a18.17,18.17,0,0,1,2.45-2.16,3.35,3.35,0,0,1,1.86-.77H137a4.8,4.8,0,0,1,3.36,1.53c1.69,1.61,3.31,3.3,5,5l2.38,2.35c.75.74,1.47,1.53,2.18,2.33a13.85,13.85,0,0,0,1.16,1.12c.59.53,1.07,1.17,1.65,1.72,1,.94,1.95,1.89,2.87,2.89a7.78,7.78,0,0,1,1.73,2.5,4.84,4.84,0,0,1,.2,1.59C157.43,198.55,157.43,198.72,157.43,198.88Zm60.85-74.41,0,0,0,0a3.7,3.7,0,0,1-.18,1.06h0c-.09.16,0,.37-.09.52h0c-.08.14,0,.31-.08.44h0c-.11.12.05.32-.11.42a13.5,13.5,0,0,1-1,2.71,10,10,0,0,1-1,1.38.85.85,0,0,1-.35.34c-.18.09-.22.28-.34.41a1.17,1.17,0,0,1-.45.35,13.25,13.25,0,0,1-2.72,1.74,7.5,7.5,0,0,1-1.43.49c-.16,0-.3.12-.46.15s-.13.1-.22.1a3.07,3.07,0,0,1-.87.23h0a8.75,8.75,0,0,1-1,.18h0a3.81,3.81,0,0,1-1.3.29c-1,.16-2,.14-2.94.24a.34.34,0,0,1-.17,0h0a10.37,10.37,0,0,1-2.49-.5h0a8.1,8.1,0,0,1-1.37-.58,10.53,10.53,0,0,1-2.34-1.56c-.12-.06-.18-.19-.3-.24l-.09-.08a4,4,0,0,1-.4-.36c-.22-.08-.34-.3-.53-.42l-.16-.16c-.11-.14-.24-.27-.35-.41l-1-1.38a4.49,4.49,0,0,0-.25-.42l-.16-.26a9.89,9.89,0,0,1-.61-1.18l-.07-.18c-.11-.27-.17-.56-.27-.84a2,2,0,0,1-.16-.61c-.1-.14,0-.32-.08-.47-.2-.33-.14-.72-.27-1.06-.09-.17,0-.37-.07-.54s-.07-.26-.09-.39,0-.3-.08-.43h0a7,7,0,0,1-.1-2.3v-.3c.08-.15,0-.32.07-.46a14.52,14.52,0,0,1,.79-3.66,12.37,12.37,0,0,1,1.3-2.27l.22-.3c.12-.12.15-.3.27-.41a6.17,6.17,0,0,1,.93-.95,2.61,2.61,0,0,1,.41-.41,7.78,7.78,0,0,1,1.93-1.39l1.07-.66c.27-.08.51-.24.77-.33h0l.36-.16h0a8.19,8.19,0,0,1,.95-.34h0a22.45,22.45,0,0,1,4.93-.22,19.24,19.24,0,0,1,3.47.83l.09.05c.17.06.37.05.52.19a35,35,0,0,1,3.72,2.2,1,1,0,0,1,.29.33.57.57,0,0,1,.26.26,11.13,11.13,0,0,1,2.06,2.46.41.41,0,0,1,.22.44l.59,1.53a1.52,1.52,0,0,1,.28,1,.66.66,0,0,0,.14.5c.17.1,0,.29.11.42h0a13.41,13.41,0,0,1,.3,2.24,22.49,22.49,0,0,1,0,2.54C218.33,124.31,218.35,124.4,218.29,124.47Z"/><path class="c2" d="M262.41,203.68a37.63,37.63,0,0,1,.25-3.82,5.36,5.36,0,0,0-.08-1.61,7.75,7.75,0,0,1,0-3.21,16.78,16.78,0,0,0,.39-5.49,12.8,12.8,0,0,1,.18-3.11,8.31,8.31,0,0,0,0-3.3,13.65,13.65,0,0,1-.22-4.3,36.81,36.81,0,0,0-.18-8.06,11.09,11.09,0,0,1-.14-3.22c.09-.68.32-1.32.41-2a47.29,47.29,0,0,0,0-5.87.36.36,0,0,0,0-.17,2.72,2.72,0,0,1-.15-1.66,7.35,7.35,0,0,0,.06-2.53,1.34,1.34,0,0,1,0-.51,18.48,18.48,0,0,0,.16-2.63c0-1,.07-1.93.18-2.89a10.08,10.08,0,0,0-.06-3.38,13.74,13.74,0,0,1-.3-3,11,11,0,0,0-.26-2.11,17.25,17.25,0,0,1-.32-5.58,21.74,21.74,0,0,0,.22-4.83,11,11,0,0,1,.54-4.19,5.46,5.46,0,0,0,.28-1.84c-.07-1.7,0-3.4,0-5.1a5.77,5.77,0,0,0-.06-.85c-.37-2.55-.46-5.14-.74-7.7a11.3,11.3,0,0,1-.07-1.87,24,24,0,0,0-.05-2.55,11.08,11.08,0,0,1,.09-3.56,8.54,8.54,0,0,0,.16-3.45c-.14-1.1-.17-2.21-.38-3.29a5.93,5.93,0,0,1-.06-2.19,7.89,7.89,0,0,0,.07-1.61,23,23,0,0,1,0-5,37.1,37.1,0,0,0,.12-4.75,60.12,60.12,0,0,0,0-6.63,11.12,11.12,0,0,1-.09-2.29,27,27,0,0,0,0-6.28A3.37,3.37,0,0,0,261.07,65a4.87,4.87,0,0,0-3.45-1.15,19.71,19.71,0,0,1-2.79-.14,19.26,19.26,0,0,0-3.22,0c-2.41,0-4.78-.57-7.19-.53a.77.77,0,0,1-.25,0,5.37,5.37,0,0,0-1.85-.2,26.31,26.31,0,0,1-5.47-.69,4.06,4.06,0,0,0-2.82.06,2.32,2.32,0,0,1-1.17.17,8,8,0,0,0-1.94.2,9.82,9.82,0,0,1-3.7.37,1.06,1.06,0,0,0-.34,0,18.58,18.58,0,0,1-4.89.26,5.07,5.07,0,0,0-.59,0c-2.58,0-5.11.71-7.7.69a11.47,11.47,0,0,1-4-.25,3.56,3.56,0,0,0-2.49-.27c-.17.06-.39,0-.59-.05-1.14-.05-2.21-.52-3.34-.59-1.73-.11-3.46,0-5.19,0a6.71,6.71,0,0,1-1.77-.14,4.41,4.41,0,0,0-2.43,0,8.28,8.28,0,0,1-2.94.24,17.13,17.13,0,0,0-3.72.25c-1.39.25-2.8.35-4.17.72h-.17a41.13,41.13,0,0,1-4.33-.16,2.77,2.77,0,0,0-.76,0,8.91,8.91,0,0,1-3.2-.16,7,7,0,0,0-2.45-.12,18.68,18.68,0,0,1-5.25,0,15.12,15.12,0,0,0-4.58-.12,2.82,2.82,0,0,1-1,0,7.09,7.09,0,0,0-1.78-.09,15.53,15.53,0,0,1-3.22-.22,2.25,2.25,0,0,0-1.32.16,3.53,3.53,0,0,1-1.55.41,9.18,9.18,0,0,1-2.93-.43,6.3,6.3,0,0,0-2.16-.4A19.54,19.54,0,0,1,144,62.2a6,6,0,0,0-3.92.24,1.61,1.61,0,0,1-.91.14,25.33,25.33,0,0,0-4.58-.19,14.28,14.28,0,0,0-4.15.83,6.37,6.37,0,0,1-3.09.31,7.5,7.5,0,0,0-1.86-.11,15.61,15.61,0,0,1-3.13.09c-1.3-.11-2.59.05-3.9-.16-1-.16-2-.09-3-.25a1.93,1.93,0,0,0-.59.06,11.63,11.63,0,0,1-5.46-.23,2.54,2.54,0,0,0-1.18-.11,9.54,9.54,0,0,1-2.45-.13,12.31,12.31,0,0,0-2.8-.08,3.72,3.72,0,0,1-1.52-.15,8.19,8.19,0,0,0-2.26-.33,4.07,4.07,0,0,1-1.6-.14,3.54,3.54,0,0,0-1.75-.12,6.63,6.63,0,0,1-2.09.24,7.55,7.55,0,0,0-3.45.21,2.12,2.12,0,0,1-.75.09c-1-.1-2-.17-3-.3a14.46,14.46,0,0,0-4.06,0c-1.87.28-3.76.52-5.61.92a14.6,14.6,0,0,1-5.38.41,31.59,31.59,0,0,0-4.51-.14,6.61,6.61,0,0,0-1.44,0,8.83,8.83,0,0,1-3.21,0,7.46,7.46,0,0,0-3.12.08,6.88,6.88,0,0,1-3,.19,13.93,13.93,0,0,0-1.77-.14c-1.63-.07-3.29.16-4.89-.4A1.8,1.8,0,0,0,49,63c-1.8.09-3.59-.26-5.41-.08-1.38.14-2.77.16-4.15.32a20.75,20.75,0,0,1-4.57.25,25.4,25.4,0,0,0-2.62-.05,28.65,28.65,0,0,0-3.73,0,.48.48,0,0,1-.17,0,9.34,9.34,0,0,0-3.72,0,3.59,3.59,0,0,1-1.35,0,7.44,7.44,0,0,0-2.54,0,8.07,8.07,0,0,1-2.54,0,3.33,3.33,0,0,0-1,0c-.88.1-1.68.51-2.55.66a3.59,3.59,0,0,0-3.09,3.55,44,44,0,0,0-.13,7.31c.07.7.08,1.42.09,2.13,0,2.21-.05,4.42-.16,6.63A26.5,26.5,0,0,1,10.89,89a4.55,4.55,0,0,0-.06,1.44,6,6,0,0,1-.09,2.36,2,2,0,0,0,0,1.1A10.15,10.15,0,0,1,11,96.23a21.63,21.63,0,0,1-.29,5.25,14.15,14.15,0,0,0-.3,2.7c-.06,1.48.17,2.94.21,4.42,0,1.7.17,3.39.21,5.09,0,1.47.21,2.94.32,4.41a5.67,5.67,0,0,1-.07,2,2.23,2.23,0,0,0,.06,1.18,8.2,8.2,0,0,1,.16,3.21,5.29,5.29,0,0,0,.07,2,3.76,3.76,0,0,1,.12,1.18c-.17,2.94-.1,5.9-.39,8.84-.15,1.55-.38,3.09-.46,4.65a38.56,38.56,0,0,0-.38,4.91,5.93,5.93,0,0,1,0,1,35.54,35.54,0,0,0-.08,4.84c.09,2.23,1,4.37.78,6.64a12.63,12.63,0,0,1,.23,3.63c.08,3.74,0,7.49-.06,11.23,0,1.79.11,3.57.21,5.35a5.7,5.7,0,0,1-.06,1.86,11.25,11.25,0,0,0-.23,2.79c0,.48,0,1-.05,1.44a19,19,0,0,0,0,3.23,12.59,12.59,0,0,1,.07,2.29,33.13,33.13,0,0,0,.08,6.38c.3,3.55,0,7.09.1,10.64.06,1.71-.3,3.38-.41,5.08a17,17,0,0,1-.25,2.71,5.75,5.75,0,0,0-.07,1.95,4.1,4.1,0,0,1,0,1.36,5.2,5.2,0,0,0,.06,2.28,2.47,2.47,0,0,1-.1,1.5,5.34,5.34,0,0,0-.27,2.76c.13.93.39,1.83.55,2.75a25,25,0,0,1,.57,4.21,6.11,6.11,0,0,0,.67,3,4.55,4.55,0,0,0,3,2.49,18.17,18.17,0,0,0,7.17.29,2.44,2.44,0,0,1,.59,0c1.3.08,2.61.15,3.9.27a25,25,0,0,0,4.84.08,13.79,13.79,0,0,1,3.38.12c1.31.19,2.63.42,3.94.59a11.57,11.57,0,0,1,2.27.14,9,9,0,0,0,3.37.23,19.83,19.83,0,0,0,5.38-.52,2,2,0,0,1,.25,0c1.23-.23,2.48-.2,3.72-.33a16.27,16.27,0,0,1,3.81-.12c1.84.25,3.68-.21,5.52-.07a1.19,1.19,0,0,0,.25,0,27.2,27.2,0,0,1,4.06-.33c1.5,0,3,.27,4.5.24a11.86,11.86,0,0,1,2.86.31c.66.15,1.33.25,2,.34.9.12,1.82.05,2.71.21a11.52,11.52,0,0,0,4.54-.11,22.65,22.65,0,0,1,5.66-.48,38.15,38.15,0,0,1,4.76.24,13.17,13.17,0,0,0,4.73-.07,7.82,7.82,0,0,1,2.28-.06c.73.07,1.45.22,2.19.26a29.93,29.93,0,0,0,5.08-.41,18.17,18.17,0,0,1,5.23.17,5.7,5.7,0,0,0,2.44,0,4.11,4.11,0,0,1,2.09,0,9.59,9.59,0,0,0,2.35.3c1.58,0,3.17-.16,4.75-.25a2.71,2.71,0,0,1,1.18,0,4.33,4.33,0,0,0,2.59,0,5.35,5.35,0,0,1,2.28-.06c.94.22,1.9.35,2.84.52a20,20,0,0,0,4.4.33,32.73,32.73,0,0,1,5.18.22,4.55,4.55,0,0,0,1.77-.14,36.14,36.14,0,0,1,4.86-.75c.5-.07,1-.09,1.51-.14,1-.09,1.92.13,2.87.1,1.13,0,2.26,0,3.39,0,.9,0,1.79.15,2.7.14,1.35,0,2.71,0,4.06,0a17.33,17.33,0,0,1,3.38,0h.08a15.88,15.88,0,0,1,2.61-.27,2.71,2.71,0,0,0,.58-.11,8.65,8.65,0,0,1,3.6-.42c1.22.06,2.44.06,3.66.12s2.71-.28,4.07,0a1.12,1.12,0,0,0,.42,0,19.76,19.76,0,0,0,2.6-.15.66.66,0,0,1,.34,0c1,.25,2,.39,3,.58a7.63,7.63,0,0,0,2.77,0,4.56,4.56,0,0,1,1.93-.09,10.74,10.74,0,0,0,2.19.19,7.09,7.09,0,0,1,.92.18,4.08,4.08,0,0,0,1.68.13,9.11,9.11,0,0,1,2.85-.33,4.87,4.87,0,0,0,.76-.09,10.24,10.24,0,0,1,3.22,0,11.81,11.81,0,0,0,3.29.3,35,35,0,0,0,4.16-.17c.84-.15,1.7,0,2.54-.14a7.24,7.24,0,0,1,3.27-.23,1,1,0,0,0,.5,0,4.14,4.14,0,0,1,1.26-.13,50.65,50.65,0,0,1,5.15,0,2.09,2.09,0,0,0,.85,0c1-.33,2-.3,3-.61a1.64,1.64,0,0,1,.76,0,20,20,0,0,1,2.35.4c.68.19,1.37.36,2,.56a6.12,6.12,0,0,0,2.86,0,15.86,15.86,0,0,1,2.6-.36,22.49,22.49,0,0,1,3.47.23,3,3,0,0,0,1.18,0,4.38,4.38,0,0,1,1.61,0c.82.1,1.63.15,2.45.17a33.78,33.78,0,0,0,6.77-.19,28.81,28.81,0,0,0,4.52-1.09,1.75,1.75,0,0,0,.8-.6,7.1,7.1,0,0,0,1.52-4c.14-1.69.16-3.4.27-5.1.09-1.33-.06-2.67.06-4a18.09,18.09,0,0,0-.14-3.56,14.43,14.43,0,0,1,.31-4.47,12.19,12.19,0,0,0-.2-5.88A18.88,18.88,0,0,1,262.41,203.68Zm-10.07,6.9c-.19,1.92-.58,3.82-.7,5.74a59.42,59.42,0,0,0-.2,6,9.11,9.11,0,0,1-.07,1.78,2.42,2.42,0,0,1-2.37,2.23c-.93.11-1.87.14-2.8.17-1.27-.09-2.55-.13-3.82-.28a10.16,10.16,0,0,0-3.79.34,20.7,20.7,0,0,1-5.23.55,16.51,16.51,0,0,1-3.62-.41,3.55,3.55,0,0,0-1.35-.12,1.58,1.58,0,0,1-.84-.09,6.68,6.68,0,0,0-2.67-.32c-.85,0-1.68-.2-2.53-.26a33.59,33.59,0,0,0-6.62.1,19.51,19.51,0,0,1-4.81.05,42.83,42.83,0,0,0-4.51-.13,5.45,5.45,0,0,1-1-.06,10.9,10.9,0,0,0-3.55,0c-1.09.12-2.2.19-3.3.26-1.81.12-3.63.15-5.43.25-2.58.15-5.15-.2-7.72-.05a1.74,1.74,0,0,1-.59-.05,11.89,11.89,0,0,0-4.39-.24,11.14,11.14,0,0,0-3.12.26,6.6,6.6,0,0,1-3.77.14,2.19,2.19,0,0,0-.5-.09c-1.71,0-3.38-.44-5.07-.48a24.08,24.08,0,0,0-4.41,0,19.85,19.85,0,0,1-4.14,0,23.5,23.5,0,0,0-3.81.21c-1.13.12-2.26.21-3.37.39-.92.15-1.84.26-2.76.46a16.82,16.82,0,0,1-6.49.29c-.95-.16-1.92-.2-2.88-.28-1.5-.13-3-.5-4.46-.58a7.25,7.25,0,0,0-1.78,0,5.64,5.64,0,0,1-2.2,0,4.48,4.48,0,0,0-1.86,0,3.39,3.39,0,0,1-1.19,0,6.91,6.91,0,0,0-1.95,0,7.08,7.08,0,0,1-2,0,14,14,0,0,0-3.72.11,1.38,1.38,0,0,1-.42,0,16.93,16.93,0,0,0-3.65,0c-1.28,0-2.53-.26-3.8-.35a30.53,30.53,0,0,0-5.85-.15,21.64,21.64,0,0,1-3.57,0,42.38,42.38,0,0,0-4.67.14,8.14,8.14,0,0,1-1.44,0,12.22,12.22,0,0,0-3.65,0,3.48,3.48,0,0,1-.76,0,65,65,0,0,0-10.77.59,6.34,6.34,0,0,1-2.43-.32,20.4,20.4,0,0,0-6.93-.3,13.45,13.45,0,0,1-4-.09,14.19,14.19,0,0,0-4.4-.1,6.88,6.88,0,0,1-1.19.08,20.53,20.53,0,0,0-4.3.38,22.57,22.57,0,0,1-4.32.21,14.71,14.71,0,0,0-3.21.29,18.79,18.79,0,0,1-6.17.16,7.44,7.44,0,0,0-2.54.07,3,3,0,0,1-.85,0A29,29,0,0,0,38.4,227a15.75,15.75,0,0,1-3.05-.19,8.47,8.47,0,0,0-1.86-.14c-1.65.09-3.29-.14-4.93-.2a10.57,10.57,0,0,1-2.92-.54,3.55,3.55,0,0,1-2.6-3.14,26.86,26.86,0,0,1-.17-7.71,4.14,4.14,0,0,0,0-1.19,21.29,21.29,0,0,1,.2-4.32,6.62,6.62,0,0,0-.23-1.67c-.05-.31-.18-.6-.2-.91a48.62,48.62,0,0,1-.14-7.23c.08-1.22.38-2.4.48-3.62A111.07,111.07,0,0,0,23.25,183c-.09-2.32-.41-4.63-.47-7-.06-2.07-.26-4.13-.3-6.2a20,20,0,0,1,.23-3.22,32.49,32.49,0,0,0,.28-7.13c-.16-2,0-4-.2-6-.3-3.9-.28-7.83-.78-11.71a13.12,13.12,0,0,1-.05-2.29c.07-1.42,0-2.85.16-4.25.3-2.46.26-4.92.34-7.39,0-.85.15-1.69.17-2.55a27.6,27.6,0,0,0-.31-4.92,20.49,20.49,0,0,1-.3-5c.17-2.12,0-4.26.3-6.37a59.42,59.42,0,0,0,.26-6.26c0-1.1-.06-2.21-.1-3.31a24.25,24.25,0,0,1,.36-4.82,20.08,20.08,0,0,0,.18-4.4,20.27,20.27,0,0,1,.07-4.5,10.17,10.17,0,0,0,.06-2.12,23.5,23.5,0,0,1,.13-4.84,3.5,3.5,0,0,1,2.85-3,9.91,9.91,0,0,1,3-.07,21.23,21.23,0,0,0,4.76,0,24.65,24.65,0,0,1,4.49-.16c3.42.19,6.84.5,10.28.36a20.69,20.69,0,0,1,3.06,0,7.52,7.52,0,0,0,1.95-.1,9.19,9.19,0,0,1,2.63,0,7.69,7.69,0,0,0,2.88,0c.86-.21,1.74,0,2.61-.17a33.59,33.59,0,0,1,5-.25,12.27,12.27,0,0,1,2.69.33,7.2,7.2,0,0,0,2.28.15,8,8,0,0,1,2.71.14,3.28,3.28,0,0,0,.84.12,15.8,15.8,0,0,1,3,.29,6.22,6.22,0,0,0,1.95,0,10.43,10.43,0,0,1,3,.1,2.08,2.08,0,0,0,.67,0,49.77,49.77,0,0,1,9.32-.6,9.3,9.3,0,0,0,1.95-.13,3.2,3.2,0,0,1,1.68.11,5.44,5.44,0,0,0,2.86,0,19.6,19.6,0,0,1,3.63-.34,39.36,39.36,0,0,1,4.66.31,28.44,28.44,0,0,0,3.66,0l1.27,0a56.89,56.89,0,0,0,5.84-.3,7.74,7.74,0,0,1,.93-.09,17.83,17.83,0,0,0,3.2-.32,2.91,2.91,0,0,1,1.1,0,12.5,12.5,0,0,0,4.39.18,10.59,10.59,0,0,1,3.31,0,31.16,31.16,0,0,0,6.53.36c1.78-.05,3.57,0,5.35.08,1.19.06,2.38,0,3.57-.07a35.6,35.6,0,0,0,4.58-.19c2.22-.36,4.46-.32,6.69-.54a11.72,11.72,0,0,1,3.26.36,4.23,4.23,0,0,0,.67.13c1.79,0,3.55.37,5.33.4,1.21,0,2.43-.08,3.65,0a37.47,37.47,0,0,0,6.2,0,4.71,4.71,0,0,0,1-.17,5.35,5.35,0,0,1,2.36-.14,6.42,6.42,0,0,0,2.19-.05,11.78,11.78,0,0,1,4,0c1.49.22,3,.13,4.49.3,2.42.28,4.87.12,7.29.49a9.76,9.76,0,0,0,2.11,0,11.41,11.41,0,0,1,2,.12,13.6,13.6,0,0,0,3.37,0c1.6-.22,3.22-.31,4.83-.38,2.72-.12,5.44.09,8.16.16a15.66,15.66,0,0,0,4.39-.27,11.75,11.75,0,0,1,3.14,0c.94,0,1.87,0,2.8.12a11.34,11.34,0,0,0,3-.16,39.46,39.46,0,0,1,6.1-.48c2.46-.08,4.92-.38,7.38-.42a8.2,8.2,0,0,1,3.23.61,2.91,2.91,0,0,1,1.86,2.63,38.66,38.66,0,0,1,.2,7.55,30.87,30.87,0,0,0,0,6.63,14.3,14.3,0,0,1,0,2.55,38,38,0,0,0,.28,6.54,32,32,0,0,1,0,5.78,26.11,26.11,0,0,0,.27,7,12.32,12.32,0,0,1-.27,5.73,20.25,20.25,0,0,0-.33,6.09c0,.51.06,1,.06,1.53a42.61,42.61,0,0,0,.3,4.5,23.89,23.89,0,0,1-.12,6.11,29.37,29.37,0,0,0-.14,7.63q.21,2.16.44,4.32a22.51,22.51,0,0,1-.17,3.74c-.06,1-.09,2-.2,3a5.72,5.72,0,0,0,.1,1.52,16.39,16.39,0,0,1,.05,4.08,22.19,22.19,0,0,0,.15,5.26,23.46,23.46,0,0,1,.08,4.42c0,1-.09,2.1-.14,3.15a43.66,43.66,0,0,0,.43,4.4,2,2,0,0,1,.05.5c-.32,1.41.12,2.82,0,4.22a32.23,32.23,0,0,0,.2,4.58,25.8,25.8,0,0,1-.26,4,42.6,42.6,0,0,0-.42,7,47.28,47.28,0,0,0,.52,5.41A17.31,17.31,0,0,1,252.34,210.58Z"/></g></g></svg>
