<?xml version="1.0" encoding="UTF-8" standalone="no"?>
<!-- Generator: Adobe Illustrator 22.0.1, SVG Export Plug-In . SVG Version: 6.00 Build 0)  -->

<svg
   xmlns:dc="http://purl.org/dc/elements/1.1/"
   xmlns:cc="http://creativecommons.org/ns#"
   xmlns:rdf="http://www.w3.org/1999/02/22-rdf-syntax-ns#"
   xmlns:svg="http://www.w3.org/2000/svg"
   xmlns="http://www.w3.org/2000/svg"
   xmlns:sodipodi="http://sodipodi.sourceforge.net/DTD/sodipodi-0.dtd"
   xmlns:inkscape="http://www.inkscape.org/namespaces/inkscape"
   version="1.1"
   x="0px"
   y="0px"
   viewBox="0 0 1399.2447 1486.7605"
   xml:space="preserve"
   id="svg2"
   inkscape:version="0.91 r13725"
   sodipodi:docname="fluffy-elephant-friend.svg"
   width="1399.2448"
   height="1486.7605"><metadata
     id="metadata248"><rdf:RDF><cc:Work
         rdf:about=""><dc:format>image/svg+xml</dc:format><dc:type
           rdf:resource="http://purl.org/dc/dcmitype/StillImage" /><dc:title></dc:title></cc:Work></rdf:RDF></metadata><defs
     id="defs246" /><sodipodi:namedview
     pagecolor="#ffffff"
     bordercolor="#666666"
     borderopacity="1"
     objecttolerance="10"
     gridtolerance="10"
     guidetolerance="10"
     inkscape:pageopacity="0"
     inkscape:pageshadow="2"
     inkscape:window-width="1379"
     inkscape:window-height="1078"
     id="namedview244"
     showgrid="false"
     fit-margin-top="40"
     fit-margin-left="54.4"
     fit-margin-right="54.4"
     fit-margin-bottom="40"
     inkscape:zoom="0.26903009"
     inkscape:cx="1852.42"
     inkscape:cy="-200.60309"
     inkscape:window-x="1642"
     inkscape:window-y="633"
     inkscape:window-maximized="0"
     inkscape:current-layer="svg2" /><style
     type="text/css"
     id="style4">
	.st0{fill:#D6AF8A;}
	.st1{fill:#D4DADE;}
	.st2{fill:#D1A886;}
	.st3{fill:#CEA585;}
	.st4{fill:#D7D7D7;}
	.st5{fill:#AD776B;}
	.st6{fill:#BF9079;}
	.st7{fill:#CBA082;}
	.st8{fill:#B78573;}
	.st9{fill:#B07C68;}
	.st10{fill:#B17E6F;}
	.st11{fill:#B17D6E;}
	.st12{fill:#C79B7F;}
	.st13{fill:#8E7964;}
	.st14{fill:#A07168;}
	.st15{fill:#C6997E;}
	.st16{fill:#B59476;}
	.st17{fill:#E7E6E6;}
	.st18{fill:#AD8879;}
	.st19{fill:#8E665D;}
	.st20{fill:#9B6E5E;}
	.st21{fill:#040000;}
	.st22{fill:#A97268;}
	.st23{fill:#FFFFFF;}
</style><g
     id="レイヤー_1"
     transform="translate(19.125159,30.880848)" /><g
     id="レイヤー_2"
     transform="translate(-768.60784,-363.12714)"><g
       id="g8"><g
         id="g10"><path
           class="st0"
           d="m 1944.4,1427.6 c 0.2,-4.4 -0.8,-8.9 -1.4,-13.4 -0.9,-6.8 -4.7,-12.7 -5.3,-19.6 -0.2,-2.4 -2.7,-2.5 -4.8,-2.5 -11.8,0.1 -23.7,0.1 -35.5,0.2 -23.3,0.1 -46.6,-0.8 -69.3,6.3 -2.6,0.8 -4.6,-0.3 -6.2,-2.1 -2.9,-3.2 -2.4,-6.7 1,-10 4.5,-4.4 10.7,-4 16,-6.2 3.8,-6.3 9.6,-9 16.6,-10.1 22.8,-3.5 45.8,-1.4 68.7,-2 1.8,-0.1 4.2,1 4.8,-2.1 0,0 0,0 0,0 0,0 0,0 0,0 -6,-17.9 -7.4,-36.4 -7.2,-55.1 0,-4.7 -0.8,-9.3 -2.5,-13.7 -6.7,-17.5 -12.1,-35.4 -16.4,-53.7 -1.7,-7.3 -8.4,-12.4 -15.9,-12.6 -3.5,-0.1 -7,-0.1 -10.5,-0.2 -27.1,-0.3 -54.2,0.4 -80.9,5.8 -39.1,7.9 -77.1,19.5 -114.6,32.8 -3.1,1.1 -6.3,2 -9.6,2.5 -3.5,0.5 -6.3,-1.2 -7.3,-4.7 -1,-3.3 0.3,-5.9 3.4,-7.5 3.4,-1.7 6.9,-3.3 10.3,-5 0,0 0,0 0,0 0,0 0,0 0,0 -0.2,-1.1 -0.4,-2.3 -0.6,-3.4 -1.2,-6 0.7,-10.6 5.9,-14.1 7.2,-4.8 14.9,-8.8 22.9,-12 7.7,-3.2 14.3,-8.3 21.9,-11.7 2,-0.9 3.9,-1.9 6.2,-1.4 0,0 0,0 0,0 0,0 0,0 0,0 0.4,-0.3 0.7,-0.8 1.2,-0.9 24.9,-8.1 50.6,-12.5 76.6,-15.2 17.4,-1.8 34.9,-1.9 52.4,-2.5 9.1,-0.3 8.7,-0.4 5.7,-8.7 -6.8,-19.4 -21.7,-33.7 -31.6,-51.1 -0.6,-1 -1.6,-1.7 -2.4,-2.5 -10.3,-9.7 -20.3,-19.7 -29.3,-30.7 -4.3,-5.3 -9.1,-10.1 -14.3,-14.7 -25.3,-22.5 -55.1,-37.5 -85.4,-51.6 -11.6,-5.4 -23.5,-7.7 -36.3,-7.1 -12.8,0.6 -25.7,0.7 -38.5,0.5 -22.5,-0.3 -44.4,3.1 -66.1,8.4 -14.4,3.6 -28.3,8.5 -41.9,14.2 -2.5,1.1 -4.7,0.9 -6,-1.6 -1.3,-2.5 -0.4,-4.4 2.1,-5.8 7.4,-4.2 14.3,-9.2 22.4,-11.9 22.3,-7.3 45.1,-12.5 68.6,-14 6.4,-0.4 12.7,-0.8 19.1,-1.1 -0.8,-0.7 -1.6,-0.8 -2.4,-0.9 -14.3,-0.9 -28.6,-2.2 -42.9,-2.7 -10.3,-0.4 -20.6,-2 -30.9,-1.1 -10.9,0.9 -21.9,2.1 -32.8,2.7 -26.1,1.5 -50.5,8.9 -74.4,19.1 -2.3,1 -4.5,2.2 -6.4,3.7 -7,5.4 -14.6,9.9 -22.2,14.4 -7.1,4.2 -13.5,9.1 -18.6,15.7 -4.1,5.3 -8.7,6.4 -14.9,3.6 -5.2,-2.4 -7.5,-6.8 -8.2,-12.3 -13.1,-1.2 -20.5,-8.4 -20.5,-21.1 0,-7.9 5.3,-13.6 10.6,-19 6.9,-7 16.8,-8.7 24.4,-14.4 4.8,-3.6 9.9,-6.7 13.9,-11.3 5.6,-6.5 5,-10.4 -2.5,-14.3 -5.8,-3 -10.1,-13 -8.1,-19.3 2.1,-6.8 6,-11.9 12.4,-15.5 10.2,-5.9 10.2,-13.2 0.6,-20.3 -2.3,-1.7 -4.6,-3.3 -6.6,-5.3 -5,-4.8 -5.6,-10.3 -1.8,-16.2 6,-9.3 14.1,-16 25.3,-17.6 14,-1.9 26.8,-7.6 40.3,-11.2 15.8,-4.2 32,-5.4 48.1,-7.9 14.3,-2.2 28.6,-3.4 42.9,-4.9 14.4,-1.5 29,-2.7 43.6,-1.1 5.9,0.7 11.7,0.6 17.1,4.3 9.1,6.3 13.7,18 6.9,29.5 -6.2,10.6 -3.7,22.5 5.8,26.7 5.3,2.4 11.3,2.2 17.1,2.6 5.6,0.4 11.1,-0.1 16.6,2.3 12.3,5.4 17,18.2 10.4,30.1 -2.4,4.2 -4.6,8.4 -4.3,13.5 0.4,7 5,11.9 11.9,13.2 6.8,1.3 13.7,-0.2 20.3,1.7 8.6,2.4 15.6,7.4 21.6,13.6 4,4.1 1.8,9.5 2.3,14.4 1.5,0.7 2.9,1.5 4.4,2.2 34.9,16.2 67.7,35.5 94.2,64.2 8.1,8.8 19,13.9 28.3,21 5.1,-18.1 16.8,-30.8 32.4,-40.5 8,-5 16.6,-8.1 25.5,-10.7 -7.6,-7.6 -15.4,-15.1 -22.9,-22.9 -2.6,-2.7 -4.2,-6.8 -7.3,-8.7 -7,-4.4 -12.3,-10.6 -17.9,-16.4 -0.8,-0.3 -1.8,-0.4 -2.2,-0.9 -6.9,-9 -17,-16 -18.5,-28.4 -0.8,-6.9 3,-13 4.1,-19.7 0.8,-5.2 2.9,-10.1 6.6,-14.1 0,0 0,0 0,0 0.1,-4.2 -0.3,-8.4 0.5,-12.5 3.4,-17.7 5.4,-35.5 6.3,-53.5 0.6,-12.5 2.4,-25.3 -0.1,-37.4 -4.4,-21.4 -12.4,-41.7 -26,-59.3 -3.9,-5 -8.6,-9.3 -12.6,-14.2 -14.3,-17.4 -27.4,-36.1 -48.2,-47 -0.9,-0.5 -1.6,-1.2 -2.5,-1.7 -14.3,-9.6 -27.5,-21 -44.1,-26.8 -2.4,-0.9 -4.7,-2.6 -6.6,-4.4 -4.8,-4.6 -10.5,-7.5 -16.8,-9.4 -2.7,-0.8 -5.6,-1.7 -7.7,-3.4 -6.7,-5.4 -13.7,-6.5 -22.3,-4.6 -9.7,2.1 -19.4,3.7 -28.6,8.1 -14.1,6.8 -28.8,12 -44.8,12.3 -15.6,0.3 -31.3,1.1 -46.9,1.8 -8.5,0.4 -17.1,0.9 -26.5,1.4 4.5,3.2 8.3,5.7 12,8.5 5.8,4.4 10.6,9.6 12.5,16.9 2.7,10 -3.4,19.1 -13.6,20.1 -9.6,0.9 -19.2,0.4 -28.8,-1.5 -16.6,-3.3 -30.9,-11.8 -45.5,-19.8 -5,-2.7 -6.9,-2.7 -10.1,1.8 -6.5,9.1 -13.6,17.7 -20.9,26.1 -7.3,8.6 -13,18.6 -23.2,24.5 -5.7,3.4 -11.1,7.4 -16.7,11 -5.8,3.7 -12.5,5.9 -19.2,1.3 -6,-4.1 -6.9,-9.9 -5.8,-16.7 1.4,-8.2 5.1,-15.7 7,-24.4 -8.8,5.1 -16.9,10.1 -25.3,14.7 -18.8,10.2 -38.8,15.7 -60.3,13.1 -9.3,-1.1 -17.9,-4.8 -26.7,-7.7 -4.6,-1.5 -7.4,-5.6 -7.1,-10.5 0.6,-10.4 3,-20.3 10.7,-28.3 7.3,-7.5 14.3,-15.3 21.3,-23.1 1.7,-1.9 5.6,-3.7 4.2,-5.9 -1.7,-2.7 -5.4,-0.3 -8.2,0.4 -29.8,8 -57,21.9 -83.6,37 -19.6,11.1 -38.1,24.2 -51.1,43.2 -20.3,29.5 -34,62.3 -45.7,95.9 4.2,1.5 8.7,-0.6 10,-5.7 1.3,-5.1 3.8,-9 7.7,-12.4 1.1,-0.9 2.2,-2.5 2.2,-3.8 0,-5.3 4,-6.4 7.7,-7.6 4.3,-1.5 9.4,-1.4 10.2,-8 0.4,-3.3 10.3,-4.4 12.6,-1.8 1.7,2 3.9,3.1 5.9,4.5 5.4,3.8 6.5,7.2 4.2,13.5 -0.8,2.3 -1.5,4.5 -0.7,7.2 0.8,2.6 -0.7,5.7 -0.6,8.1 0.4,5.9 -3.8,11.1 -2,17 0.3,1 0.7,2 -0.3,2.7 -4.7,3.7 -3.8,9.7 -5.8,14.4 3,3.2 4.9,6.9 3.9,11.3 -1.1,4.7 -0.7,9.2 -0.6,13.9 0.2,7.5 -0.1,15 -0.8,22.4 -1.9,20.7 -4.3,41.4 -3.5,62.2 0.5,12 5.2,21.5 15.2,28.2 4.7,3.1 9.6,5.9 14.5,8.8 6.2,3.6 7.7,7.3 6,14.1 -1.6,6.2 -4.3,8.2 -11.7,8.2 -2.4,0 -3.7,0.5 -4,3.1 -0.7,5.4 -3.2,10.1 -6.1,14.6 -6.7,10.3 -13.4,20.6 -20.1,30.9 -4.2,6.5 -8.9,12.8 -11.7,20.2 9.3,-5.6 17,-13.2 25.8,-19.4 4.4,-3.1 8.5,-6.4 12.2,-10.2 4.5,-4.7 10.9,-5.9 15.3,-3.2 3.8,2.3 7,10.9 5.1,15.6 -2.8,7.1 -3.8,14.8 -8.1,21.4 -2,3 -2.7,6.4 -2.5,10 0,0 0,0 0,0 3.9,4.9 6.5,10.4 7.2,16.6 1.5,12.8 3.6,25.6 -1.2,38.1 0,2.6 1.1,3.1 3.8,2.9 7.5,-0.7 14.4,-3.5 21.7,-5.2 16.8,-3.7 32.7,-0.8 48.1,5.4 16.4,6.6 28.6,18.7 38.2,33.5 2,3.1 1.9,7.5 5.5,9.7 6.9,-8.8 11.8,-18.3 12.5,-29.7 0.4,-7.1 4.3,-11.7 10.5,-12.5 6.7,-0.9 11.9,2.9 14.1,9.8 2.3,7.4 1.2,14.8 -0.2,22.1 -1.3,19.5 7.7,34.7 19.4,49.2 5.9,7.3 12.5,14.1 18.4,21.5 5.7,7.1 12.7,12 20.4,16.4 18.8,10.7 38.9,18.6 59.3,25.8 9.4,3.3 18.5,7.4 28.4,9.2 6.4,1.2 12.4,3.6 18.9,4.2 2.2,0.2 4.6,0.9 6.3,2.7 0,0 0,0 0,0 1.6,0.4 3.3,0.7 4.9,1.1 1.4,0.2 2.7,0.4 4.1,0.6 0.6,0 1.2,0.1 1.8,0.2 0.2,0.1 0.4,0.1 0.6,0.2 13.1,2 26.1,3.9 39.1,6.4 10.4,2 21.1,2.1 31.5,4.5 16.7,3.8 33.6,5.6 50.6,7.1 6.8,0.6 13.6,1.1 20.4,1 4.6,-5.8 8.3,-6.9 15.1,-4.1 2.8,1.1 5.7,2.1 8,3.9 15.4,11.5 31.8,21.9 43.3,37.9 2.1,3 4.9,5.4 7.8,7.6 9.7,7.3 17.4,16.8 26.7,24.7 5.3,4.5 9.1,10.9 14.2,15.9 12.5,5.3 24.8,11.1 37.5,15.8 10.2,3.8 20.1,8.7 31,10.7 10.4,1.9 20.9,3.2 31.3,5.1 10.8,2 21.8,3.5 32.9,4.7 11.3,1.2 22.6,0.5 33.8,0.8 2.8,0.1 5.7,-0.4 8.3,1 0,0 0,0 0,0 0.5,-10.8 0.2,-21.6 -2.5,-32.2 -4,-15 -8.8,-30.4 -8,-46.8 z M 1715.3,827.4 c 13,-10.1 27.7,-15.7 44,-16.9 7.1,-0.6 13.9,1.1 20.3,4.3 20.2,9.9 35.5,34.6 35.6,56.9 0,25.9 -22,51.3 -47.9,54.6 -25,3.2 -45.5,-6.6 -62.7,-24.1 -2.6,-2.7 -3.9,-6.1 -2.9,-10.1 1.7,-6.7 -2,-12.7 -3,-19 -2.9,-18.3 1.4,-33.8 16.6,-45.7 z m -402.2,164.7 c -11.3,10.3 -25,13.2 -40,9.5 -4.8,-1.2 -9.8,-2 -14.6,-3.3 -18.7,-4.8 -31.9,-16.2 -36.6,-34.9 -4.7,-18.9 1.2,-43.2 23.3,-55.1 16.4,-8.9 33.5,-12.8 51.9,-8.7 22.2,4.9 37.7,26.3 37.8,48.6 0.8,21.1 -9.9,33 -21.8,43.9 z"
           id="path12"
           inkscape:connector-curvature="0"
           style="fill:#d6af8a" /><path
           class="st0"
           d="m 2078,775.5 c -8.1,-17.3 -22.7,-23.2 -39.9,-18.9 -11.5,2.9 -23.1,6.1 -34.5,9.6 -4.8,1.5 -9.3,3.5 -13,7.1 -3.5,3.4 -7.6,5.8 -11.9,8.1 -4.2,2.3 -8.8,4 -12.6,7 16.4,14.2 21.5,32.2 17.6,53 -1.7,8.8 -8.2,15.2 -14,21.5 -8.1,8.6 -16.8,16.6 -27.8,21.5 l 0,0 c 3,2.1 6,4.1 8.8,6.4 5.4,4.4 7,10.8 4,16.5 -1.3,2.5 -3.2,4.6 -4.9,6.9 4.3,3.1 9.2,5.6 12.7,9.4 13.3,15 29.5,27.4 39.6,45.2 4.2,7.3 10.9,13.3 12.2,22 1.1,7.7 2.1,15.3 1.2,23.2 -0.7,6.1 -0.7,12.3 -0.3,18.4 0.4,6.5 -1.7,12.1 -5.2,17.3 -2.9,4.2 -5.9,8.4 -8.9,12.5 0,0 0,0 0,0 0.2,0.6 0.5,1.2 0.7,1.9 7.7,-7.4 15.4,-14.7 23,-22.2 6,-5.8 10.1,-12.8 11.5,-21.1 2.3,-13.6 2.4,-27.3 0.1,-40.8 -3.8,-22.7 0.9,-42.9 15.1,-60.9 4.1,-5.2 7.8,-10.8 10.1,-17.1 9.4,-25.2 18.1,-50.6 22.1,-77.4 2.5,-16.8 1.7,-33.3 -5.7,-49.1 z"
           id="path14"
           inkscape:connector-curvature="0"
           style="fill:#d6af8a" /><path
           class="st0"
           d="m 989.7,1119.3 c -6.7,-5.3 -14.2,-9.4 -22.1,-12.5 -10.6,-4.2 -20.2,-10.1 -29.9,-15.9 -5.1,-3.1 -9.9,-7.2 -14,-11.9 -9.1,-10.5 -15.8,-22.5 -21.6,-35.1 -6.5,-14 -6.8,-27.7 -1.2,-42 2.5,-6.4 7.1,-11.5 10,-17.6 -14.4,-17.7 -34.7,-16.8 -44.2,2.8 -7.3,15 -11.8,31 -12.8,47.8 -1.1,18.3 -0.2,36.6 -2,54.9 -1,10.3 -2.3,20.6 0,30.8 2.1,9.3 7,17.6 11,26.1 16.4,34.5 41.7,60.1 77.1,75.2 16.3,6.9 32.5,14.2 48.8,21.3 l 0,0 c -2.2,-13.3 -0.3,-26.6 0.3,-39.8 0.5,-11.7 1,-23.5 3.4,-35.1 2.3,-11.2 4.8,-22.4 4.5,-34 0,-6.4 -2.4,-11.1 -7.3,-15 z"
           id="path16"
           inkscape:connector-curvature="0"
           style="fill:#d6af8a" /></g><g
         id="g18"><path
           class="st1"
           d="m 1245,1231.3 c -0.6,2.9 -3.7,3.1 -5.3,4.9 -7.5,8.8 -16.2,16.7 -18.9,28.7 -0.9,4.2 -2.9,8.1 -4.7,12 -6.4,13.7 -9.6,28.4 -13.6,42.9 -2.1,7.9 -2.8,15.9 -5.1,23.7 -0.4,1.4 -0.4,3 -0.5,4.4 -0.3,9.1 0.7,18.3 -1,27.4 -1,5.5 1.9,10.8 1.8,16.2 -0.4,10.8 1.1,21.5 2.3,32.2 0.7,6.2 2.8,12.2 4.3,18.3 0.3,1.2 0.8,2.2 -0.4,3.1 l 0,0 c 3,2.9 6.2,5.5 8.8,8.7 5.2,6.3 12.2,10.2 19,14.3 4.6,2.8 8.5,0 7.7,-5.3 -1.8,-12.7 -3.1,-25.4 -4,-38.2 -1.8,-25.9 -4,-51.8 1.4,-77.5 6.2,-29.6 12,-59.2 29.4,-84.9 2.6,-3.8 2.1,-7.5 -0.2,-11.2 -5.3,-8.2 -11.8,-15.4 -21,-19.7 z"
           id="path20"
           inkscape:connector-curvature="0"
           style="fill:#d4dade" /><path
           class="st1"
           d="m 2026.3,1256.8 c -3.1,-10.4 -7.6,-20 -12.8,-29.4 -3.7,-6.6 -7.8,-13.1 -12.5,-19 -6.3,-7.9 -11.7,-16.4 -19.8,-22.8 -4.9,-3.8 -10.2,-7.9 -13.9,-12.7 -7.4,-9.7 -15.8,-18.2 -25.4,-25.5 -1.8,-1.4 -3.2,-3.4 -4.8,-5.1 -10.3,-11.2 -20,-23.1 -33.2,-31.2 -1.3,-0.8 -2.4,-1.8 -3,-3.2 -4.7,4.4 -7.5,10 -10.6,15.5 -2.5,4.3 -2,8 0.5,12 6.2,10.1 13.6,19.4 22.5,27.1 9.6,8.3 19.5,16.1 29.4,24 37.7,30.4 66.3,66.8 77.7,115 0.2,1 0.3,2.4 1.8,2.7 1.9,0.3 2.2,-1.2 2.6,-2.4 2.7,-7.4 5.7,-14.8 7.1,-22.7 l 0,0 c -1.5,-7.5 -3.4,-14.9 -5.6,-22.3 z"
           id="path22"
           inkscape:connector-curvature="0"
           style="fill:#d4dade" /></g><path
         class="st2"
         d="m 1155.1,877.2 c 0.8,-1.5 1.7,-2.7 1.5,-4.6 -0.6,-6 1.9,-11.6 2.4,-17.5 0.2,-2.1 1,-4.2 0.5,-6.4 -0.7,-3.1 -0.2,-5.9 0.9,-8.8 1.7,-4.7 0.8,-7.8 -3.2,-11 -2.2,-1.8 -4.6,-3.3 -6.7,-5.2 -2.5,-2.2 -9.4,-1 -10.5,2.1 -1.6,4.7 -5.1,6.4 -9.2,7.4 -4.7,1.2 -8.4,3.2 -9.3,8.4 -0.2,1.3 -1.1,2.4 -2.1,3.3 -3.5,3.3 -5.8,7.1 -7.2,11.7 -1.2,4 -4.3,6.8 -8.7,7.3 -1.1,0.1 -2.9,0.2 -2.5,-1.9 -0.8,0.5 -1,1.2 -0.9,2.1 0.7,1.5 1.4,3 -1.4,2.9 l 0,0 0,0 c -0.7,0.5 -0.7,1.2 -0.7,1.9 0.2,3.7 -0.2,7.3 -2.6,10.3 -1,1.3 -1.9,2.6 -1,4 1.1,1.7 2.8,0.3 4.1,0.3 1.7,0 2.9,-1.3 2.3,-3.1 -1.1,-3.4 0.3,-3.8 3.1,-2.9 0.7,0.2 1.4,0.2 1.9,0 0.3,-0.3 0.6,-0.7 0.9,-1 0.1,-0.4 0.2,-0.8 0.1,-1.2 -0.7,-2.9 1.3,-6 -0.8,-8.7 -0.4,-0.6 -0.6,-1.1 -0.1,-1.8 0.7,-1.2 10.2,-4.4 11.3,-3.6 3.5,2.5 8.5,3.7 8,9.5 -0.1,1.3 0.9,2.2 1.8,2.8 4.1,2.8 7.7,5.4 6.7,11.5 -0.3,1.9 3.4,2 5.3,3 0,0 0,0 0,0 0,0 0,0 0,0 4.4,0 8.9,-0.6 12.9,2 -0.8,-4.5 0.9,-8.7 3.2,-12.8 z"
         id="path24"
         inkscape:connector-curvature="0"
         style="fill:#d1a886" /><path
         class="st2"
         d="m 1157.8,875.9 c 1,-0.8 0.6,-1.8 0.3,-2.7 -1.8,-5.9 2.4,-11.1 2,-17 -0.2,-2.4 1.4,-5.5 0.6,-8.1 -0.9,-2.7 -0.2,-4.9 0.7,-7.2 2.3,-6.3 1.3,-9.7 -4.2,-13.5 -2,-1.4 -4.2,-2.5 -5.9,-4.5 -2.2,-2.7 -12.1,-1.5 -12.6,1.8 -0.8,6.6 -5.9,6.5 -10.2,8 -3.7,1.3 -7.7,2.3 -7.7,7.6 0,1.3 -1.1,2.9 -2.2,3.8 -3.8,3.4 -6.3,7.3 -7.7,12.4 -1.3,5.1 -5.8,7.2 -10,5.7 -0.3,2.2 1.4,2.1 2.5,1.9 4.4,-0.5 7.4,-3.3 8.7,-7.3 1.4,-4.6 3.7,-8.5 7.2,-11.7 1,-0.9 1.9,-2 2.1,-3.3 1,-5.2 4.6,-7.2 9.3,-8.4 4.1,-1 7.6,-2.7 9.2,-7.4 1,-3.1 7.9,-4.2 10.5,-2.1 2.2,1.8 4.5,3.4 6.7,5.2 4,3.2 4.9,6.2 3.2,11 -1.1,2.9 -1.6,5.7 -0.9,8.8 0.5,2.1 -0.3,4.3 -0.5,6.4 -0.4,5.9 -3,11.5 -2.4,17.5 0.2,1.8 -0.7,3.1 -1.5,4.6 -2.3,4.1 -4,8.3 -3.1,13.1 2.1,-4.9 1.2,-10.9 5.9,-14.6 z"
         id="path26"
         inkscape:connector-curvature="0"
         style="fill:#d1a886" /><path
         class="st3"
         d="m 1132.3,882.5 c -0.1,-2.4 -1,-4.1 -2.9,-5.4 -2.8,-1.9 -4.7,-4.2 -5.6,-7.8 -1.6,-6.1 -10.2,-8.3 -15,-4.3 -1.3,1.1 -1,2.3 -0.9,3.6 0.2,2.5 1.1,5.9 -0.3,7.3 -0.3,0.3 -0.6,0.6 -0.9,0.9 -0.2,0.5 -0.5,0.8 -0.9,1 -2.3,2.6 -4.5,5.5 -7.7,7.1 -1.4,0.7 -3.4,0.7 -4.5,-1 -1,-1.4 -0.6,-2.9 0.3,-4.2 2.4,-3.2 2.8,-7 3.9,-10.6 -3.5,6.5 -6.5,13.2 -8.9,20.2 4.9,0.7 9.8,2.5 14.9,0.2 2.8,-1.3 6.1,-1.1 9.1,0 2.1,0.8 3.9,0.9 6,-0.4 2.9,-1.7 4.6,-0.5 3.6,2.9 -0.7,2.5 -0.5,3.5 2.4,2.5 2.8,-0.9 3.8,2.3 6,2.8 l 0,0 0,0 c 1.6,-4 3.9,-7.3 8.1,-9 -5.6,0 -6.4,-0.5 -6.7,-5.8 z"
         id="path28"
         inkscape:connector-curvature="0"
         style="fill:#cea585" /><path
         class="st3"
         d="m 1133.8,885.3 c 1,-6.1 -2.6,-8.7 -6.7,-11.5 -0.9,-0.6 -1.9,-1.5 -1.8,-2.8 0.4,-5.8 -4.6,-7 -8,-9.5 -1.2,-0.8 -10.6,2.4 -11.3,3.6 -0.4,0.7 -0.3,1.2 0.1,1.8 2.1,2.7 0.1,5.8 0.8,8.7 0.1,0.4 0.1,0.8 -0.1,1.2 0.3,-0.3 0.6,-0.6 0.9,-0.9 1.4,-1.3 0.5,-4.8 0.3,-7.3 -0.1,-1.3 -0.4,-2.5 0.9,-3.6 4.9,-4 13.5,-1.8 15,4.3 0.9,3.6 2.8,5.9 5.6,7.8 1.9,1.3 2.8,3 2.9,5.4 0.3,5.2 1.1,5.8 6.8,5.8 0,0 0,0 0,0 -2,-0.9 -5.7,-1.1 -5.4,-3 z"
         id="path30"
         inkscape:connector-curvature="0"
         style="fill:#cea585" /><path
         class="st3"
         d="m 1093.7,883.9 c 1.1,1.7 3.1,1.6 4.5,1 3.2,-1.6 5.4,-4.4 7.7,-7.1 -0.5,0.2 -1.1,0.2 -1.9,0 -2.8,-0.9 -4.2,-0.6 -3.1,2.9 0.6,1.8 -0.7,3 -2.3,3.1 -1.4,0 -3.1,1.4 -4.1,-0.3 -0.9,-1.5 0,-2.8 1,-4 2.3,-3 2.8,-6.6 2.6,-10.3 -1.2,3.6 -1.6,7.4 -3.9,10.6 -1.1,1.2 -1.5,2.7 -0.5,4.1 z"
         id="path32"
         inkscape:connector-curvature="0"
         style="fill:#cea585" /><g
         id="g34"><path
           class="st4"
           d="m 1742.3,1461.7 c -5,-3.9 -9.4,-8.4 -14.1,-12.6 -14.3,-12.5 -29.8,-22.9 -49.2,-25.8 -31.2,-4.7 -62.3,-10.2 -92.7,-18.7 -37.5,-10.6 -75.4,-16 -114.3,-12.2 l 0,0 c 4.1,1.7 8.1,3.7 12.3,5.1 18.8,6.3 36.1,16.3 55,22.6 15.4,5.1 30.6,11 46.2,15.3 22.5,6.2 45,12.5 67.4,18.7 0.1,-0.1 0.2,-0.2 0.3,-0.2 13.2,-11.4 38.3,-5.1 43.8,12.2 0,0.1 0.1,0.2 0.1,0.3 14,0.4 24.5,8.1 34.2,16.9 8.5,7.7 15.6,16.6 20.6,27 0,0 0,0 0,0 0,-9.2 0.4,-18.3 0,-27.5 -0.3,-8.2 -3,-15.9 -9.6,-21.1 z"
           id="path36"
           inkscape:connector-curvature="0"
           style="fill:#d7d7d7" /><path
           class="st4"
           d="m 1414.2,1358.4 c -3.7,-1.7 -7.3,-4.3 -11.5,-4.4 -23.9,-0.4 -47.8,-0.6 -71.8,-0.7 -14.3,-0.1 -28.6,-0.1 -42.9,0.2 -16.1,0.4 -18,2.7 -16.9,18.8 1.3,-0.3 2.5,-1 3.8,-0.9 17.6,0.2 35.2,-0.8 52.8,-1.9 23.1,-1.6 46.2,1.6 69.3,2.1 5.6,0.1 11.2,0.3 16.8,0 9.6,-0.5 17.8,4.1 26.3,7.6 10.6,0 21.2,0 31.8,0 -3.1,-2.3 -6.3,-3.6 -9.5,-4.8 -16,-6 -32.7,-9.1 -48.2,-16 z"
           id="path38"
           inkscape:connector-curvature="0"
           style="fill:#d7d7d7" /><path
           class="st4"
           d="m 1790,1582.7 c 0.4,-19.5 -0.9,-38.8 -8.7,-57.2 -3,-7.1 -4.9,-14.8 -9.2,-21.3 -2.7,0.8 -2.5,-2.4 -4.1,-3 -0.3,1.3 -0.6,2.5 -0.8,3.8 -2.5,13.4 0.8,26.8 0,40.3 4.5,11.2 7.1,23 10,34.7 3.4,13.6 5.2,27.3 5.6,41.2 0.3,9.9 -1.2,19.8 -2.2,29.7 -0.2,2.1 -0.6,4.2 -0.6,6.4 l 0,0 0,0 c 5,-8.9 7.6,-18.6 9,-28.7 2.2,-15.3 0.6,-30.6 1,-45.9 z"
           id="path40"
           inkscape:connector-curvature="0"
           style="fill:#d7d7d7" /><path
           class="st4"
           d="m 1429.1,1736.3 c -16.1,0.1 -32.1,0 -48.8,0 3.8,6.2 7.2,12 11.7,17 0.8,-1.2 2,-1.2 3.1,-1 8.7,1.8 17.3,1.2 25.8,-1.2 0.8,-0.2 1.6,-0.6 2.2,0.2 3.4,-3.2 5.5,-7.4 8,-11.3 1.7,-2.6 1.3,-3.7 -2,-3.7 z"
           id="path42"
           inkscape:connector-curvature="0"
           style="fill:#d7d7d7" /><path
           class="st4"
           d="m 1665.8,1735.4 c -8.9,1.3 -17.8,2.1 -26.8,0.9 -2,-0.3 -5,-1.1 -6.1,0.8 -1.3,2.2 1.3,4.1 2.4,6 1.1,1.8 2.5,3.5 3.7,5.2 3.1,-1.9 6.5,-1.3 9.6,-0.5 7.4,1.9 14.8,1.4 22.2,1.6 1.7,0 3.7,-0.7 5.2,0.9 0,0 0,0 0,0 l 0,0 c 4,-4.4 7.2,-9.3 10.6,-14.7 -7.3,-0.1 -14,-1.2 -20.8,-0.2 z"
           id="path44"
           inkscape:connector-curvature="0"
           style="fill:#d7d7d7" /></g><path
         class="st5"
         d="m 1123.6,955.1 c 0.5,-9.9 -8.6,-15.7 -10,-24.7 -0.4,-2.2 -1.8,-2.8 -4.1,-3.3 -4.5,-1 -9.9,-0.8 -11.7,-6.7 -0.1,-0.5 -1.2,-1.1 -1.5,-1 -4,2 -8.4,-1.4 -12.4,1.3 -3,1.9 -6.1,-0.5 -9.2,-0.5 0,0 0,0 0,0 0,0 0,0 0,0 -1.2,1.4 -2.4,2.9 -2.8,4.8 1.6,0.3 2.9,5.1 5.1,0.3 0.6,-1.3 2.7,-0.9 4.2,-0.7 5.5,0.4 10.8,1.5 15.9,3.8 1.8,0.8 3.7,1.9 5.6,1.9 7.1,-0.1 9.5,4.6 11.5,10.2 3.4,9.7 8.6,19.1 7,30 6.2,-1.6 4.7,-6.7 4.9,-11.1 0,0 0,0 0,0 0,0 0,0 0,0 -1.5,-1.1 -2.6,-2.9 -2.5,-4.3 z"
         id="path46"
         inkscape:connector-curvature="0"
         style="fill:#ad776b" /><path
         class="st5"
         d="m 1114.1,940.4 c -2,-5.6 -4.4,-10.3 -11.5,-10.2 -1.9,0 -3.8,-1.1 -5.6,-1.9 -5.1,-2.3 -10.4,-3.4 -15.9,-3.8 -1.5,-0.1 -3.6,-0.6 -4.2,0.7 -2.1,4.9 -3.4,0.1 -5.1,-0.3 0,0 0,0 0,0 0.4,0.9 0.5,2 1.1,2.7 1,1 0.9,3.4 2.9,2.9 1.9,-0.4 1.4,-1.8 0.9,-3.5 -0.5,-1.8 1.6,-1.9 2.8,-1.6 5.8,1.2 11.8,1.4 17.3,4.2 2.7,1.4 5.8,2.8 9,2.6 2.9,-0.2 4.3,1 4.9,3.7 1.3,5.7 4.2,10.8 6,16.3 1.9,5.6 3.2,10.9 3.4,16.6 0,0.6 0.6,1.1 1,1.6 1.7,-11 -3.5,-20.3 -7,-30 z"
         id="path48"
         inkscape:connector-curvature="0"
         style="fill:#ad776b" /><path
         class="st6"
         d="m 1126.1,926 c -0.9,-5.4 -1.4,-10.2 -7.7,-13.8 -5.5,-3.1 -12.7,-4.8 -16.4,-10.9 -0.3,0 -0.7,0 -1,0 -1.9,0.3 -3.8,0.9 -5.8,1 -3.4,0.1 -6.9,-0.3 -9.8,2.3 -0.8,0.7 -1.8,0.8 -2.5,-0.3 -1.1,2.3 -2.2,4.7 -3.3,7 5.3,-0.9 10.7,-1.4 16.1,-1.1 2.8,0.2 4.4,1 6.4,3.3 2.4,2.7 6.3,4.9 9.9,5.6 5.4,1.1 8.1,4.4 9.8,8.8 1.8,4.4 4.7,8.4 4.3,13.5 -0.1,0.9 1.1,2 1.6,2.9 -0.2,-4.4 1.7,-8.6 1.1,-13 -1.8,-1.2 -2.3,-3.1 -2.7,-5.3 z"
         id="path50"
         inkscape:connector-curvature="0"
         style="fill:#bf9079" /><path
         class="st7"
         d="m 1122.8,895.7 c -0.6,0.1 -1.4,-0.6 -1.3,-1.3 0.4,-5.3 -3.2,-2.9 -5.7,-3.4 -5.9,-1.2 -11.4,-0.3 -17.2,0.8 -3,0.5 -7,0.7 -9.5,-2.6 -1.6,2.4 -2.7,5.1 -3.4,7.9 2.9,0.9 5.7,1.7 8.5,-0.3 0.7,-0.5 2.2,-0.8 2.8,-0.4 4.6,3.1 10.8,2 15,6 0.8,0.8 1.8,1.5 3.1,1 5.1,-1.7 10.1,-0.6 13.2,3 1.6,-1 0,-3.3 1.6,-4.2 0.4,-1.7 0.8,-3.4 1.1,-5 -2.9,0.5 -5.3,-1.7 -8.2,-1.5 z"
         id="path52"
         inkscape:connector-curvature="0"
         style="fill:#cba082" /><path
         class="st7"
         d="m 1125,894.5 c -2.9,1 -3.1,0 -2.4,-2.5 1,-3.4 -0.7,-4.6 -3.6,-2.9 -2.2,1.3 -3.9,1.2 -6,0.4 -3,-1.2 -6.3,-1.3 -9.1,0 -5.1,2.3 -9.9,0.5 -14.9,-0.2 2.5,3.3 6.5,3.1 9.5,2.6 5.8,-1 11.3,-1.9 17.2,-0.8 2.6,0.5 6.1,-2 5.7,3.4 -0.1,0.7 0.7,1.4 1.3,1.3 2.9,-0.2 5.3,2 8.2,1.5 l 0,0 c -2.2,-0.5 -3.2,-3.7 -5.9,-2.8 z"
         id="path54"
         inkscape:connector-curvature="0"
         style="fill:#cba082" /><path
         class="st8"
         d="m 1124.9,940.4 c -0.5,-4.8 -2.8,-8.9 -4.7,-13.1 -1.6,-3.4 -4.2,-5.8 -8.1,-6.8 -3.9,-1 -7.5,-3.2 -10.3,-5.8 -3.2,-3.1 -6.6,-3.3 -10.4,-3.4 -3.9,0 -7.8,1.5 -11.7,-0.1 -0.9,1.7 -2.7,2.9 -2.7,5.1 10.8,-4.6 20,-1.4 28.3,5.8 1.5,1.4 3,2.7 5.3,1.9 4.7,-1.7 4.8,2 5.8,4.9 2.4,7 4.4,14.3 11.5,18.4 0,-1 0.1,-2 0.1,-3 -2.6,-0.2 -2.9,-2.2 -3.1,-3.9 z"
         id="path56"
         inkscape:connector-curvature="0"
         style="fill:#b78573" /><path
         class="st8"
         d="m 1121.9,927.8 c -1.8,-4.4 -4.4,-7.7 -9.8,-8.8 -3.6,-0.7 -7.5,-2.9 -9.9,-5.6 -2,-2.3 -3.5,-3.1 -6.4,-3.3 -5.5,-0.4 -10.8,0.1 -16.1,1.1 3.9,1.6 7.8,0.1 11.7,0.1 3.9,0 7.2,0.3 10.4,3.4 2.7,2.6 6.4,4.8 10.3,5.8 3.9,1 6.5,3.4 8.1,6.8 2,4.2 4.2,8.3 4.7,13.1 0.2,1.7 0.5,3.8 3,3.9 -0.6,-1 -1.7,-2 -1.6,-2.9 0.4,-5.2 -2.6,-9.2 -4.4,-13.6 z"
         id="path58"
         inkscape:connector-curvature="0"
         style="fill:#b78573" /><g
         id="g60"><path
           class="st9"
           d="m 1577.8,616 c 0.8,-1 2.1,-1.6 1.4,-3.4 -1.7,-4.2 -0.9,-9.5 -5.3,-12.5 -16.1,1.2 -31.3,6.5 -46.8,10.3 0,0 0,0 0,0 3,7.1 6,14.3 9,21.4 0.4,0.9 1,1.2 1.8,1.5 3.7,1.4 5.3,4.4 5.9,8 0.3,2 1.2,2.6 3.1,3 10.2,2 19.8,-0.6 29.3,-3.3 3.6,-1 4.9,-7.2 2.2,-10.1 -4.6,-4.9 -4.8,-9.6 -0.6,-14.9 z"
           id="path62"
           inkscape:connector-curvature="0"
           style="fill:#b07c68" /><path
           class="st9"
           d="m 1304,505.2 c -5.9,1.4 -10.9,4.1 -14.1,9.6 -1,1.8 -3.3,1.2 -4.9,1.7 -1.8,0.6 -4.1,0.4 -5,2.7 l 0,0 c 13,13.4 25.4,27.3 38.8,40.2 5.3,-0.6 9.8,-3.2 10.5,-8.4 0.7,-5.3 3.5,-6.2 7.6,-6.7 -9.5,-14.2 -21,-26.8 -32.9,-39.1 z"
           id="path64"
           inkscape:connector-curvature="0"
           style="fill:#b07c68" /><path
           class="st9"
           d="m 1562.9,506 c 0,0 0,0 0,0 -2.9,-9 -6.9,-11.2 -18,-9.8 -11.8,11.7 -22,24.8 -32,38 2.2,5.9 5,11.2 12.2,12.1 13.5,-12.5 25.6,-26.5 37.8,-40.3 z"
           id="path66"
           inkscape:connector-curvature="0"
           style="fill:#b07c68" /><path
           class="st9"
           d="m 1364.5,683.2 c -3.2,-0.4 -6.1,-2.5 -6.8,-5.2 -1,-3.9 -2.8,-2.1 -4.7,-1.7 -6.2,4.8 -13.8,7.2 -19.8,12.2 0,0 0,0 0,0 1.7,1.3 3.3,2.8 3.8,5 0.2,1 0.7,2.5 1.6,2.2 4.1,-1.3 7.9,1.5 11.5,0.8 5.3,-1.1 10.6,-2.6 15.4,-5.5 1.5,-0.9 2.8,-1.8 2.5,-3.8 -0.4,-2 -0.8,-3.7 -3.5,-4 z"
           id="path68"
           inkscape:connector-curvature="0"
           style="fill:#b07c68" /><path
           class="st9"
           d="m 1604.2,441.2 c -7.1,0.4 -11.1,5.3 -15.4,9.9 0,0 0,0 0,0 0.7,4.3 3.1,7.2 6.9,9.1 7.9,3.9 13.5,2 20.2,-6.9 0.8,-9.9 -1.9,-12.6 -11.7,-12.1 z"
           id="path70"
           inkscape:connector-curvature="0"
           style="fill:#b07c68" /><path
           class="st9"
           d="m 1262.8,456.7 c -4.2,-3.3 -8.9,-2.7 -12.3,1.4 -4.4,5.4 -4.6,11.1 -1.2,17.1 0,0 0,0 0,0 11.5,3.9 17.8,0.4 20.6,-11.6 -1.9,-2.9 -4.5,-4.9 -7.1,-6.9 z"
           id="path72"
           inkscape:connector-curvature="0"
           style="fill:#b07c68" /><path
           class="st9"
           d="m 1425.2,696.1 c -4.5,0.7 -7.6,-1.5 -8.9,-6 -0.4,-1.2 -0.3,-2.5 -0.5,-3.8 -0.2,0.1 -0.4,0.3 -0.6,0.4 -0.1,0.1 -0.1,0.3 -0.1,0.5 0.5,3.7 -1.8,6.5 -3.4,9.5 -2.3,4.1 -5.2,7.9 -6.7,12.5 1.9,1.6 3.9,2.5 6.2,1 4.4,-2.9 8.3,-1.7 12.1,1.2 0,0 0,0 0,0 0,0 0,0 0,0 4,-3.7 6.6,-8.3 9.1,-13 -2.1,-2 -4.3,-2.7 -7.2,-2.3 z"
           id="path74"
           inkscape:connector-curvature="0"
           style="fill:#b07c68" /><path
           class="st9"
           d="m 1301.2,633.5 c 0,0 0,0 0,0 1,2.6 1.9,5.1 1.1,8.1 -1.9,6.7 -1.6,6.8 5.5,7.7 1,0.1 2.1,0 2.9,0.4 7.7,3.6 9.4,-3.6 12.8,-7.2 2.2,-2.4 -0.8,-4.7 -1.5,-7 -7,-0.5 -13.8,-2.4 -20.8,-2 z"
           id="path76"
           inkscape:connector-curvature="0"
           style="fill:#b07c68" /><path
           class="st9"
           d="m 1496.9,687.5 c -4,-5.5 -9.8,-9 -14.9,-13.2 0,0 0,0 0,0 -3.3,5 -6.1,10.4 -13.1,11.1 6.5,4 13.2,7.5 20.1,10.8 1,-1.5 2.1,-2.9 4.2,-2.9 4,-0.2 4.5,-2.6 3.7,-5.8 0,0 0,0 0,0 z"
           id="path78"
           inkscape:connector-curvature="0"
           style="fill:#b07c68" /></g><path
         class="st10"
         d="m 1888,788.1 c -0.4,-0.9 -1.1,-1.7 -0.5,-2.8 4.1,-7.1 3.6,-13.8 -1.4,-20.3 0,0 0,0 0,0 0,0 0,0 0,0 -5.3,-1.6 -10.8,-2.5 -17.1,-3 5,8.7 9.6,16.6 14.2,24.6 1.1,2.1 3,1.8 4.8,1.5 z"
         id="path80"
         inkscape:connector-curvature="0"
         style="fill:#b17e6f" /><path
         class="st11"
         d="m 1123,945.1 c -3.3,-5.1 -7,-10.1 -8.1,-16.4 -0.4,-2.2 -1.4,-3.9 -3.9,-3.5 -3.1,0.4 -5.5,-1 -7.6,-2.9 -7,-6.2 -14.9,-8.4 -24,-5.5 -0.8,0.3 -1.6,0.1 -2.3,-0.5 l 0,0 0,0 c -0.8,1.3 -1.6,2.6 -2.3,3.9 7,-0.9 13.9,-2 21,-1.9 1.2,0 2.4,0.4 3,1.5 2.4,4.6 6.9,5.4 11.3,6.2 2.6,0.5 4.3,1.8 5,4.2 1.6,5.3 3.8,10.2 7.5,14.4 1.5,1.8 1.5,4.3 1.9,6.6 0.5,2.7 0.5,5.6 1.8,8.2 0.6,-4 1.2,-8 1.7,-12 -2.6,1.1 -4,-0.7 -5,-2.3 z"
         id="path82"
         inkscape:connector-curvature="0"
         style="fill:#b17d6e" /><path
         class="st11"
         d="m 1122.4,944.5 c -3.6,-4.3 -5.8,-9.2 -7.5,-14.4 -0.7,-2.4 -2.4,-3.7 -5,-4.2 -4.4,-0.8 -8.9,-1.6 -11.3,-6.2 -0.6,-1.1 -1.8,-1.4 -3,-1.5 -7.1,-0.1 -14,1 -21,1.9 0,0 0,0 0,0 3.1,0 6.2,2.5 9.2,0.5 4,-2.6 8.4,0.7 12.4,-1.3 0.3,-0.1 1.4,0.5 1.5,1 1.8,5.9 7.2,5.8 11.7,6.7 2.3,0.5 3.8,1.1 4.1,3.3 1.4,9 10.5,14.9 10,24.7 -0.1,1.4 1,3.1 2.5,4.2 0,0 0,0 0,0 -1.3,-2.6 -1.3,-5.4 -1.8,-8.2 -0.3,-2.1 -0.3,-4.7 -1.8,-6.5 z"
         id="path84"
         inkscape:connector-curvature="0"
         style="fill:#b17d6e" /><path
         class="st11"
         d="m 1116.3,928.9 c -1,-2.9 -1.1,-6.6 -5.8,-4.9 -2.3,0.8 -3.7,-0.5 -5.3,-1.9 -8.3,-7.3 -17.5,-10.4 -28.3,-5.8 l 0,0 c 0.7,0.6 1.5,0.7 2.3,0.5 9.1,-2.9 17,-0.7 24,5.5 2.1,1.9 4.5,3.3 7.6,2.9 2.5,-0.3 3.5,1.3 3.9,3.5 1.2,6.2 4.8,11.2 8.1,16.4 1,1.6 2.4,3.3 4.9,2.1 -7,-4 -9,-11.3 -11.4,-18.3 z"
         id="path86"
         inkscape:connector-curvature="0"
         style="fill:#b17d6e" /><path
         class="st5"
         d="m 1890.6,781.7 c -0.7,2.2 -1.5,4.4 -2.6,6.4 2.7,0 5.4,0 8.1,0 l 0,0 0,0 c 5.5,-5.5 3.6,-11.3 0.6,-17.1 -0.7,-1.4 -2.1,-2.7 -1.6,-4.5 -3,-0.5 -6,-0.9 -9,-1.4 5.3,4.3 6.8,9.6 4.5,16.6 z"
         id="path88"
         inkscape:connector-curvature="0"
         style="fill:#ad776b" /><path
         class="st5"
         d="m 1887.5,785.4 c -0.6,1 0.1,1.9 0.5,2.8 1.1,-2 1.8,-4.2 2.6,-6.4 2.4,-7 0.9,-12.3 -4.5,-16.6 0,0 0,0 0,0 5,6.3 5.5,13.1 1.4,20.2 z"
         id="path90"
         inkscape:connector-curvature="0"
         style="fill:#ad776b" /><path
         class="st5"
         d="m 1896.7,771 c 3,5.8 4.9,11.6 -0.6,17.1 l 0,0 c 4.7,-1.2 5.3,-4.7 4.8,-8.7 -0.6,-4.9 -2.6,-9.1 -5.8,-12.9 -0.5,1.9 0.8,3.1 1.6,4.5 z"
         id="path92"
         inkscape:connector-curvature="0"
         style="fill:#ad776b" /><path
         class="st12"
         d="m 1129.5,904.7 c 0.1,2.8 -0.7,3.2 -3.1,1.7 -3.4,-2.1 -7,-3.9 -11.2,-2.1 -1.2,0.5 -2.4,0.2 -3.3,-0.5 -3.9,-3.2 -9.1,-3.1 -13.3,-5.2 -1.9,-1 -3.9,-0.5 -5.8,0.2 -2.7,0.9 -5.2,1 -7.2,-1.6 -0.2,0.7 -0.4,1.4 -0.6,2.1 4,0.5 7.9,1 11.9,1.5 1.3,-0.1 2.5,-0.2 3.7,-0.4 0.5,0 1,0.1 1.5,0.2 0.7,0.5 1.4,1 2,1.5 4.7,1.7 9.1,4 13.5,6.3 3,1.6 5.8,4.2 9.1,0 1.2,5.2 -2.4,10.7 3.2,13.9 0,-6.6 0,-13.3 0,-19.9 -0.5,0.7 -0.4,1.5 -0.4,2.3 z"
         id="path94"
         inkscape:connector-curvature="0"
         style="fill:#c79b7f" /><path
         class="st12"
         d="m 1102,901.3 c 0.7,0.2 1.4,0.5 2,0.7 -0.7,-0.5 -1.4,-0.9 -2,-1.5 -0.5,-0.1 -1,-0.2 -1.5,-0.2 -1.2,0.2 -2.5,0.3 -3.7,0.4 1.4,0.2 2.8,0.4 4.2,0.5 0.4,0.1 0.7,0.1 1,0.1 z"
         id="path96"
         inkscape:connector-curvature="0"
         style="fill:#c79b7f" /><path
         class="st12"
         d="m 1128.2,906.5 c -3.1,-3.7 -8.1,-4.8 -13.2,-3 -1.3,0.4 -2.3,-0.3 -3.1,-1 -4.2,-4 -10.4,-2.9 -15,-6 -0.6,-0.4 -2.1,-0.1 -2.8,0.4 -2.8,2 -5.7,1.2 -8.5,0.3 2,2.6 4.5,2.4 7.2,1.6 1.9,-0.6 3.9,-1.1 5.8,-0.2 4.3,2.2 9.4,2 13.3,5.2 0.9,0.7 2.2,1 3.3,0.5 4.2,-1.7 7.8,0 11.2,2.1 2.4,1.5 3.3,1.1 3.1,-1.7 0,-0.8 -0.1,-1.7 0.3,-2.4 -1.6,1 0.1,3.2 -1.6,4.2 z"
         id="path98"
         inkscape:connector-curvature="0"
         style="fill:#c79b7f" /><g
         id="g100"><path
           class="st13"
           d="m 1159.2,1186.6 c 1.5,-2 3.6,-4 3.2,-6.5 -0.8,-5.3 0,-10.6 -1.1,-15.9 -0.9,-4.4 -2.1,-8.7 -1.5,-13.3 0.2,-1.3 1.7,-3.1 0.1,-4.1 -1.5,-1 -2.7,0.8 -3.9,1.5 -11.7,6.3 -23.9,9.7 -37.4,7.3 -6.1,-1.1 -9.1,-4.9 -10.6,-10.5 -1.7,-6.5 -0.7,-12.9 1.7,-19 5.2,-13.4 13.1,-25.4 21.5,-37 1.1,-1.5 2.9,-2.7 2.2,-5.6 -7.1,7.1 -15.1,12.1 -22.9,17.5 -5.5,3.8 -10.7,7.9 -15.4,12.7 -4.5,4.7 -9.7,4.9 -14.7,0.9 -4.8,-3.9 -5.6,-9.3 -2.1,-14.6 2.2,-3.3 5.1,-6.2 8.3,-8.5 17.5,-12.4 34.5,-25.6 52.7,-37 7.1,-4.4 7.5,-7.6 1.2,-13.6 -7.4,-7.1 -12.7,-15.3 -14.4,-25.6 -0.2,-1.2 0.3,-3 -1.2,-3.6 -1.9,-0.7 -2.5,1.3 -3.4,2.4 -11.1,13.8 -24.2,25.1 -39.7,33.7 -22.1,12.2 -45.5,16.1 -69.8,10.4 -13.3,-3.1 -25.8,-9.9 -39.2,-13.2 -13.6,-3.4 -23.7,-10.8 -32.3,-21.1 -2.9,-3.5 -5.8,-6.8 -8.8,-10.2 -8,-9 -13.2,-20 -21.1,-29.1 -2.9,6.1 -7.5,11.2 -10,17.6 -5.6,14.3 -5.4,28 1.2,42 5.9,12.6 12.5,24.5 21.6,35.1 4.1,4.7 8.8,8.7 14,11.9 9.6,5.9 19.3,11.7 29.9,15.9 7.9,3.1 15.3,7.2 22.1,12.5 4.9,3.9 7.3,8.6 7.4,14.9 0.3,11.6 -2.2,22.8 -4.5,34 -2.4,11.7 -2.9,23.4 -3.4,35.1 -0.6,13.2 -2.5,26.5 -0.3,39.8 3,2.1 6.4,4 7.7,7.6 6.5,17.9 18.1,32.5 30.5,46.5 14.7,16.6 33.1,25.8 55.6,26.1 17.9,0.2 35.4,-2.8 52.9,-6.4 3.6,-0.7 5.8,-2.7 6.5,-6.5 4.4,-22.3 11,-43.8 21.3,-64.1 1.3,-2.5 0.2,-3.9 -1.4,-5.7 -15.5,-17.7 -16.4,-35.3 -2.5,-54.3 z"
           id="path102"
           inkscape:connector-curvature="0"
           style="fill:#8e7964" /><path
           class="st13"
           d="m 1376.9,1058.3 c 0.3,-2.4 1.2,-4.4 2.2,-6.6 4.2,-9 12.1,-14.2 19.7,-20 25.3,-19.5 53.5,-32.8 84.2,-40.8 23.3,-6.1 47.3,-6.7 71.2,-7.5 19.5,-0.7 38.9,0.9 58.4,2.2 12.3,0.8 24.6,1.1 36.8,3.1 26.2,4.3 51.4,12 75.7,22.5 l 0,0 c -0.5,-4.9 1.7,-10.3 -2.3,-14.4 -6.1,-6.2 -13.1,-11.2 -21.6,-13.6 -6.7,-1.8 -13.6,-0.4 -20.3,-1.7 -6.9,-1.3 -11.5,-6.2 -11.9,-13.2 -0.3,-5.1 2,-9.3 4.3,-13.5 6.6,-11.9 1.9,-24.7 -10.4,-30.1 -5.5,-2.4 -11,-1.9 -16.6,-2.3 -5.8,-0.4 -11.8,-0.3 -17.1,-2.6 -9.5,-4.2 -12.1,-16.1 -5.8,-26.7 6.8,-11.5 2.2,-23.2 -6.9,-29.5 -5.3,-3.7 -11.1,-3.7 -17.1,-4.3 -14.6,-1.7 -29.2,-0.4 -43.6,1.1 -14.3,1.5 -28.6,2.7 -42.9,4.9 -16,2.5 -32.3,3.7 -48.1,7.9 -13.5,3.6 -26.3,9.3 -40.3,11.2 -11.2,1.5 -19.3,8.2 -25.3,17.6 -3.8,5.9 -3.1,11.4 1.8,16.2 2,2 4.4,3.6 6.6,5.3 9.6,7.1 9.7,14.4 -0.6,20.3 -6.4,3.7 -10.3,8.8 -12.4,15.5 -1.9,6.3 2.4,16.3 8.1,19.3 7.5,3.9 8.1,7.8 2.5,14.3 -4,4.6 -9.1,7.7 -13.9,11.3 -7.6,5.8 -17.5,7.4 -24.4,14.4 -5.3,5.4 -10.6,11.2 -10.6,19 0.1,12.4 7.6,19.5 20.6,20.7 z"
           id="path104"
           inkscape:connector-curvature="0"
           style="fill:#8e7964" /><path
           class="st13"
           d="m 1955,1507.2 c -2.6,-1.5 -5.5,-1 -8.3,-1 -11.3,-0.2 -22.5,0.4 -33.8,-0.8 -11,-1.2 -22,-2.6 -32.9,-4.7 -10.4,-1.9 -20.9,-3.2 -31.3,-5.1 -10.9,-2 -20.7,-6.9 -31,-10.7 -12.7,-4.7 -25,-10.5 -37.5,-15.8 0,0 0,0 0,0 1.5,1.8 2.9,3.6 4.5,5.3 17.8,17.8 27.6,39.9 32.6,64 2.7,13.1 1.1,26.9 1.1,40.4 0,21.9 -2.7,43.8 -7.4,65.3 -3.9,17.7 -9.8,34.6 -22.1,48.5 -6.5,7.5 -6.6,8.6 0.7,15.3 2.5,2.3 2.6,4.4 0.4,6.8 -1.9,2 -4,3.6 -6.9,3.6 -6.8,0 -13.3,-0.9 -19.1,-4.7 -8.7,-5.7 -18.8,-8.3 -28.2,-12.5 -0.9,-0.4 -1.9,-0.6 -2.9,-0.6 -1.1,-0.1 -2.5,-0.2 -3.2,0.9 -0.6,1 0.6,1.8 1.1,2.5 2.8,3.7 5.2,7.7 6.7,12.2 0.8,2.4 2.5,4.5 4.5,5.9 10.2,6.8 19.1,15.6 31,19.8 6.5,2.3 7.8,5.1 6.5,12 -0.5,2.5 -1.3,5.1 -0.4,7.4 3,8.3 6.4,16.4 10.6,24.2 0.9,1.7 2.5,3.3 4.9,2.5 2.2,-0.7 3,-2.5 3.2,-4.6 0.1,-1.3 0.2,-2.7 -0.1,-4 -2.3,-8.9 1.4,-16.7 4.4,-24.6 0.8,-2.1 2.2,-3.7 4.2,-4.8 5.3,-3.1 10.8,-6.2 16.9,-7.2 15.8,-2.7 27.5,-11.6 36.8,-23.8 9.8,-12.8 18.6,-26.4 27.2,-40.1 4.6,-7.3 10.9,-13.7 14.2,-21.7 2.5,-6.1 5.1,-12 9,-17.1 11,-14.5 17.2,-31.5 24.8,-47.7 1.2,-2.5 0.6,-3.8 -1.8,-4.5 -4.1,-1.2 -8.3,-2.4 -12.5,-3.4 -8.1,-1.9 -16.3,-0.5 -24.4,-1 -4,-0.3 -7.1,-1.8 -7.5,-6.4 -0.3,-4.6 2.5,-7.1 6.5,-7.3 14.1,-0.5 28.3,-1.2 41.8,4.5 1.5,0.7 3.5,2.4 4.9,0.3 1.5,-2.2 2.2,-4.9 1.6,-7.6 -0.5,-2.2 -2.6,-2.2 -4.4,-2.5 -4.4,-0.6 -8.9,-1.3 -13.3,-1.8 -8.9,-1 -17.2,-4.9 -26.3,-5.5 -7.8,-0.5 -15.1,1.8 -22.6,3.3 -4.2,0.8 -7.9,-0.4 -9,-5 -1.1,-4.6 1.5,-7.2 5.6,-8.6 13.3,-4.8 26.7,-6.1 40.6,-1.9 10.7,3.2 21.4,5.5 32.9,4 4.9,-0.6 6.2,-2.7 6.7,-6.7 1.5,-11.7 1.5,-23.3 1,-35 0,0 0,0 0,0 z"
           id="path106"
           inkscape:connector-curvature="0"
           style="fill:#8e7964" /><path
           class="st13"
           d="m 2014.3,990.8 c -1.2,-8.8 -8,-14.7 -12.2,-22 -10.1,-17.8 -26.3,-30.3 -39.6,-45.2 -3.4,-3.8 -8.4,-6.3 -12.7,-9.4 -9.1,7.1 -18.3,14.2 -27.9,21.6 6.7,1.6 12.5,3.7 17.5,7.2 5.2,3.6 6.8,10 4.2,15.9 -2.3,5.3 -8.4,9.5 -13.1,7.9 -9.8,-3.4 -20,-3.2 -30.1,-3.3 -6,-0.1 -10.9,-2.3 -15.2,-6.3 -1,-0.9 -1.6,-2.6 -4,-2.5 1.5,7.5 2.9,15 4.6,22.3 1.7,7.1 5.7,12.8 11.6,16.9 7.8,5.4 14,12.2 20.1,19.3 2.2,2.5 3.9,5.9 7.2,6.7 9.9,2.7 17.3,9.8 26.2,14.2 2.3,1.1 4,3.2 4.8,5.6 2.1,6.5 3.3,13.3 1.6,20.1 -2.7,10.5 -1.4,14.1 7.8,20 2.2,1.4 4.3,4.3 6.9,3.2 6.7,-2.8 14.2,-3.8 19.9,-8.7 1.8,-4.5 5.4,-7.6 8.4,-11.2 0.2,-0.3 0.4,-0.5 0.6,-0.8 0,0 0,0 0,0 0,0 0,0 0,0 3,-4.2 6.1,-8.3 8.9,-12.5 3.5,-5.2 5.6,-10.7 5.2,-17.3 -0.4,-6.1 -0.5,-12.4 0.3,-18.4 1.1,-7.9 0,-15.6 -1,-23.3 z"
           id="path108"
           inkscape:connector-curvature="0"
           style="fill:#8e7964" /><path
           class="st13"
           d="m 1505.8,1359.5 c -6.5,-0.6 -12.6,-3 -18.9,-4.2 -9.8,-1.8 -19,-5.8 -28.4,-9.2 -20.4,-7.2 -40.4,-15.1 -59.3,-25.8 -7.7,-4.4 -14.8,-9.3 -20.4,-16.4 -5.8,-7.4 -12.4,-14.1 -18.4,-21.5 -11.7,-14.5 -20.7,-29.8 -19.4,-49.2 -3.7,9.6 -8.2,18.8 -13.7,27.6 -1.9,3 -4,5.7 -7.2,7.4 -8.8,5 -17.3,11 -26.9,14.1 -11.5,3.8 -17.3,11.8 -21.4,22.3 -3.4,8.9 -6.5,17.7 -6.8,27.4 -0.1,2.6 0.7,3.6 3.4,3.4 6.3,-0.6 12.6,-1 18.9,-1.7 9.7,-1 19.6,-3.3 29.2,-0.3 10.2,3.2 20.4,1.8 30.6,1.2 9.2,-0.5 18.3,-3.7 27.7,-1.4 2.3,0.6 3.2,-1.1 4.2,-2.7 4.4,-6.4 7,-7.4 14.3,-5.2 3.3,1 6.5,2.5 9.7,3.8 8,3.4 15.7,7.4 24.3,8.9 3.9,0.7 7.5,1.7 10.6,4 4.2,3.1 9.1,4.8 14.1,6 6.4,1.6 12.9,3.3 19.3,4.8 13.6,3.1 27,6.9 40.7,9.2 0,0 0,0 0,0 l 0,0 c 0,0 0,0 0,0 -1.6,-1.6 -4,-2.3 -6.2,-2.5 z"
           id="path110"
           inkscape:connector-curvature="0"
           style="fill:#8e7964" /><path
           class="st13"
           d="m 1894.4,842.8 c -0.9,7.2 0.4,12 6.8,16.3 13.3,8.8 25.4,19.3 40.5,25.1 11,-4.9 19.8,-12.9 27.8,-21.5 5.9,-6.3 12.3,-12.6 14,-21.5 3.9,-20.8 -1.1,-38.8 -17.6,-53 -5.8,2.7 -10.5,6.9 -15.5,10.7 -12.4,9.4 -26.2,15 -42.1,14.1 -4.2,-0.2 -8.3,-0.1 -12.5,-0.1 -1.8,0 -3.8,0.4 -2.5,2.8 5,9.1 2.3,18.2 1.1,27.1 z"
           id="path112"
           inkscape:connector-curvature="0"
           style="fill:#8e7964" /><path
           class="st13"
           d="m 1872.9,1215.9 c 3.2,0.2 6.6,0.2 6.9,-4.3 0.3,-5.1 -1.3,-6.6 -6.8,-6.5 -17.6,0.2 -35.2,1.4 -52.8,3.1 -29.2,2.7 -57.9,7.8 -86,16.2 -1.6,0.5 -3.2,0.9 -4.8,0.9 -2.8,0.1 -4.1,-1.8 -4.7,-4.3 -0.6,-2.6 0.5,-4 3,-4.9 2.3,-0.9 4.8,-1.5 6.4,-3.6 0,0 0,0 0,0 -2.3,-0.5 -4.2,0.5 -6.2,1.4 -7.6,3.3 -14.2,8.5 -21.9,11.7 -8,3.3 -15.7,7.3 -22.9,12 -5.2,3.4 -7.1,8.1 -5.9,14.1 0.2,1.1 0.4,2.3 0.6,3.4 0,0 0,0 0,0 2.5,-1 4.9,-2 7.4,-2.9 41.9,-14.8 84.3,-27.3 128.4,-33.4 19.7,-2.8 39.5,-4.4 59.3,-2.9 z"
           id="path114"
           inkscape:connector-curvature="0"
           style="fill:#8e7964" /><path
           class="st13"
           d="m 1290.3,1246.4 c 0.3,3.7 2.4,4.8 5.9,2.8 2.8,-1.7 5.7,-3.3 8,-5.8 l 0,0 c -3.6,-2.2 -3.5,-6.6 -5.5,-9.7 -9.5,-14.8 -21.8,-26.8 -38.2,-33.5 -15.3,-6.2 -31.3,-9.1 -48.1,-5.4 -7.2,1.6 -14.2,4.4 -21.7,5.2 -2.7,0.3 -3.7,-0.3 -3.8,-2.9 -1.5,2.2 -3,4.3 -4.5,6.5 -1.7,2.4 -4,4.5 -4.8,7.5 -1.1,4 1.4,6.4 4.2,8.2 2.7,1.8 3,-1.7 4.2,-2.8 2.7,-2.5 5.6,-4.8 8.9,-6.3 24.5,-11.7 48.8,-10.7 71.8,3.5 11.9,7.4 22.1,17.2 23.6,32.7 z"
           id="path116"
           inkscape:connector-curvature="0"
           style="fill:#8e7964" /><path
           class="st13"
           d="m 1183.4,1132.4 c 4.2,-6.5 5.2,-14.3 8.1,-21.4 1.9,-4.8 -1.3,-13.4 -5.1,-15.6 -4.4,-2.6 -10.8,-1.4 -15.3,3.2 -3.7,3.9 -7.8,7.2 -12.2,10.2 -8.8,6.2 -16.6,13.8 -25.8,19.4 -1.2,1.7 -3.2,3.7 -1.8,5.7 1.5,2 3.6,-0.2 5.4,-0.7 4.8,-1.4 9.1,-3.9 13,-7 3.1,-2.5 6.1,-5.1 9.3,-7.4 3.5,-2.6 7.3,-2.9 11,-0.2 3.6,2.7 4.5,6.1 3.3,10.5 -1.1,3.9 -3.5,7 -6,11.6 5.6,-2.6 9.5,-0.1 13.5,1.7 -0.1,-3.6 0.7,-6.9 2.6,-10 z"
           id="path118"
           inkscape:connector-curvature="0"
           style="fill:#8e7964" /><path
           class="st13"
           d="m 1665.1,1383.3 c -6.8,0.1 -13.6,-0.4 -20.4,-1 -17,-1.4 -34,-3.3 -50.6,-7.1 -10.4,-2.4 -21,-2.5 -31.5,-4.5 -13,-2.5 -26,-4.4 -39.1,-6.4 -0.8,-0.1 -1.6,-0.3 -2.4,-0.4 -1.4,-0.2 -2.7,-0.4 -4.1,-0.6 0.7,0.3 1.4,0.8 2.2,1 12.3,2.9 24.6,5.6 36.8,8.7 36.2,9 72.1,19.5 109,25.9 1.7,0.3 3.4,0.8 5.8,0 -4.6,-4.6 -8.6,-9 -5.7,-15.6 z"
           id="path120"
           inkscape:connector-curvature="0"
           style="fill:#8e7964" /><path
           class="st13"
           d="m 1865,1096.8 c 2.8,-3 5.3,-6.4 8,-9.5 11.8,-13.2 23.4,-26.7 43.2,-27.2 3.3,-0.1 4.1,-2.3 2.7,-5.3 -1.8,-4 -5.7,-5.4 -9,-7.4 -8.9,2.6 -17.5,5.7 -25.5,10.7 -15.6,9.8 -27.3,22.5 -32.4,40.5 5.2,2.7 9.1,2.3 13,-1.8 z"
           id="path122"
           inkscape:connector-curvature="0"
           style="fill:#8e7964" /><path
           class="st13"
           d="m 1919,903.4 c -9.2,-5.4 -17.9,-10.5 -25.8,-16.9 -2.2,-1.8 -2.8,-0.3 -3.2,1.6 -1.8,10.1 -5.3,19.8 -7.6,29.9 -1.7,7.5 -3.5,15.1 -1.3,24.5 7.4,-19.2 24.4,-26.9 37.9,-39.1 z"
           id="path124"
           inkscape:connector-curvature="0"
           style="fill:#8e7964" /><path
           class="st13"
           d="m 1855.7,1370.2 c -7.1,1.1 -12.9,3.8 -16.6,10.1 7.3,-0.7 14.5,-1.5 21.8,-1.9 21.7,-1.1 43.5,-1.4 65.2,-0.6 2.3,0.1 3.7,-0.9 3.8,-2.9 0.2,-2.9 1,-5.9 -0.7,-8.7 0,0 0,0 0,0 -0.6,3 -3,2 -4.8,2.1 -22.9,0.6 -45.9,-1.5 -68.7,1.9 z"
           id="path126"
           inkscape:connector-curvature="0"
           style="fill:#8e7964" /><path
           class="st13"
           d="m 1859.6,998.5 c 0.4,0.6 1.5,0.6 2.2,0.9 -9.1,-9.1 -12.3,-20 -10.9,-32.8 1.1,-10.1 1.6,-20.2 0.9,-30.4 0,0 0,0 0,0 -3.7,4 -5.8,9 -6.6,14.1 -1.1,6.6 -5,12.7 -4.1,19.7 1.5,12.5 11.6,19.5 18.5,28.5 z"
           id="path128"
           inkscape:connector-curvature="0"
           style="fill:#8e7964" /><path
           class="st13"
           d="m 1923.4,1208.7 c 1.7,12 5.3,23.4 10.2,34.5 -0.4,-12.3 1.3,-25.5 -10.2,-34.5 z"
           id="path130"
           inkscape:connector-curvature="0"
           style="fill:#8e7964" /></g><g
         id="g132"><path
           class="st14"
           d="m 1220.9,1515.7 c -10.9,3.1 -15.7,0 -18,-10.9 -0.3,-1.6 -0.6,-3.2 -3.1,-2.7 -5.1,0.9 -9.8,-0.3 -14.5,-3.5 -0.2,1.9 -0.3,3.3 -0.4,4.8 1.3,10.8 2.1,21.8 9,30.9 5.1,-1.8 10.1,-0.4 12.2,3.9 2.7,5.7 8.4,8.4 11.2,13.6 1.2,2.2 3.1,2.9 5.5,2.3 2.7,-0.7 2.1,-3 2.1,-4.9 0,-10.1 -0.1,-20.3 0.1,-30.4 0.1,-3.6 -0.7,-4 -4.1,-3.1 z"
           id="path134"
           inkscape:connector-curvature="0"
           style="fill:#a07168" /><path
           class="st14"
           d="m 1122.5,1417.1 c -4,1 -8.3,-0.2 -10.3,-3.5 -2.3,-3.8 -5.1,-5.6 -9.2,-6.3 0.1,1.5 0.1,3 0.3,4.4 2.7,16.2 7.9,31.6 14.8,46.5 0,0 0,0 0,0 4.3,-1.2 8.3,-1.4 12.5,0.8 3.2,1.7 5.2,0.7 5.4,-3.5 0.4,-6.8 0.5,-13.6 1.1,-20.3 0.5,-5.1 0.9,-9.3 -3.3,-13.4 -3.2,-3.3 -6.1,-5.9 -11.3,-4.7 z"
           id="path136"
           inkscape:connector-curvature="0"
           style="fill:#a07168" /><path
           class="st14"
           d="m 1065.2,1363.4 c -2.4,12.4 -0.9,24.6 2,36.8 0,0 0,0 0,0 1.6,-1.7 0.7,-3.8 0.9,-5.7 0.6,-6.2 0.5,-12.6 1.9,-18.7 1.8,-8 1.8,-8 -4.8,-12.4 z"
           id="path138"
           inkscape:connector-curvature="0"
           style="fill:#a07168" /></g><path
         class="st15"
         d="m 1125.4,916.8 c 0,-1.6 0.2,-3.6 0.7,-6.4 -2.8,2 -5.2,1.4 -7.7,-0.2 -2.4,-1.5 -4.9,-2.8 -7.5,-4 3.9,2.2 7.8,4.4 11.5,6.9 1.5,1 2.4,2.3 3,3.7 z"
         id="path140"
         inkscape:connector-curvature="0"
         style="fill:#c6997e" /><path
         class="st15"
         d="m 1126.5,920.2 c 0.3,1.5 0.6,3 1,4.4 0.5,2.2 0.2,4.6 1.6,6.7 1,-3 1,-6 0.8,-9 -1.6,-0.7 -2.7,-1.2 -3.4,-2.1 z"
         id="path142"
         inkscape:connector-curvature="0"
         style="fill:#c6997e" /><path
         class="st15"
         d="m 1126.5,920.2 c -0.7,-0.8 -1.1,-1.9 -1.1,-3.4 -0.7,-1.4 -1.6,-2.7 -3,-3.7 -3.7,-2.5 -7.7,-4.7 -11.5,-6.9 -3.1,-1.5 -6.1,-2.9 -8.9,-5 3.7,6.1 10.9,7.8 16.4,10.9 6.3,3.6 6.8,8.4 7.7,13.8 0.4,2.3 0.9,4.1 2.9,5.3 -1.4,-2 -1,-4.4 -1.6,-6.7 -0.3,-1.3 -0.5,-2.8 -0.9,-4.3 z"
         id="path144"
         inkscape:connector-curvature="0"
         style="fill:#c6997e" /><path
         class="st15"
         d="m 1126.6,908.3 c -3.3,4.2 -6.1,1.6 -9.1,0 -4.4,-2.3 -8.8,-4.6 -13.5,-6.3 2.2,1.5 4.5,2.9 6.9,4.2 2.6,1.2 5.1,2.4 7.5,4 2.5,1.6 5,2.2 7.7,0.2 -0.5,2.8 -0.7,4.8 -0.7,6.4 0.5,1.1 0.8,2.2 1.1,3.4 0.7,0.8 1.8,1.4 3.3,2 -5.6,-3.2 -1.9,-8.7 -3.2,-13.9 z"
         id="path146"
         inkscape:connector-curvature="0"
         style="fill:#c6997e" /><path
         class="st15"
         d="m 1125.4,916.8 c 0,1.6 0.4,2.6 1.1,3.4 -0.3,-1.2 -0.6,-2.3 -1.1,-3.4 z"
         id="path148"
         inkscape:connector-curvature="0"
         style="fill:#c6997e" /><path
         class="st15"
         d="m 1110.9,906.2 c -2.3,-1.3 -4.6,-2.7 -6.9,-4.2 -0.7,-0.3 -1.4,-0.5 -2,-0.7 2.8,2 5.8,3.5 8.9,4.9 z"
         id="path150"
         inkscape:connector-curvature="0"
         style="fill:#c6997e" /><path
         class="st15"
         d="m 1088,900.7 c -1.1,-0.4 -2.3,-0.5 -3,-1.5 -1.1,1.5 -1.7,3.1 -1.9,4.9 2.2,-1.7 4.6,-2.4 7.1,-2.8 -0.8,-0.1 -1.5,-0.3 -2.2,-0.6 z"
         id="path152"
         inkscape:connector-curvature="0"
         style="fill:#c6997e" /><path
         class="st15"
         d="m 1085.5,904.5 c 2.9,-2.6 6.3,-2.2 9.8,-2.3 1.9,-0.1 3.8,-0.6 5.8,-1 -3.6,-0.5 -7.3,0.7 -10.9,0.1 -2.5,0.4 -4.9,1.2 -7.1,2.8 0.6,1.2 1.6,1.1 2.4,0.4 z"
         id="path154"
         inkscape:connector-curvature="0"
         style="fill:#c6997e" /><path
         class="st15"
         d="m 1088,900.7 c 0.7,0.3 1.4,0.5 2.1,0.6 2.2,-0.4 4.5,-0.4 6.7,-0.6 -4,-0.5 -7.9,-1 -11.9,-1.5 0.8,1 2,1.1 3.1,1.5 z"
         id="path156"
         inkscape:connector-curvature="0"
         style="fill:#c6997e" /><path
         class="st15"
         d="m 1101,901.3 c -1.4,-0.2 -2.8,-0.4 -4.2,-0.5 -2.2,0.2 -4.5,0.2 -6.7,0.6 3.6,0.6 7.3,-0.6 10.9,-0.1 z"
         id="path158"
         inkscape:connector-curvature="0"
         style="fill:#c6997e" /><path
         class="st16"
         d="m 2000.6,1063.6 c -1.9,4.3 -6.1,6.8 -8.5,10.7 3.6,-3 7.1,-6.2 9.7,-10.1 l 0,0 c -0.7,-0.1 -1,-0.3 -1.2,-0.6 z"
         id="path160"
         inkscape:connector-curvature="0"
         style="fill:#b59476" /><path
         class="st16"
         d="m 2000.6,1063.6 c 0.2,0.3 0.5,0.6 1.2,0.6 -0.2,-0.6 -0.5,-1.2 -0.7,-1.9 -0.2,0.4 -0.4,0.9 -0.5,1.3 z"
         id="path162"
         inkscape:connector-curvature="0"
         style="fill:#b59476" /><path
         class="st16"
         d="m 2000.4,1063.1 c -3,3.6 -6.6,6.7 -8.4,11.2 2.4,-3.9 6.7,-6.4 8.5,-10.7 0,-0.2 -0.1,-0.3 -0.1,-0.5 z"
         id="path164"
         inkscape:connector-curvature="0"
         style="fill:#b59476" /><path
         class="st16"
         d="m 2000.4,1063.1 c 0,0.2 0.1,0.3 0.2,0.5 0.2,-0.4 0.3,-0.8 0.5,-1.3 0,0 0,0 0,0 -0.3,0.3 -0.5,0.5 -0.7,0.8 z"
         id="path166"
         inkscape:connector-curvature="0"
         style="fill:#b59476" /><path
         class="st17"
         d="m 1772,1504.2 c -0.9,-1.5 -1.8,-2.9 -2.8,-4.4 -0.3,-0.4 -0.6,-1.4 -1.2,-0.5 -0.3,0.4 -0.1,1.2 -0.1,1.8 2.6,-0.5 2.1,3.1 4.1,3.1 z"
         id="path168"
         inkscape:connector-curvature="0"
         style="fill:#e7e6e6" /><path
         class="st17"
         d="m 1772,1504.2 c -2.1,-0.1 -1.6,-3.6 -4.1,-3 1.7,0.7 1.4,3.8 4.1,3 z"
         id="path170"
         inkscape:connector-curvature="0"
         style="fill:#e7e6e6" /><path
         class="st18"
         d="m 1940.1,771.3 c 0.1,-0.2 0.3,-0.4 0.4,-0.6 0,-0.1 -0.2,-0.4 -0.3,-0.4 -2.1,0 -4.1,0.1 -6.2,0.1 0,0 0,0 0,0 2,1 4.2,-0.4 6.1,0.9 z"
         id="path172"
         inkscape:connector-curvature="0"
         style="fill:#ad8879" /><path
         class="st18"
         d="m 1940.1,771.3 c -1.9,-1.3 -4.1,0.1 -6,-0.9 1.8,1.6 4,0.5 6,0.9 z"
         id="path174"
         inkscape:connector-curvature="0"
         style="fill:#ad8879" /><g
         id="g176"><path
           class="st19"
           d="m 1660.7,613.4 c -10.7,-2.5 -20.7,-7.2 -31.1,-10.6 -18.4,-6.1 -37,-4.5 -55.7,-2.7 4.5,3 3.6,8.3 5.3,12.5 0.7,1.7 -0.6,2.4 -1.4,3.4 -4.3,5.3 -4.1,10 0.6,15 2.7,2.8 1.4,9.1 -2.2,10.1 -9.6,2.6 -19.2,5.3 -29.3,3.3 -2,-0.4 -2.8,-1 -3.1,-3 -0.6,-3.6 -2.2,-6.6 -5.9,-8 -0.8,-0.3 -1.4,-0.7 -1.8,-1.5 -3,-7.2 -6,-14.3 -9,-21.4 0,0 0,0 0,0 -6.7,2.4 -13.6,4.4 -20.2,7.1 -8.5,3.5 -16.1,8.3 -22.4,15.3 -4.3,4.8 -7.9,10.3 -13.4,14 -3.8,2.6 -7.6,3 -10.9,-0.2 -3.6,-3.4 -5.9,-8.4 -4.9,-13 1.8,-8.2 4.2,-16.4 10,-23.1 10.3,-11.9 20.8,-23.7 31.8,-35 9.4,-9.6 18.6,-19.4 27.9,-29.1 0,0 0,0 0,0 -7.2,-0.9 -10,-6.2 -12.2,-12.1 0,0 0,0 0,0 -0.8,0.8 -1.7,1.5 -2.5,2.4 -8.3,9.8 -16.3,19.8 -24.8,29.3 -16.6,18.7 -31.4,38.8 -45.1,59.6 -2.6,4 -4.8,8.4 -8.3,11.8 -7.6,7.4 -14.8,7.9 -23.2,1.8 -3.2,2 -1.7,-1 -2.1,-2 0,0 0,0 0,0 0,0 0,0 0,0 -0.4,-0.7 -0.7,-1.5 -1.1,-2.2 -14.6,-20.8 -28.9,-41.8 -45.1,-61.4 -8,-9.7 -15.9,-19.5 -23.8,-29.3 -4.1,0.5 -6.9,1.5 -7.6,6.7 -0.7,5.2 -5.2,7.8 -10.5,8.4 0,0 0,0 0,0 7.6,7.9 15.1,15.9 23.5,23.1 15.5,13.2 29.7,27.5 41.5,44.2 3.9,5.5 5,11.6 4,18 -1.1,7 -5.8,9.7 -12.6,7.8 -2.1,-0.6 -4.2,-0.9 -6.3,-1.3 -7.9,-1.3 -15.9,-2 -22.7,-6.8 -7.3,-5.2 -15.3,-8.6 -24.4,-8.9 0.6,2.3 3.7,4.6 1.5,7 -3.4,3.6 -5.1,10.9 -12.8,7.2 -0.9,-0.4 -1.9,-0.3 -2.9,-0.4 -7.1,-0.9 -7.3,-1 -5.5,-7.7 0.8,-3.1 0,-5.5 -1.1,-8.1 -11.1,-0.3 -21.7,2.7 -32.4,4.7 -3.6,0.7 -2.2,2.6 -0.9,4.2 4.5,5.8 10.7,8.8 17.5,10.8 3.3,0.9 6.9,1.4 10,3 15.3,8 31.2,10.4 48.3,7.6 3.7,-0.6 8.3,-0.3 10.7,3.7 1.8,3 0.7,6.1 -1.4,8.8 1.9,-0.4 3.7,-2.2 4.7,1.7 0.7,2.7 3.6,4.8 6.8,5.2 2.6,0.3 3.1,2 3.5,4.1 0.4,2.1 -0.9,2.9 -2.5,3.8 -4.8,2.8 -10.1,4.4 -15.4,5.5 -3.6,0.7 -7.5,-2.1 -11.5,-0.8 -0.9,0.3 -1.3,-1.3 -1.6,-2.2 -0.5,-2.2 -2,-3.7 -3.8,-5 l 0,0 c -1.7,1.3 -3.4,2.6 -5.2,3.8 -13.3,8.8 -24.5,19.9 -35.1,31.7 -0.9,1 -2.3,1.8 -1.7,3.3 0.6,1.6 2.3,1 3.5,1 12.9,0.5 25.9,-0.1 37.7,-5.6 18.3,-8.5 36.4,-17.9 50.6,-32.8 2.5,-2.6 5.2,-5.1 8.1,-7.4 7.3,-5.8 19.5,-3.2 23.8,4.8 0,-0.2 0,-0.4 0.1,-0.5 0.2,-0.2 0.4,-0.3 0.6,-0.4 0.1,1.3 0.1,2.6 0.5,3.8 1.3,4.4 4.4,6.6 8.9,6 2.9,-0.4 5.1,0.3 7.1,2.3 0,0 0,0 0,0 1.6,-2.1 2.4,-4.7 3.3,-7.2 3.9,-11.3 16.2,-15.8 26.4,-9.7 2.3,1.4 4.6,2.5 6.9,3.8 7,-0.6 9.8,-6.1 13.1,-11.1 0,0 0,0 0,0 -5.7,-5.1 -7.3,-9.2 -5.3,-14.3 2.3,-6.1 7.4,-9.5 14.3,-9.7 8.4,-0.2 16.6,0.8 24.6,3.2 5.7,1.7 11.6,2.8 17.6,2.8 25.5,0 50.7,-3.2 75.8,-7.3 20.7,-3.4 39.3,-11.1 53.8,-26.9 4.8,-4.9 4.5,-7.5 -1.6,-8.9 z"
           id="path178"
           inkscape:connector-curvature="0"
           style="fill:#8e665d" /><path
           class="st19"
           d="m 1242.8,1511.3 c -2.6,-1.5 -5,-3.3 -7.4,-5 -9.1,-6.1 -19.2,-11.2 -27,-18.6 -17.4,-16.6 -34.3,-33.9 -45.8,-55.6 -5.3,-10 -11.9,-19.2 -14.2,-30.6 -3.2,-16.1 -7.6,-32 -9.9,-48.2 -0.7,-5 -3.1,-5.4 -7.2,-4.6 -7.3,1.5 -14.7,2.7 -22.2,2.6 -10.3,-0.2 -20.7,0 -31,0 -10.8,0 -10.8,-0.1 -12.8,10.6 -0.1,0.5 0,1 0.1,1.5 6.6,4.4 6.6,4.4 4.8,12.3 -1.4,6.2 -1.3,12.5 -1.9,18.7 -0.2,1.9 0.7,4 -0.9,5.7 0.6,2.2 1.2,4.5 1.9,6.7 0.6,2 1.1,4.3 3.9,4.5 2.9,0.3 3.5,-2 4.5,-3.8 4.7,-8.8 9.3,-17.7 14,-26.4 1.5,-2.8 2.4,-7.1 6.9,-5.7 4,1.3 2.4,5.3 2.5,8.3 0.3,7.9 -0.6,15.9 2.2,23.5 4,0.7 6.9,2.6 9.2,6.3 2,3.3 6.3,4.4 10.3,3.5 5.1,-1.2 8,1.4 11.4,4.7 4.2,4.1 3.8,8.3 3.3,13.4 -0.6,6.7 -0.7,13.6 -1.1,20.3 -0.3,4.2 -2.3,5.2 -5.4,3.5 -4.2,-2.3 -8.2,-2 -12.5,-0.8 l 0,0 c 9.5,22.3 20.9,43.4 35.4,62.9 1.1,1.4 2.1,3.7 4,3.4 2.4,-0.3 1.3,-3 1.7,-4.6 0.4,-1.8 0.5,-3.6 0.7,-5.4 1.3,-11.5 2.3,-23.1 5.1,-34.4 1.6,-6.3 6.6,-9.3 12.8,-7.8 6.1,1.4 8.8,6.9 7.9,14.6 -0.7,5.5 -2.5,11 -0.9,16.6 0.1,-1.4 0.3,-2.9 0.4,-4.8 4.6,3.2 9.4,4.4 14.5,3.5 2.5,-0.4 2.8,1.1 3.1,2.7 2.3,10.9 7.1,13.9 18,10.9 3.4,-0.9 4.2,-0.5 4.2,3.1 -0.2,10.1 -0.1,20.3 -0.1,30.4 0,1.9 0.6,4.2 -2.1,4.9 -2.4,0.6 -4.3,-0.1 -5.5,-2.3 -2.9,-5.2 -8.5,-7.9 -11.2,-13.6 -2,-4.3 -7.1,-5.7 -12.2,-3.9 0,0 0,0 0,0 3.3,3.7 5.9,7.9 8.4,12.3 7.1,12.6 14.1,25.3 23.6,36.3 9,10.4 17.2,21.1 20.5,34.8 0.3,1.4 1.1,2.9 3.5,2.7 0.2,-6.9 -0.4,-13.8 -0.6,-20.7 -0.5,-12.6 0.4,-25.2 0.4,-37.8 0,-10.2 -1.4,-20.5 0.2,-30.7 0,-1.6 0,-3.2 0,-4.8 0,0 0,0 0,0 0.7,-6.7 -1.5,-11.7 -7.5,-15.1 z"
           id="path180"
           inkscape:connector-curvature="0"
           style="fill:#8e665d" /><path
           class="st19"
           d="m 1562.9,506 c 4.8,-4.3 9.4,-8.8 14.4,-12.9 11.7,-9.3 23.1,-19 33.8,-29.5 3,-2.9 5.2,-6.1 4.8,-10.5 -6.7,8.9 -12.3,10.8 -20.2,6.9 -3.8,-1.9 -6.3,-4.8 -6.9,-9.1 0,0 0,0 0,0 -16.2,13.5 -29.7,29.6 -43.9,45.1 11.1,-1.2 15.1,1 18,10 z"
           id="path182"
           inkscape:connector-curvature="0"
           style="fill:#8e665d" /><path
           class="st19"
           d="m 1280.1,519.2 c 0.9,-2.3 3.2,-2.1 5,-2.7 1.7,-0.6 3.9,0 4.9,-1.7 3.2,-5.5 8.2,-8.1 14.1,-9.6 -0.8,-1.2 -1.6,-2.6 -2.6,-3.6 -9.5,-10.4 -18.6,-21.2 -26.2,-33.2 -1.3,-2 -2.9,-4 -5.4,-4.9 -2.9,12 -9.1,15.5 -20.6,11.6 7.8,16.4 19,30.5 30.8,44.1 0,0 0,0 0,0 z"
           id="path184"
           inkscape:connector-curvature="0"
           style="fill:#8e665d" /><path
           class="st19"
           d="m 1411,710.2 c -2.2,1.5 -4.3,0.6 -6.2,-1 -1.9,4.6 -3,9.3 -2.9,14.3 0.1,1.7 -0.7,4.1 1.3,4.9 1.9,0.8 3.3,-1.1 4.7,-2.2 5.5,-4.5 10.4,-9.6 15.2,-14.9 0,0 0,0 0,0 -3.7,-2.8 -7.6,-4 -12.1,-1.1 z"
           id="path186"
           inkscape:connector-curvature="0"
           style="fill:#8e665d" /><path
           class="st19"
           d="m 1496.9,687.5 c 0,0 0,0 0,0 0.8,3.2 0.3,5.6 -3.7,5.7 -2.1,0 -3.2,1.4 -4.2,2.9 0.9,0.5 1.7,1 2.6,1.4 4.3,1.6 10.3,0.8 10.8,-1.8 0.9,-4.2 -2.4,-6.3 -5.5,-8.2 z"
           id="path188"
           inkscape:connector-curvature="0"
           style="fill:#8e665d" /></g><path
         class="st3"
         d="m 1100,864.3 c -1,0.7 -1.1,1.8 -1.4,2.9 1.8,-0.4 0.8,-2 1.4,-2.9 z"
         id="path190"
         inkscape:connector-curvature="0"
         style="fill:#cea585" /><path
         class="st3"
         d="m 1100,864.3 c -0.6,0.9 0.3,2.5 -1.4,2.9 l 0,0 c 2.9,0.1 2.1,-1.4 1.4,-2.9 z"
         id="path192"
         inkscape:connector-curvature="0"
         style="fill:#cea585" /><path
         class="st20"
         d="m 1409.1,639.1 c -0.7,-0.7 -1.4,-1.3 -2.1,-2 0.6,0.8 0.8,2.1 2.1,2 z"
         id="path194"
         inkscape:connector-curvature="0"
         style="fill:#9b6e5e" /><path
         class="st20"
         d="m 1409.1,639.1 c -1.4,0 -1.5,-1.2 -2.1,-2 0,0 0,0 0,0 0.4,1 -1.1,4.1 2.1,2 z"
         id="path196"
         inkscape:connector-curvature="0"
         style="fill:#9b6e5e" /><g
         id="g198"><path
           class="st21"
           d="m 1521.1,1363.9 c 0.8,0.1 1.6,0.3 2.4,0.4 -0.2,-0.1 -0.4,-0.1 -0.6,-0.2 -0.6,-0.1 -1.2,-0.2 -1.8,-0.2 z"
           id="path200"
           inkscape:connector-curvature="0"
           style="fill:#040000" /><path
           class="st21"
           d="m 1106.8,876.7 c -0.3,0.3 -0.6,0.7 -0.9,1 0.4,-0.1 0.7,-0.5 0.9,-1 z"
           id="path202"
           inkscape:connector-curvature="0"
           style="fill:#040000" /><polygon
           class="st21"
           points="1249.9,1526.4 1249.9,1526.4 1249.9,1526.4 "
           id="polygon204"
           style="fill:#040000" /><path
           class="st21"
           d="m 2111,784 c -4.6,-22.3 -16.4,-39.6 -36.6,-50.9 -5.4,-3 -11.1,-4.5 -17.2,-3.7 -13.3,1.8 -26.6,1.2 -39.9,0.2 -12,-0.8 -23.6,-0.3 -35.1,4.6 -20.9,9 -42.7,9.8 -65,5.6 -22.8,-4.4 -45,-11.3 -67.8,-15.7 -16.1,-3.1 -28.8,-10.5 -39.4,-22.4 -0.4,-0.5 -0.9,-1 -1.4,-1.4 -13.2,-12 -26.8,-23.3 -44.2,-29.1 -6.7,-2.2 -13,-5.9 -19.5,-8.7 -18.2,-8 -32.4,-22.6 -51.4,-30.9 11.4,-2.5 13.7,-11 14.9,-20 0.7,-5.4 -1.9,-11.3 -5.7,-12.3 -6.3,-1.6 -12,-5 -18.5,-5.8 -7.2,-0.9 -13.8,-3.3 -20.3,-6.3 -19.3,-8.9 -39.8,-12.6 -60.8,-14 -17.7,-1.1 -35.5,-2.8 -53.3,1.1 0.2,-2.4 1.6,-3.6 2.7,-5 9.3,-11.1 18.5,-22.3 28,-33.2 16.4,-18.9 35.1,-35.5 51.2,-54.8 7.9,-9.4 13.1,-19.3 15.4,-31.1 1,-5.4 2.7,-10.7 1.2,-16.2 -3.9,-14.7 -12.2,-24.8 -27.6,-29 -16.7,-4.5 -31.7,-0.9 -43.2,10.9 -20.7,21.2 -41.4,42.4 -59.7,65.8 -16.6,21.2 -36,40.2 -50.6,63 -4.7,7.4 -8.9,15.4 -15,21.7 -9.3,9.6 -17.5,20.1 -25.7,30.6 -4.6,5.9 -4.6,5.9 -8.8,-0.4 -1.2,-1.8 -2.5,-3.5 -3.9,-5.2 -7.3,-8.4 -14.8,-16.7 -22,-25.2 -12.8,-15.2 -27.8,-28.3 -39.7,-44.3 -8.5,-11.5 -17.3,-22.7 -25,-34.8 -10.6,-16.5 -25.6,-29.3 -38.9,-43.5 -11,-11.7 -23.7,-16 -39.4,-14.6 -21.4,1.9 -37.5,23.5 -30.2,43.7 6,16.7 12.9,33.5 24.3,47.7 9.6,11.9 20.7,22.6 30.7,34.1 15.1,17.3 31.8,32.7 49.5,47.1 1.9,1.5 4.2,2.6 5.5,4.9 -1.5,1.1 -2.7,0.4 -3.9,0.2 -16.5,-2.6 -33.1,-3.6 -49.6,0.5 -7.3,1.8 -14.7,2.3 -22.3,1.2 -11.8,-1.7 -23.7,-3.2 -35.7,-4.2 -6.6,-0.6 -12,5.3 -11.6,11.5 0.2,3 1.4,5.8 3,8.4 7.6,12.5 16.5,23.7 28.8,32.1 7.6,5.2 7.7,9 -0.8,12.9 -12.1,5.5 -23.5,12.2 -35.6,17.5 -18.5,8.1 -35.4,18.9 -52.2,29.9 -8.7,5.7 -16.4,12.6 -23.2,20.4 -14.5,16.7 -25.1,35.9 -35.6,55.2 -10.3,19.2 -16.8,40 -25.4,59.9 -12.6,29 -26.7,57.4 -38.8,86.6 -2.8,6.9 -7.6,12.6 -14.1,16.4 -13.9,8.1 -29.2,10.7 -44.7,8.1 -21.4,-3.6 -41.9,-11 -62.7,-17.3 -26.8,-8 -48.2,4.6 -59.4,23.5 -12.4,21 -17.7,43.8 -18.8,67.9 -0.8,18 -0.8,36 -2.4,53.9 -1.6,18.4 -0.2,35.7 7.2,53.1 19.8,46.8 50.7,82.7 98,103.2 13.1,5.7 26.2,11.2 39.3,16.8 2.4,1.1 4.7,2.3 5.8,5.1 4.1,9.9 10.3,18.6 16.5,27.2 12.5,17.5 26.4,33.5 46.2,43.1 5.2,2.5 7.3,5.8 6.5,11.3 -1.7,11.4 -1.7,22.9 -1.1,34.4 0.8,15.7 4,31 11.7,44.9 8.1,14.6 15.1,17.6 30.8,13.5 2.8,-0.7 3.8,-0.5 4.9,2.5 8,23.3 19.1,45.2 31.7,66.3 13.2,22.1 28,42.9 47.8,59.7 9.1,7.7 11.1,7.1 14.1,-4.2 0.3,-1.3 0.1,-3.3 1.9,-3.6 1.4,-0.2 2.2,1.3 2.9,2.4 1.4,2.2 2.8,4.5 4.1,6.8 5,9.1 11.1,17.3 17.8,25.2 7.6,9 13.6,19 16.3,30.8 2.1,9.2 4.6,18.3 9.1,26.7 1.9,3.5 4.2,6.7 8.6,6.6 4.4,-0.2 5,2 5.3,5.8 1.3,16 -0.7,32 0.7,48 0.8,9.1 4.3,14.5 12.3,16.7 5.9,1.7 12,2.9 18.2,2.3 22.2,-2 44.5,-0.7 66.7,-1.1 4,-0.1 6.7,1.4 7.9,5.4 1,3.4 3.2,6.2 5.8,8.6 3.3,3.1 6.5,6.5 8,10.7 3,8.5 9.7,13.8 16.4,18.9 13.3,10.3 31.7,9.6 44.4,-1.4 7.8,-6.7 14.1,-14.5 19,-23.6 2.3,-4.4 4.8,-8.7 7.4,-12.9 1.3,-2.1 3,-4.1 5.7,-4.5 7.2,-1 14.5,-2.2 21.8,-0.1 5.4,1.5 10.8,1.1 16.3,0.4 12.3,-1.4 24.5,-2.3 36.9,-0.7 6.6,0.9 13.2,1.5 19.9,1 11.1,-0.8 22.3,-1.1 33.4,-1.7 6.8,-0.4 13.6,-0.9 16,7.8 0.2,0.8 1.4,1.4 2,2.2 2.5,2.9 5.4,5.6 7.3,8.8 5.1,9 12.3,16.2 19.9,22.8 14.6,12.6 38.5,12.3 49.3,-2.2 7.8,-10.4 16.4,-20.5 21.4,-32.8 0.9,-2.2 1.9,-5.1 4.3,-5.1 8.4,0 17.3,-3.1 24.9,3.3 4.7,4 9.1,8.8 15,10.6 6.8,2.1 9.5,5.5 7.9,12.5 -0.2,0.9 0.2,2 0.5,2.9 2.4,7.1 4.8,14.1 7.2,21.2 2.6,7.9 7.9,13.3 15.1,17.1 5,2.6 10.3,4.9 15.9,5.5 11.6,1.3 16.2,1.7 19.4,-12.8 1.4,-6.5 0.7,-12.9 0.9,-19.4 0.1,-6.2 3.4,-11.8 8.8,-13.1 12.1,-3 22.3,-9.5 32.3,-16.3 15.9,-10.7 29.3,-24.2 37.2,-41.6 5.5,-12 12,-22.8 20.5,-32.7 5.3,-6.2 10.9,-12.1 14.6,-19.6 6.5,-13.2 13,-26.5 19.7,-39.6 10.8,-21.2 15.4,-44.7 25.1,-66.4 0.5,-1.2 0.7,-2.6 0.9,-3.9 4.2,-27.1 3.3,-54.1 -0.2,-81.1 -4.9,-37.7 -9.2,-75.5 -18.6,-112.5 -0.9,-3.7 -0.9,-7.5 1.7,-10.9 12.8,-17.4 15.1,-37.2 12.2,-57.9 -0.8,-5.5 -1.8,-10.9 -2.8,-17.2 4.2,2.2 6.9,4.8 9.2,7.9 4.6,6 7.6,12.8 9.6,20.1 5.7,21.5 10,43.3 12.9,65.4 0.9,7.3 5.1,11.7 11.4,13.7 6.4,2.1 12.1,-0.2 16.5,-5.4 4.6,-5.5 8.4,-11.5 11.2,-18.2 8.3,-19.9 14.4,-40.6 20.9,-61.1 3.1,-9.8 4.1,-20.1 5.3,-30.4 2.5,-21.4 -0.9,-41.9 -7.1,-62.4 -8.9,-29.5 -22.9,-55.4 -47.2,-75 -2.3,-1.9 -4.5,-4 -6.5,-6.2 -3.9,-4.3 -3.2,-9.4 1.5,-12.9 1.9,-1.4 3.8,-2.7 5.5,-4.3 11.8,-11.6 23.5,-23.2 35.1,-34.9 8.8,-8.9 15,-19.4 17.6,-31.8 3.5,-16.6 3.7,-33.5 1.1,-50.2 -2.5,-16.3 -0.8,-31 10.4,-43.9 6.4,-7.5 10.7,-16.4 14,-25.7 7.1,-20 14.4,-39.9 18.9,-60.7 4.8,-20.9 7,-42.5 2.5,-64.3 z m -224.9,-18.9 c 0,0 0,0 0,0 3,0.5 6,0.9 9,1.4 6,1 12,2 18,2.9 0,0 0,0 0,0 0,0 0,0 0,0 7,1 14,0.9 21,1 0,0 0,0 0,0 0,0 0,0 0,0 2.1,0 4.1,-0.1 6.2,-0.1 0.1,0 0.3,0.3 0.3,0.4 -0.1,0.2 -0.3,0.4 -0.4,0.6 -8.8,7.4 -18.5,12.9 -30.1,14.8 -4.5,1.5 -9.2,1.7 -14,1.9 l 0,0 c -2.7,0 -5.4,0 -8.1,0 -1.8,0.2 -3.7,0.6 -4.8,-1.4 -4.6,-8 -9.2,-16 -14.2,-24.6 6.3,0.6 11.7,1.5 17.1,3.1 z m 7.1,121.3 c 7.8,6.4 16.6,11.5 25.8,16.9 -13.5,12.2 -30.5,19.9 -37.8,39.1 -2.2,-9.4 -0.4,-17 1.3,-24.5 2.3,-10 5.8,-19.7 7.6,-29.9 0.3,-1.8 1,-3.4 3.1,-1.6 z M 1268.8,638.2 c 10.7,-2 21.3,-5 32.4,-4.7 0,0 0,0 0,0 7,-0.4 13.8,1.5 20.8,2 9.1,0.3 17,3.7 24.4,8.9 6.7,4.8 14.8,5.5 22.7,6.8 2.1,0.3 4.3,0.7 6.3,1.3 6.8,2 11.5,-0.8 12.6,-7.8 1,-6.4 -0.1,-12.5 -4,-18 -11.8,-16.7 -26,-31 -41.5,-44.2 -8.3,-7.1 -15.9,-15.1 -23.5,-23.1 0,0 0,0 0,0 -13.5,-12.9 -25.8,-26.8 -38.8,-40.2 l 0,0 c 0,0 0,0 0,0 -11.8,-13.6 -22.9,-27.7 -30.8,-44.1 0,0 0,0 0,0 -3.4,-6 -3.2,-11.7 1.2,-17.1 3.4,-4.1 8.1,-4.7 12.3,-1.4 2.6,2 5.2,4 7.1,6.9 2.5,0.8 4.2,2.9 5.4,4.9 7.6,12 16.7,22.7 26.2,33.2 1,1.1 1.7,2.4 2.6,3.6 11.9,12.3 23.3,24.9 33,39 7.9,9.8 15.8,19.6 23.8,29.3 16.2,19.6 30.5,40.6 45.1,61.4 0.5,0.7 0.8,1.5 1.1,2.2 0,0 0,0 0,0 0.7,0.7 1.4,1.3 2.1,2 8.4,6.1 15.6,5.6 23.2,-1.8 3.5,-3.4 5.7,-7.7 8.3,-11.8 13.7,-20.9 28.4,-41 45.1,-59.6 8.5,-9.6 16.5,-19.6 24.8,-29.3 0.7,-0.9 1.7,-1.6 2.5,-2.4 0,0 0,0 0,0 10,-13.2 20.2,-26.3 32,-38 14.2,-15.5 27.6,-31.6 43.9,-45.1 0,0 0,0 0,0 0,0 0,0 0,0 4.3,-4.6 8.2,-9.6 15.4,-9.9 9.8,-0.5 12.6,2.2 11.8,12.1 0.4,4.4 -1.9,7.6 -4.8,10.5 -10.7,10.4 -22.1,20.1 -33.8,29.5 -5,4 -9.6,8.6 -14.4,12.9 0,0 0,0 0,0 -12.2,13.8 -24.3,27.7 -37.8,40.3 0,0 0,0 0,0 -9.3,9.7 -18.5,19.5 -27.9,29.1 -11,11.3 -21.5,23.1 -31.8,35 -5.7,6.6 -8.1,14.9 -10,23.1 -1,4.7 1.2,9.6 4.9,13 3.3,3.1 7.1,2.7 10.9,0.2 5.5,-3.7 9.1,-9.2 13.4,-14 6.3,-7 13.9,-11.9 22.4,-15.3 6.6,-2.7 13.4,-4.8 20.2,-7.1 0,0 0,0 0,0 0,0 0,0 0,0 15.5,-3.7 30.7,-9 46.8,-10.3 18.7,-1.8 37.2,-3.4 55.7,2.7 10.4,3.5 20.3,8.1 31.1,10.6 6.1,1.4 6.4,4 2.1,8.7 -14.5,15.9 -33.1,23.6 -53.8,26.9 -25.1,4.1 -50.3,7.3 -75.8,7.3 -6.1,0 -11.9,-1 -17.6,-2.8 -8,-2.4 -16.2,-3.4 -24.6,-3.2 -7,0.1 -12,3.6 -14.3,9.7 -1.9,5 -0.4,9.2 5.3,14.3 0,0 0,0 0,0 0,0 0,0 0,0 5.1,4.2 10.9,7.7 14.9,13.2 0,0 0,0 0,0 0,0 0,0 0,0 3.1,1.9 6.4,4 5.6,8.3 -0.5,2.6 -6.6,3.4 -10.8,1.8 -0.9,-0.4 -1.7,-0.9 -2.6,-1.4 -6.9,-3.3 -13.6,-6.7 -20.1,-10.8 -2.3,-1.2 -4.7,-2.4 -6.9,-3.8 -10.2,-6.1 -22.5,-1.7 -26.4,9.7 -0.9,2.5 -1.6,5 -3.3,7.2 0,0 0,0 0,0 -2.5,4.7 -5.2,9.3 -9.1,13 0,0 0,0 0,0 -4.7,5.3 -9.7,10.4 -15.2,14.9 -1.3,1.1 -2.8,3 -4.7,2.2 -2,-0.9 -1.2,-3.2 -1.3,-4.9 -0.2,-5 1,-9.7 2.9,-14.3 1.5,-4.6 4.4,-8.3 6.7,-12.5 1.6,-3 3.9,-5.7 3.4,-9.5 -4.3,-8 -16.5,-10.5 -23.8,-4.8 -2.9,2.3 -5.6,4.7 -8.1,7.4 -14.3,15 -32.3,24.3 -50.6,32.8 -11.7,5.5 -24.8,6.1 -37.7,5.6 -1.2,0 -2.9,0.6 -3.5,-1 -0.6,-1.5 0.8,-2.4 1.7,-3.3 10.5,-11.8 21.8,-22.9 35.1,-31.7 1.8,-1.2 3.5,-2.5 5.2,-3.8 l 0,0 c 0,0 0,0 0,0 6,-5 13.6,-7.4 19.8,-12.2 2.1,-2.7 3.2,-5.7 1.4,-8.8 -2.4,-4 -7.1,-4.3 -10.7,-3.7 -17,2.8 -33,0.4 -48.3,-7.6 -3,-1.6 -6.6,-2.1 -10,-3 -6.9,-1.9 -13.1,-5 -17.5,-10.8 -2,-1.8 -3.4,-3.8 0.2,-4.4 z m -241.7,659.1 c -12.4,-14 -24,-28.5 -30.5,-46.5 -1.3,-3.6 -4.6,-5.5 -7.7,-7.6 -16.3,-7.1 -32.5,-14.4 -48.8,-21.3 -35.5,-15.1 -60.7,-40.7 -77.1,-75.2 -4,-8.5 -8.9,-16.7 -11,-26.1 -2.3,-10.2 -1.1,-20.5 0,-30.8 1.8,-18.3 0.8,-36.6 2,-54.9 1.1,-16.8 5.6,-32.8 12.8,-47.8 9.5,-19.6 29.8,-20.5 44.2,-2.8 7.9,9.1 13.1,20.1 21.1,29.1 3,3.4 5.9,6.7 8.8,10.2 8.6,10.3 18.7,17.8 32.3,21.1 13.3,3.3 25.8,10 39.2,13.2 24.4,5.7 47.8,1.9 69.8,-10.4 15.5,-8.6 28.6,-19.9 39.7,-33.7 0.8,-1.1 1.5,-3.1 3.4,-2.4 1.4,0.5 1,2.4 1.2,3.6 1.7,10.3 7,18.5 14.4,25.6 6.2,6 5.9,9.1 -1.2,13.6 -18.3,11.4 -35.2,24.6 -52.7,37 -3.3,2.3 -6.1,5.2 -8.3,8.5 -3.6,5.3 -2.7,10.8 2.1,14.6 5,4 10.1,3.8 14.7,-0.9 4.7,-4.8 9.9,-8.9 15.4,-12.7 7.8,-5.4 15.8,-10.4 22.9,-17.5 0.7,3 -1.2,4.2 -2.2,5.6 -8.4,11.6 -16.3,23.5 -21.5,37 -2.4,6.2 -3.4,12.5 -1.7,19 1.5,5.6 4.4,9.4 10.6,10.5 13.5,2.4 25.7,-1 37.4,-7.3 1.2,-0.7 2.4,-2.5 3.9,-1.5 1.6,1 0,2.8 -0.1,4.1 -0.6,4.6 0.6,9 1.5,13.3 1.1,5.3 0.3,10.6 1.1,15.9 0.4,2.6 -1.8,4.5 -3.2,6.5 -13.9,19 -13,36.6 2.8,54.1 1.6,1.8 2.6,3.2 1.4,5.7 -10.4,20.3 -17,41.8 -21.3,64.1 -0.7,3.8 -2.9,5.8 -6.5,6.5 -17.4,3.5 -34.9,6.5 -52.9,6.4 -23,0 -41.3,-9.2 -56,-25.8 z m 222.8,229.1 c 0,0 0,0 0,0 0,1.6 0,3.2 0,4.8 -1.6,10.2 -0.2,20.5 -0.2,30.7 0,12.6 -0.9,25.2 -0.4,37.8 0.3,6.9 0.9,13.8 0.6,20.7 -2.4,0.2 -3.2,-1.3 -3.5,-2.7 -3.3,-13.7 -11.5,-24.4 -20.5,-34.8 -9.5,-11 -16.5,-23.7 -23.6,-36.3 -2.5,-4.4 -5,-8.6 -8.4,-12.3 0,0 0,0 0,0 -7,-9.2 -7.8,-20.1 -9,-30.9 -1.7,-5.6 0.2,-11.1 0.9,-16.6 0.9,-7.7 -1.8,-13.2 -7.9,-14.6 -6.2,-1.4 -11.3,1.5 -12.8,7.8 -2.8,11.3 -3.7,22.9 -5.1,34.4 -0.2,1.8 -0.3,3.7 -0.7,5.4 -0.4,1.6 0.7,4.3 -1.7,4.6 -1.8,0.3 -2.9,-2 -4,-3.4 -14.4,-19.5 -25.9,-40.6 -35.4,-62.9 0,0 0,0 0,0 -6.9,-14.9 -12.1,-30.3 -14.8,-46.5 -0.2,-1.4 -0.2,-2.9 -0.3,-4.4 -2.8,-7.7 -1.9,-15.7 -2.2,-23.5 -0.1,-2.9 1.5,-7 -2.5,-8.3 -4.5,-1.4 -5.4,2.9 -6.9,5.7 -4.8,8.8 -9.4,17.6 -14,26.4 -1,1.9 -1.6,4.1 -4.5,3.8 -2.8,-0.3 -3.3,-2.5 -3.9,-4.5 -0.7,-2.2 -1.2,-4.5 -1.9,-6.7 0,0 0,0 0,0 -2.9,-12.1 -4.4,-24.3 -2,-36.8 0,-0.5 -0.1,-1 -0.1,-1.5 2,-10.7 2,-10.7 12.8,-10.6 10.3,0 20.7,-0.1 31,0 7.5,0.1 14.9,-1.1 22.2,-2.6 4.1,-0.8 6.5,-0.4 7.2,4.6 2.3,16.3 6.7,32.1 9.9,48.2 2.3,11.3 8.9,20.6 14.2,30.6 11.6,21.6 28.4,39 45.8,55.6 7.8,7.4 17.9,12.5 27,18.6 2.5,1.7 4.8,3.5 7.4,5 6.2,3.5 8.4,8.5 7.3,15.2 z M 1237,1347.2 c -5.4,25.8 -3.2,51.7 -1.4,77.5 0.9,12.8 2.3,25.5 4,38.2 0.7,5.3 -3.1,8 -7.7,5.3 -6.8,-4.1 -13.8,-7.9 -19,-14.3 -2.6,-3.2 -5.9,-5.8 -8.8,-8.7 -10.7,-10.2 -16.7,-23.4 -22.1,-36.8 -14.5,-36.3 -15.4,-73 -3.8,-110.2 3.7,-11.7 6.9,-23.5 10.9,-35.1 4.7,-13.5 13,-24.3 25.5,-31.4 9.9,-5.6 20.1,-6.1 30.3,-0.5 9.2,4.3 15.7,11.5 21.1,19.8 2.4,3.6 2.8,7.3 0.2,11.2 -17.2,25.8 -23,55.4 -29.2,85 z m 194.1,392.9 c -2.5,3.9 -4.6,8.1 -8,11.3 l 0,0 c -2.1,2.3 -4,4.8 -6.3,6.9 -7.6,7.1 -15,6.7 -21.8,-1.1 -1.1,-1.2 -2,-2.6 -3,-3.9 -4.5,-5.1 -7.9,-10.9 -11.7,-17 16.6,0 32.7,0 48.8,0 3.3,0 3.7,1.1 2,3.8 z m 244.9,10.2 0,0 c -2.9,4.1 -6.5,7.4 -10.6,10.2 -6,4 -11.4,3.7 -16.7,-1.1 -3.7,-3.3 -7.1,-6.8 -9.7,-11.1 -1.3,-1.7 -2.7,-3.4 -3.7,-5.2 -1.1,-1.9 -3.7,-3.8 -2.4,-6 1.1,-1.8 4,-1 6.1,-0.8 9,1.2 17.9,0.3 26.8,-0.9 6.8,-1 13.5,0.2 20.8,0.2 -3.4,5.3 -6.6,10.3 -10.6,14.7 z m -45.6,-35.8 c -11.2,-0.8 -22.3,-0.3 -33.4,1 -5.8,0.7 -11.6,0.7 -17.4,0 -10.2,-1.1 -20.3,0.2 -30.4,1.1 -5.8,0.5 -11.7,1.1 -17.4,0.2 -13.4,-2 -27,-0.8 -40.4,-1.7 -19.8,-1.3 -39.6,1.5 -59.4,-0.4 -2.9,-0.3 -6,0.1 -8.9,0.7 -5.8,1.1 -11.5,0.9 -17.3,-0.1 -17.6,-3 -35.2,-1.3 -52.8,0.1 -16.2,1.3 -32.3,-0.8 -48.4,-1.6 -8.3,-0.4 -16.6,1.5 -24.9,-0.4 -4.7,-1.1 -7.4,-3.5 -8.7,-8.3 -3.9,-14.6 -3.1,-29.4 -1.4,-44.1 0.7,-6.5 0.9,-13 0.8,-19.5 -0.6,-50 0.2,-100 0.3,-149.9 0,-11.1 -0.7,-22.3 -1.2,-33.5 -0.9,-21.3 0.3,-42.6 1.2,-63.9 0.3,-7.3 0.4,-14.6 0.6,-22 -1,-16.1 0.9,-18.4 16.9,-18.8 14.3,-0.3 28.6,-0.3 42.9,-0.2 23.9,0.1 47.8,0.3 71.8,0.7 4.2,0.1 7.8,2.8 11.5,4.4 15.5,6.9 32.2,10 48,15.9 3.2,1.2 6.4,2.5 9.5,4.8 -10.6,0 -21.2,0 -31.8,0 -17,1.6 -33.9,1.6 -50.8,-0.6 -6.4,-0.8 -13,0.2 -19.4,0.5 -14.1,0.6 -28.3,0.5 -42.5,-0.2 -8.5,-0.4 -17,0 -25.5,0.2 -4.8,0.1 -6.6,3.5 -6.8,7.7 -1,23.3 -2.6,46.6 -2.5,69.9 0.1,21.2 0.4,42.3 0.5,63.5 0.1,20.6 0.6,41.3 1.3,61.9 1,29.8 -1.7,59.6 -0.4,89.4 0.2,3.8 0,7.6 0.7,11.4 0.9,4.7 3.7,7.1 8.1,7.4 19.1,1.4 38.2,2.4 57.4,0.5 18.9,-1.9 37.9,-1.9 56.9,0.2 9.8,1.1 19.6,-1 29.4,-1.3 26.8,-0.7 53.6,1.3 80.4,1 10.1,-0.1 20.1,2.7 30.3,0.8 15,-2.9 30.1,-1.7 45.3,-1.4 20.2,0.3 40.5,0.8 60.8,-0.4 13.8,-0.8 27.6,-0.2 41.5,-0.3 2.8,0 5.5,0.4 4.4,4 -2.4,7.9 -0.2,14.6 5.1,20.9 -28.5,1.1 -56.2,2.4 -83.9,0.4 z m 87.1,-37.9 c -4.2,-0.8 -8.7,-0.7 -13,-0.3 -16.8,1.6 -33.6,-0.3 -50.4,-0.2 -25.8,0.1 -51.6,0.6 -77.4,1.9 -8.8,0.4 -17.7,0.9 -26.4,-0.5 -9.8,-1.6 -19.6,-1 -29.4,0.1 -14.2,1.6 -28.3,0.7 -42.4,-0.6 -8.1,-0.7 -16,0.4 -23.9,0.3 -27,-0.4 -54,0.8 -81,-0.7 -13,-0.7 -26,-0.4 -39,0.7 -5.9,0.5 -11.6,-0.2 -17,-2.7 -6.8,-3.2 -10.4,-8.1 -10.7,-15.9 -1.6,-43 -0.7,-86 -0.5,-129 0.1,-14.7 0.9,-29.5 -0.6,-43.9 -2.5,-24.3 2.1,-48.2 1.7,-72.3 -0.2,-14.9 6.2,-20.9 19.9,-21.5 7.4,-0.3 14.6,0.3 21.9,0.2 22.5,-0.3 44.9,-1.1 67.4,-1.5 8.2,-0.1 16.4,1.2 24.4,0.4 10.4,-1.1 20.6,0.6 30.8,1.4 38.9,-3.8 76.8,1.7 114.3,12.2 30.4,8.5 61.5,14 92.7,18.7 19.4,2.9 34.8,13.3 49.2,25.8 4.7,4.1 9.1,8.6 14.1,12.6 6.7,5.2 9.3,12.9 9.6,21.1 0.3,9.1 0,18.3 0,27.5 1.1,13.8 1.4,27.6 0.5,41.4 -1,15.8 1,31.6 0.4,47.5 -0.3,7.2 -0.7,14.3 -1.5,21.4 -0.8,7.2 0.3,14.3 1.1,21.4 0.8,6.8 1,13.6 -0.4,20.3 -1.5,6.7 -5.5,11 -11.9,12.7 -7.2,1.9 -14.7,3 -22.5,1.5 z M 1954,1542.1 c -0.5,3.9 -1.8,6 -6.7,6.7 -11.5,1.5 -22.3,-0.8 -32.9,-4 -13.9,-4.2 -27.2,-2.9 -40.6,1.9 -4.1,1.5 -6.7,4.1 -5.6,8.6 1.1,4.6 4.9,5.8 9,5 7.5,-1.5 14.8,-3.8 22.6,-3.3 9.1,0.6 17.4,4.5 26.3,5.5 4.5,0.5 8.9,1.2 13.3,1.8 1.8,0.3 3.9,0.3 4.4,2.5 0.6,2.7 -0.1,5.4 -1.6,7.6 -1.5,2.1 -3.4,0.3 -4.9,-0.3 -13.5,-5.7 -27.7,-5.1 -41.8,-4.5 -4,0.2 -6.8,2.6 -6.5,7.3 0.3,4.6 3.4,6.2 7.5,6.4 8.1,0.6 16.3,-0.9 24.4,1 4.2,1 8.3,2.2 12.5,3.4 2.4,0.7 3,2 1.8,4.5 -7.6,16.2 -13.8,33.2 -24.8,47.7 -3.9,5.2 -6.5,11.1 -9,17.1 -3.3,8 -9.6,14.4 -14.2,21.7 -8.6,13.7 -17.4,27.2 -27.2,40.1 -9.3,12.2 -21,21.2 -36.8,23.8 -6.1,1 -11.6,4.2 -16.9,7.2 -1.9,1.1 -3.4,2.8 -4.2,4.8 -3,7.9 -6.7,15.7 -4.4,24.6 0.3,1.3 0.3,2.7 0.1,4 -0.2,2.1 -1,3.9 -3.2,4.6 -2.4,0.8 -4,-0.7 -4.9,-2.5 -4.1,-7.8 -7.6,-15.9 -10.6,-24.2 -0.8,-2.3 0,-4.9 0.4,-7.4 1.3,-6.9 0,-9.6 -6.5,-12 -11.9,-4.3 -20.8,-13 -31,-19.8 -2.1,-1.4 -3.7,-3.4 -4.5,-5.9 -1.5,-4.5 -3.9,-8.4 -6.7,-12.2 -0.6,-0.7 -1.7,-1.5 -1.1,-2.5 0.6,-1.2 2,-1 3.2,-0.9 1,0.1 2,0.3 2.9,0.6 9.4,4.1 19.5,6.8 28.2,12.5 5.8,3.8 12.4,4.7 19.1,4.7 2.9,0 5,-1.5 6.9,-3.6 2.2,-2.4 2.1,-4.5 -0.4,-6.8 -7.3,-6.8 -7.3,-7.8 -0.7,-15.3 12.2,-13.9 18.2,-30.8 22.1,-48.5 4.7,-21.5 7.5,-43.3 7.4,-65.3 0,-13.4 1.5,-27.2 -1.1,-40.4 -4.9,-24.1 -14.7,-46.2 -32.6,-64 -1.6,-1.6 -3,-3.5 -4.5,-5.3 0,0 0,0 0,0 -5.1,-5 -8.9,-11.5 -14.2,-15.9 -9.3,-7.9 -16.9,-17.4 -26.7,-24.7 -3,-2.2 -5.7,-4.7 -7.8,-7.6 -11.5,-15.9 -27.9,-26.4 -43.3,-37.9 -2.3,-1.8 -5.3,-2.8 -8,-3.9 -6.8,-2.8 -10.5,-1.7 -15.1,4.1 -2.8,6.6 1.1,11 5.7,15.5 -2.4,0.8 -4.1,0.3 -5.8,0 -36.9,-6.3 -72.7,-16.9 -109,-25.9 -12.2,-3 -24.6,-5.8 -36.8,-8.7 -0.8,-0.2 -1.5,-0.7 -2.2,-1 -1.6,-0.4 -3.3,-0.7 -4.9,-1.1 0,0 0,0 0,0 -13.8,-2.2 -27.2,-6.1 -40.7,-9.2 -6.5,-1.5 -12.9,-3.2 -19.3,-4.8 -5,-1.2 -9.9,-2.8 -14.1,-6 -3.1,-2.3 -6.7,-3.3 -10.6,-4 -8.6,-1.6 -16.3,-5.6 -24.3,-8.9 -3.2,-1.4 -6.4,-2.8 -9.7,-3.8 -7.3,-2.3 -9.9,-1.3 -14.3,5.2 -1.1,1.6 -2,3.2 -4.2,2.7 -9.4,-2.3 -18.5,0.9 -27.7,1.4 -10.2,0.5 -20.4,2 -30.6,-1.2 -9.6,-3 -19.5,-0.7 -29.2,0.3 -6.3,0.6 -12.6,1 -18.9,1.7 -2.7,0.3 -3.5,-0.8 -3.4,-3.4 0.3,-9.6 3.3,-18.5 6.8,-27.4 4.1,-10.5 10,-18.5 21.4,-22.3 9.6,-3.2 18.1,-9.1 26.9,-14.1 3.1,-1.8 5.3,-4.4 7.2,-7.4 5.5,-8.7 10,-17.9 13.7,-27.6 1.4,-7.4 2.5,-14.7 0.2,-22.1 -2.2,-6.9 -7.3,-10.7 -14.1,-9.8 -6.1,0.8 -10,5.3 -10.5,12.5 -0.7,11.4 -5.6,20.9 -12.5,29.7 l 0,0 c -2.3,2.4 -5.2,4.1 -8,5.8 -3.4,2 -5.5,0.9 -5.9,-2.8 -1.5,-15.5 -11.7,-25.3 -23.6,-32.6 -22.9,-14.1 -47.2,-15.2 -71.8,-3.5 -3.3,1.6 -6.2,3.8 -8.9,6.3 -1.2,1.1 -1.6,4.6 -4.2,2.8 -2.7,-1.8 -5.2,-4.2 -4.2,-8.2 0.8,-3 3.1,-5.1 4.8,-7.5 1.5,-2.2 3,-4.3 4.5,-6.5 4.8,-12.6 2.7,-25.4 1.2,-38.1 -0.7,-6.2 -3.3,-11.7 -7.2,-16.6 0,0 0,0 0,0 -4,-1.8 -7.9,-4.2 -13.5,-1.7 2.5,-4.6 4.9,-7.7 6,-11.6 1.2,-4.4 0.4,-7.8 -3.3,-10.5 -3.7,-2.8 -7.5,-2.4 -11,0.2 -3.2,2.3 -6.2,5 -9.3,7.4 -3.9,3.1 -8.2,5.7 -13,7 -1.8,0.5 -3.9,2.7 -5.4,0.7 -1.4,-1.9 0.6,-3.9 1.8,-5.7 2.8,-7.4 7.5,-13.6 11.7,-20.2 6.6,-10.3 13.4,-20.6 20.1,-30.9 2.9,-4.5 5.4,-9.2 6.1,-14.6 0.3,-2.6 1.6,-3.1 4,-3.1 7.4,0 10.1,-2 11.7,-8.2 1.7,-6.8 0.1,-10.5 -6,-14.1 -4.9,-2.9 -9.8,-5.7 -14.5,-8.8 -10,-6.7 -14.7,-16.2 -15.2,-28.2 -0.8,-20.9 1.5,-41.5 3.5,-62.2 0.7,-7.5 1.1,-14.9 0.8,-22.4 -0.2,-4.6 -0.5,-9.2 0.6,-13.9 1.1,-4.3 -0.9,-8.1 -3.9,-11.3 -4,-2.6 -8.5,-2 -12.9,-2 0,0 0,0 0,0 -4.2,1.6 -6.5,5 -8.1,9 l 0,0 c -0.4,1.7 -0.8,3.4 -1.1,5 0,6.6 0,13.3 0,19.9 0.2,3.1 0.2,6.1 -0.8,9 0.6,4.4 -1.4,8.6 -1.1,13 0,1 -0.1,2 -0.1,3 -0.6,4 -1.2,8 -1.7,12 0,0 0,0 0,0 -0.3,4.3 1.3,9.4 -4.9,11.1 -2.3,1.4 -4.7,2.9 -7,4.3 -3.4,4.9 -6.9,9.7 -10.3,14.6 0,0 0,0 0,0 l 0,0 c -8.2,11.6 -17.5,21.9 -30.8,27.9 0,0 0,0 0,0 -3.7,1.3 -6.8,4.1 -11,4 -15.4,11.4 -32.6,10.3 -50,6.9 0,0 0,0 0,0 0,0 0,0 0,0 -6.4,-1.1 -12.6,-3.2 -18.5,-5.8 -5,-2.2 -10,-4.3 -15.4,-5.7 -9.7,-2.6 -15.2,-10.4 -20.8,-17.9 -2.3,-3.1 0.4,-7.4 4.1,-6.9 14.4,1.9 28.4,-1.5 42.5,-3.3 10.9,-2.5 21.9,-4.8 31.9,-10.2 l 0,0 c 13.9,-8.9 21.2,-22.7 27.7,-37.1 0,0 0,0 0,0 1.9,-5.8 4.6,-11.3 8.2,-16.2 l 0,0 c 0.4,-1.9 1.5,-3.4 2.8,-4.8 0,0 0,0 0,0 0.8,-1.3 1.6,-2.6 2.3,-3.9 l 0,0 c 0,-2.2 1.8,-3.4 2.7,-5.1 1.1,-2.3 2.2,-4.7 3.3,-7 0.2,-1.8 0.8,-3.5 1.9,-4.9 0.2,-0.7 0.4,-1.4 0.6,-2.1 0.8,-2.8 1.9,-5.5 3.4,-7.9 2.4,-7 5.4,-13.7 8.9,-20.2 0,-0.7 0,-1.5 0.7,-1.9 0.3,-1 0.4,-2.2 1.4,-2.9 0,-0.8 0.1,-1.6 0.9,-2.1 11.7,-33.6 25.4,-66.4 45.7,-95.9 13,-19 31.5,-32.1 51.1,-43.2 26.6,-15 53.8,-29 83.6,-37 2.8,-0.7 6.5,-3.1 8.2,-0.4 1.4,2.2 -2.6,4 -4.2,5.9 -7,7.8 -14,15.6 -21.3,23.1 -7.7,7.9 -10.1,17.8 -10.7,28.3 -0.3,4.8 2.5,8.9 7.1,10.5 8.8,2.9 17.4,6.6 26.7,7.7 21.6,2.6 41.5,-2.8 60.3,-13.1 8.4,-4.6 16.6,-9.6 25.3,-14.7 -1.8,8.7 -5.6,16.2 -7,24.4 -1.1,6.9 -0.1,12.6 5.8,16.7 6.6,4.6 13.3,2.4 19.2,-1.3 5.6,-3.6 10.9,-7.6 16.7,-11 10.1,-6 15.9,-16 23.2,-24.5 7.2,-8.5 14.4,-17.1 20.9,-26.1 3.2,-4.5 5.1,-4.5 10.1,-1.8 14.5,8 28.8,16.5 45.5,19.8 9.6,1.9 19.2,2.4 28.8,1.5 10.3,-0.9 16.3,-10 13.6,-20.1 -1.9,-7.3 -6.7,-12.5 -12.5,-16.9 -3.7,-2.8 -7.5,-5.3 -12,-8.5 9.5,-0.5 18,-1 26.5,-1.4 15.6,-0.7 31.3,-1.5 46.9,-1.8 16,-0.3 30.7,-5.5 44.8,-12.3 9.2,-4.4 18.8,-6 28.6,-8.1 8.5,-1.9 15.5,-0.7 22.3,4.6 2.1,1.7 5,2.6 7.7,3.4 6.3,1.9 12,4.8 16.8,9.4 1.9,1.8 4.2,3.5 6.6,4.4 16.6,5.9 29.8,17.2 44.1,26.8 0.8,0.6 1.6,1.2 2.5,1.7 20.7,10.9 33.8,29.6 48.2,47 4,4.9 8.7,9.2 12.6,14.2 13.6,17.6 21.5,37.9 26,59.3 2.5,12.1 0.8,24.9 0.1,37.4 -0.9,18 -2.9,35.8 -6.3,53.5 -0.8,4 -0.4,8.3 -0.5,12.5 0,0 0,0 0,0 0,0 0,0 0,0 0.7,10.2 0.2,20.3 -0.9,30.4 -1.4,12.8 1.8,23.7 10.9,32.8 5.6,5.8 10.9,12 17.9,16.4 3,1.9 4.6,6 7.3,8.7 7.5,7.7 15.3,15.3 22.9,22.9 3.3,2.1 7.2,3.5 9,7.4 1.3,3 0.5,5.2 -2.7,5.3 -19.8,0.5 -31.4,14 -43.2,27.2 -2.8,3.1 -5.2,6.5 -8,9.5 -3.8,4.1 -7.8,4.5 -12.9,1.7 -9.3,-7.1 -20.2,-12.2 -28.3,-21 -26.4,-28.6 -59.2,-48 -94.2,-64.2 -1.5,-0.7 -3,-1.5 -4.4,-2.2 l 0,0 c -24.4,-10.4 -49.5,-18.2 -75.7,-22.5 -12.2,-2 -24.5,-2.3 -36.8,-3.1 -19.4,-1.3 -38.8,-2.9 -58.4,-2.2 -23.9,0.9 -47.9,1.4 -71.2,7.5 -30.7,8 -58.9,21.4 -84.2,40.8 -7.6,5.8 -15.4,11 -19.7,20 -1,2.1 -2,4.2 -2.2,6.6 0.7,5.4 3,9.8 8.2,12.3 6.1,2.8 10.7,1.8 14.9,-3.6 5.1,-6.6 11.5,-11.5 18.6,-15.7 7.6,-4.5 15.2,-9 22.2,-14.4 2,-1.5 4.2,-2.8 6.4,-3.7 23.8,-10.1 48.3,-17.6 74.4,-19.1 11,-0.6 21.9,-1.8 32.8,-2.7 10.4,-0.9 20.6,0.8 30.9,1.1 14.3,0.5 28.6,1.7 42.9,2.7 0.8,0.1 1.6,0.2 2.4,0.9 -6.4,0.4 -12.7,0.7 -19.1,1.1 -23.5,1.5 -46.3,6.7 -68.6,14 -8.1,2.6 -15.1,7.7 -22.4,11.9 -2.4,1.4 -3.3,3.4 -2.1,5.8 1.3,2.5 3.4,2.7 6,1.6 13.6,-5.7 27.5,-10.7 41.9,-14.2 21.7,-5.4 43.6,-8.8 66.1,-8.4 12.8,0.2 25.7,0.1 38.5,-0.5 12.8,-0.6 24.7,1.7 36.3,7.1 30.3,14.1 60.1,29.1 85.4,51.6 5.1,4.6 9.9,9.4 14.3,14.7 9,11 19,21 29.3,30.7 0.8,0.8 1.9,1.5 2.4,2.5 9.9,17.5 24.8,31.7 31.6,51.1 2.9,8.4 3.4,8.4 -5.7,8.7 -17.5,0.6 -35,0.7 -52.4,2.5 -26,2.7 -51.6,7.1 -76.6,15.2 -0.4,0.1 -0.8,0.6 -1.2,0.9 0,0 0,0 0,0 -1.7,2.1 -4.1,2.7 -6.4,3.6 -2.4,0.9 -3.5,2.4 -3,4.9 0.6,2.5 1.9,4.3 4.7,4.3 1.6,0 3.3,-0.4 4.8,-0.9 28.1,-8.4 56.8,-13.5 86,-16.2 17.6,-1.6 35.1,-2.9 52.8,-3.1 5.5,-0.1 7.1,1.4 6.8,6.5 -0.3,4.6 -3.7,4.6 -6.9,4.3 -19.8,-1.5 -39.6,0.1 -59.2,2.8 -44.1,6 -86.6,18.6 -128.4,33.4 -2.5,0.9 -5,1.9 -7.4,2.9 0,0 0,0 0,0 -3.4,1.7 -6.9,3.3 -10.3,5 -3.1,1.6 -4.4,4.2 -3.4,7.5 1.1,3.5 3.9,5.1 7.3,4.7 3.3,-0.4 6.5,-1.4 9.6,-2.5 37.5,-13.3 75.6,-24.9 114.6,-32.8 26.7,-5.4 53.8,-6.1 80.9,-5.8 3.5,0 7,0.1 10.5,0.2 7.5,0.1 14.3,5.2 15.9,12.6 4.2,18.3 9.6,36.2 16.4,53.7 1.7,4.3 2.6,9 2.5,13.7 -0.2,18.7 1.2,37.2 7.2,55.1 0,0 0,0 0,0 1.7,2.8 0.9,5.8 0.7,8.7 -0.1,2 -1.6,3 -3.8,2.9 -21.8,-0.8 -43.5,-0.5 -65.2,0.6 -7.3,0.4 -14.5,1.3 -21.8,1.9 -5.3,2.1 -11.6,1.8 -16,6.2 -3.4,3.4 -3.9,6.8 -1,10 1.6,1.8 3.6,2.9 6.2,2.1 22.6,-7.1 46,-6.2 69.3,-6.3 11.8,-0.1 23.7,-0.1 35.5,-0.2 2.1,0 4.6,0.1 4.8,2.5 0.6,6.9 4.4,12.9 5.3,19.6 0.6,4.4 1.6,8.9 1.4,13.4 -0.8,16.4 4,31.9 8,47.4 2.7,10.6 3,21.4 2.5,32.2 0,0 0,0 0,0 0,0 0,0 0,0 0.1,11.7 0.1,23.3 -1.4,34.9 z m -186,-42.7 c 0.7,-0.9 1,0.1 1.2,0.5 1,1.4 1.9,2.9 2.8,4.4 4.4,6.5 6.2,14.2 9.2,21.3 7.8,18.4 9.2,37.6 8.7,57.2 -0.4,15.3 1.2,30.6 -1,45.9 -1.4,10 -4,19.8 -9,28.7 l 0,0 c -2.8,7.7 -7.6,14.2 -12.8,21.5 -1.4,-5.3 -0.5,-9.9 0.1,-14.3 1,-8 1.1,-15.9 0,-23.9 -0.6,-4.3 -0.5,-8.7 0,-13 1.4,-11.3 0.8,-22.6 0.2,-33.9 -0.8,-16.1 -0.9,-32.3 -0.5,-48.4 0.8,-13.4 -2.6,-26.8 0,-40.3 0.2,-1.3 0.6,-2.6 0.8,-3.8 0.2,-0.7 0,-1.5 0.3,-1.9 z m 155.4,-290.7 c 11.5,9 9.7,22.2 10.2,34.5 -4.8,-11.1 -8.5,-22.5 -10.2,-34.5 z m 106.9,3.1 c 3.4,20.5 4.5,41.3 2.7,62.1 -0.2,1.8 -0.7,3.6 -1.1,5.4 -1.4,7.9 -4.4,15.2 -7.1,22.7 -0.4,1.2 -0.8,2.7 -2.6,2.4 -1.5,-0.3 -1.6,-1.7 -1.8,-2.7 -11.4,-48.1 -40.1,-84.6 -77.7,-115 -9.8,-7.9 -19.8,-15.7 -29.4,-24 -9,-7.8 -16.3,-17 -22.5,-27.1 -2.4,-4 -2.9,-7.7 -0.5,-12 3.2,-5.4 6,-11.1 10.6,-15.5 8,-9.2 16.8,-17 29.8,-18 6.9,-0.5 12.3,2.1 16.2,7.8 1,1.5 2,3.1 3.5,4.1 13.7,9.3 25.1,21.4 36.5,33.1 20.9,21.6 38.3,46 43.4,76.7 z m 53.4,-387 c -4,26.8 -12.7,52.1 -22.1,77.4 -2.3,6.3 -6,11.9 -10.1,17.1 -14.2,18 -18.9,38.2 -15.1,60.9 2.3,13.4 2.2,27.2 -0.1,40.8 -1.4,8.3 -5.5,15.3 -11.5,21.1 -7.6,7.5 -15.3,14.8 -23,22.2 l 0,0 c -2.7,3.9 -6.1,7.1 -9.7,10.1 -5.8,4.8 -13.3,5.9 -19.9,8.7 -2.6,1.1 -4.8,-1.8 -6.9,-3.2 -9.2,-5.9 -10.5,-9.5 -7.8,-20 1.7,-6.8 0.6,-13.5 -1.6,-20.1 -0.8,-2.4 -2.5,-4.5 -4.8,-5.6 -8.9,-4.5 -16.3,-11.6 -26.2,-14.2 -3.3,-0.9 -5,-4.3 -7.2,-6.7 -6.1,-7.1 -12.4,-13.9 -20.1,-19.3 -5.9,-4.1 -9.9,-9.9 -11.6,-16.9 -1.7,-7.3 -3.1,-14.8 -4.6,-22.3 2.4,-0.1 3,1.6 4,2.5 4.3,4 9.2,6.3 15.2,6.3 10.1,0.1 20.2,-0.1 30.1,3.3 4.6,1.6 10.7,-2.6 13.1,-7.9 2.6,-5.9 1,-12.3 -4.2,-15.9 -5.1,-3.5 -10.8,-5.6 -17.5,-7.2 9.6,-7.5 18.7,-14.6 27.9,-21.6 1.7,-2.3 3.6,-4.4 4.9,-6.9 3,-5.7 1.4,-12.1 -4,-16.5 -2.8,-2.3 -5.9,-4.3 -8.8,-6.4 l 0,0 c -15.1,-5.8 -27.3,-16.3 -40.5,-25.1 -6.5,-4.3 -7.8,-9.2 -6.8,-16.3 1.2,-8.9 3.8,-18.1 -1,-26.9 -1.3,-2.4 0.7,-2.8 2.5,-2.8 4.2,0 8.3,-0.1 12.5,0.1 15.9,0.9 29.6,-4.7 42.1,-14.1 5,-3.8 9.8,-8 15.5,-10.7 3.8,-3 8.4,-4.7 12.6,-7 4.3,-2.3 8.4,-4.7 11.9,-8.1 3.7,-3.5 8.2,-5.6 13,-7.1 11.4,-3.4 23,-6.7 34.5,-9.6 17.2,-4.4 31.8,1.6 39.9,18.9 7.1,15.5 7.9,32 5.4,49 z"
           id="path206"
           inkscape:connector-curvature="0"
           style="fill:#040000" /><path
           class="st21"
           d="m 1701.7,892.1 c -1,4 0.2,7.4 2.9,10.1 17.2,17.5 37.6,27.2 62.7,24.1 25.9,-3.3 47.9,-28.7 47.9,-54.6 0,-22.4 -15.4,-47 -35.6,-56.9 -6.4,-3.1 -13.2,-4.8 -20.3,-4.3 -16.3,1.3 -31,6.8 -44,16.9 -15.2,11.8 -19.5,27.4 -16.6,45.7 0.9,6.4 4.7,12.3 3,19 z m 26.4,-45.5 c 9.2,-8.1 20.2,-13.3 32.1,-12.8 15.5,0.7 23.7,12.1 29,25.3 6.6,16.1 -2.9,37.3 -19.1,43.8 -2.6,1.1 -5.4,1.8 -7.4,1.4 -12,-0.3 -21.9,-4.4 -31.4,-9.6 -2.1,-1.1 -3.7,-2.9 -4.6,-5.1 -3.6,-8.6 -6.1,-17.6 -6.5,-26.9 -0.1,-6.5 3.1,-11.9 7.9,-16.1 z"
           id="path208"
           inkscape:connector-curvature="0"
           style="fill:#040000" /><path
           class="st21"
           d="m 1297.1,899.6 c -18.4,-4 -35.6,-0.1 -51.9,8.7 -22.1,12 -28,36.2 -23.3,55.1 4.7,18.7 17.9,30.1 36.6,34.9 4.8,1.2 9.7,2.1 14.6,3.3 15,3.7 28.6,0.9 40,-9.5 11.9,-10.9 22.6,-22.8 21.9,-43.9 -0.2,-22.3 -15.6,-43.7 -37.9,-48.6 z m 13.9,56.5 c -2,9.7 -14.7,23.1 -24.1,23.4 -9.1,0.4 -18.1,-1.6 -26.4,-6 -1.3,-0.7 -2.6,-1.5 -3.9,-2.2 -16.7,-8.1 -19.1,-30.4 -3.7,-41 8.5,-5.8 18,-10.7 29.5,-9.4 20,-1.1 32.3,17.4 28.6,35.2 z"
           id="path210"
           inkscape:connector-curvature="0"
           style="fill:#040000" /><path
           class="st21"
           d="m 1538.1,1593.6 c -6.1,-6.1 -10.4,-6.1 -16.7,-0.2 -11.4,10.7 -22,22.3 -32.4,33.9 -2.4,2.7 -3.1,5.5 -1.7,8.7 1.4,3 4.2,3.4 7.2,3.3 11.6,-0.1 23.3,0 34.9,0 0,0 0,0 0,0 10.5,0 21,0 31.4,0 4.5,0 9.5,1 11.7,-4.3 2.1,-5.1 -2,-8.4 -5,-11.6 -9.6,-10 -19.5,-19.9 -29.4,-29.8 z"
           id="path212"
           inkscape:connector-curvature="0"
           style="fill:#040000" /><path
           class="st21"
           d="m 1697,1466 c -5.5,-17.3 -30.6,-23.6 -43.8,-12.2 -0.1,0.1 -0.2,0.2 -0.3,0.2 -6.8,7.1 -9.2,15.5 -8,25.2 1.4,10.8 11.4,25 27.4,23.5 17.3,-1.7 26.4,-10.7 25.9,-27 -0.1,-3.1 -0.7,-6.2 -1.1,-9.4 0,-0.1 0,-0.2 -0.1,-0.3 z"
           id="path214"
           inkscape:connector-curvature="0"
           style="fill:#040000" /><path
           class="st21"
           d="m 1388.3,1503.8 c -17.1,0.1 -28.2,10.9 -28.2,27.4 0,15.8 12.3,26.6 30.3,26.5 13.4,-0.1 23.6,-11.6 23.6,-26.8 0,-15.5 -11.1,-27.2 -25.7,-27.1 z"
           id="path216"
           inkscape:connector-curvature="0"
           style="fill:#040000" /></g><g
         id="g218"><path
           class="st22"
           d="m 1116.8,952.1 c -1.8,-5.5 -4.7,-10.6 -6,-16.3 -0.6,-2.6 -2,-3.8 -4.9,-3.7 -3.2,0.2 -6.2,-1.2 -9,-2.6 -5.5,-2.8 -11.5,-3 -17.3,-4.2 -1.3,-0.3 -3.3,-0.2 -2.8,1.6 0.5,1.7 0.9,3.1 -0.9,3.5 -1.9,0.5 -1.9,-1.9 -2.9,-2.9 -0.6,-0.6 -0.8,-1.8 -1.1,-2.7 0,0 0,0 0,0 l 0,0 c -3.6,5 -6.3,10.4 -8.2,16.2 0,0 0,0 0,0 -6.5,14.4 -13.8,28.2 -27.7,37.1 l 0,0 c -10,5.3 -21,7.7 -31.9,10.2 -14.1,1.8 -28.1,5.2 -42.5,3.3 -3.7,-0.5 -6.3,3.8 -4.1,6.9 5.5,7.5 11.1,15.2 20.8,17.9 5.3,1.4 10.3,3.5 15.4,5.7 5.9,2.6 12,4.7 18.5,5.8 0,0 0,0 0,0 0,0 0,0 0,0 17.5,3.4 34.6,4.5 50,-6.9 4.2,0 7.3,-2.8 11,-4 0,0 0,0 0,0 13.3,-6 22.6,-16.3 30.8,-27.9 l 0,0 c 0,0 0,0 0,0 3.4,-4.9 6.9,-9.7 10.3,-14.6 2.3,-1.4 4.7,-2.9 7,-4.3 -0.3,-0.5 -1,-1.1 -1,-1.6 -0.3,-5.6 -1.6,-10.9 -3.5,-16.5 z"
           id="path220"
           inkscape:connector-curvature="0"
           style="fill:#a97268" /><path
           class="st22"
           d="m 1934.1,770.5 c 0,0 0,0 0,0 -7,-0.1 -14,0 -21,-1 0,0 0,0 0,0 0,0 0,0 0,0 -6,-1 -12,-2 -18,-2.9 3.2,3.7 5.2,8 5.8,12.9 0.5,4.1 -0.1,7.5 -4.8,8.7 4.7,-0.2 9.4,-0.4 14,-1.9 11.5,-1.9 21.2,-7.5 30.1,-14.8 -2.1,-0.6 -4.3,0.5 -6.1,-1 z"
           id="path222"
           inkscape:connector-curvature="0"
           style="fill:#a97268" /></g><g
         id="g224"><path
           class="st23"
           d="m 1751.4,1620.6 c 0.7,-7.1 1.2,-14.3 1.5,-21.4 0.6,-15.8 -1.5,-31.7 -0.4,-47.5 0.9,-13.8 0.6,-27.6 -0.5,-41.4 l 0,0 c -5,-10.4 -12.1,-19.4 -20.6,-27 -9.7,-8.8 -20.2,-16.5 -34.2,-16.9 0.4,3.1 1,6.2 1.1,9.4 0.5,16.3 -8.6,25.3 -25.9,27 -16,1.6 -26,-12.7 -27.4,-23.5 -1.3,-9.6 1.1,-18.1 8,-25.2 -22.5,-6.2 -45,-12.4 -67.4,-18.7 -15.7,-4.4 -30.8,-10.2 -46.2,-15.3 -18.9,-6.3 -36.2,-16.3 -55,-22.6 -4.2,-1.4 -8.2,-3.4 -12.3,-5.1 0,0 0,0 0,0 -10.2,-0.7 -20.4,-2.5 -30.8,-1.4 -8,0.8 -16.3,-0.5 -24.4,-0.4 -22.5,0.4 -44.9,1.2 -67.4,1.5 -7.3,0.1 -14.6,-0.5 -21.9,-0.2 -13.7,0.6 -20.1,6.6 -19.9,21.5 0.4,24.1 -4.3,48 -1.7,72.3 1.5,14.4 0.6,29.3 0.6,43.9 -0.2,43 -1.1,86 0.5,129 0.3,7.8 3.8,12.7 10.7,15.9 5.5,2.5 11.2,3.2 17,2.7 13,-1.1 26,-1.5 39,-0.7 27,1.5 54,0.2 81,0.7 7.9,0.1 15.8,-1.1 23.9,-0.3 14.1,1.3 28.2,2.2 42.4,0.6 9.8,-1.1 19.6,-1.7 29.4,-0.1 8.8,1.4 17.6,0.9 26.4,0.5 25.8,-1.2 51.6,-1.8 77.4,-1.9 16.8,-0.1 33.6,1.8 50.4,0.2 4.3,-0.4 8.8,-0.5 13,0.3 7.8,1.5 15.3,0.4 22.7,-1.6 6.5,-1.7 10.5,-6 11.9,-12.7 1.5,-6.8 1.3,-13.5 0.4,-20.3 -1,-7 -2.1,-14.1 -1.3,-21.3 z m -361,-62.9 c -18,0.1 -30.4,-10.7 -30.3,-26.5 0,-16.5 11.2,-27.3 28.2,-27.4 14.6,-0.1 25.8,11.6 25.7,27.1 0,15.1 -10.2,26.7 -23.6,26.8 z m 182.2,77.3 c -2.1,5.3 -7.2,4.3 -11.7,4.3 -10.5,0 -21,0 -31.4,0 0,0 0,0 0,0 -11.6,0 -23.3,0 -34.9,0 -3,0 -5.8,-0.4 -7.2,-3.3 -1.4,-3.2 -0.7,-6 1.7,-8.7 10.5,-11.6 21,-23.1 32.4,-33.9 6.3,-6 10.6,-5.9 16.7,0.2 9.9,9.9 19.8,19.7 29.5,29.8 2.9,3.2 7,6.5 4.9,11.6 z"
           id="path226"
           inkscape:connector-curvature="0"
           style="fill:#ffffff" /><path
           class="st23"
           d="m 1709.1,1693.2 c 1.1,-3.6 -1.6,-4 -4.4,-4 -13.8,0.1 -27.7,-0.5 -41.5,0.3 -20.3,1.2 -40.6,0.8 -60.8,0.4 -15.2,-0.3 -30.3,-1.5 -45.3,1.4 -10.2,1.9 -20.2,-0.9 -30.3,-0.8 -26.8,0.3 -53.6,-1.7 -80.4,-1 -9.8,0.3 -19.6,2.3 -29.4,1.3 -19,-2 -37.9,-2 -56.9,-0.2 -19.2,1.9 -38.3,0.9 -57.4,-0.5 -4.4,-0.3 -7.2,-2.7 -8.1,-7.4 -0.7,-3.8 -0.6,-7.6 -0.7,-11.4 -1.3,-29.8 1.4,-59.5 0.4,-89.4 -0.7,-20.6 -1.2,-41.3 -1.3,-61.9 -0.1,-21.2 -0.3,-42.3 -0.5,-63.5 -0.1,-23.3 1.5,-46.6 2.5,-69.9 0.2,-4.2 1.9,-7.6 6.8,-7.7 8.5,-0.2 17,-0.6 25.5,-0.2 14.2,0.7 28.3,0.8 42.5,0.2 6.5,-0.3 13,-1.3 19.4,-0.5 16.9,2.2 33.9,2.2 50.8,0.6 -8.5,-3.5 -16.7,-8.2 -26.3,-7.6 -5.6,0.3 -11.2,0.1 -16.8,0 -23.1,-0.5 -46.1,-3.7 -69.3,-2.1 -17.6,1.2 -35.2,2.1 -52.8,1.9 -1.3,0 -2.5,0.6 -3.8,0.9 -0.2,7.3 -0.3,14.7 -0.6,22 -0.9,21.3 -2.1,42.6 -1.2,63.9 0.5,11.1 1.2,22.3 1.2,33.5 -0.1,50 -0.9,100 -0.3,149.9 0.1,6.5 -0.1,13 -0.8,19.5 -1.7,14.8 -2.5,29.5 1.4,44.1 1.3,4.8 3.9,7.2 8.7,8.3 8.3,1.9 16.6,0 24.9,0.4 16.1,0.8 32.2,2.9 48.4,1.6 17.6,-1.5 35.2,-3.1 52.8,-0.1 5.8,1 11.5,1.2 17.3,0.1 2.9,-0.5 6,-1 8.9,-0.7 19.8,1.9 39.6,-0.9 59.4,0.4 13.4,0.9 27,-0.4 40.4,1.7 5.7,0.9 11.6,0.3 17.4,-0.2 10.1,-0.9 20.3,-2.2 30.4,-1.1 5.8,0.6 11.6,0.7 17.4,0 11.1,-1.3 22.3,-1.8 33.4,-1 27.8,2 55.5,0.6 83.8,-0.4 -5,-6.2 -7.3,-12.9 -4.8,-20.8 z"
           id="path228"
           inkscape:connector-curvature="0"
           style="fill:#ffffff" /><path
           class="st23"
           d="m 2030.3,1211.8 c -5.1,-30.7 -22.5,-55 -43.5,-76.7 -11.4,-11.8 -22.8,-23.8 -36.5,-33.1 -1.5,-1 -2.5,-2.6 -3.5,-4.1 -3.8,-5.7 -9.3,-8.3 -16.2,-7.8 -12.9,1 -21.8,8.8 -29.8,18 0.7,1.4 1.7,2.4 3,3.2 13.2,8.1 22.9,19.9 33.2,31.2 1.6,1.7 2.9,3.7 4.8,5.1 9.7,7.3 18,15.8 25.4,25.5 3.7,4.8 9,8.8 13.9,12.7 8.2,6.3 13.5,14.9 19.8,22.8 4.7,5.9 8.8,12.4 12.5,19 5.3,9.3 9.8,18.9 12.8,29.4 2.2,7.4 4,14.9 5.5,22.5 l 0,0 c 0.4,-1.8 1,-3.5 1.1,-5.4 2.1,-21 0.9,-41.8 -2.5,-62.3 z"
           id="path230"
           inkscape:connector-curvature="0"
           style="fill:#ffffff" /><path
           class="st23"
           d="m 1214.7,1231.8 c -12.5,7.1 -20.9,17.9 -25.5,31.4 -4,11.6 -7.2,23.4 -10.9,35.1 -11.6,37.2 -10.7,73.9 3.8,110.2 5.4,13.4 11.3,26.6 22.1,36.8 l 0,0 c 1.2,-0.9 0.7,-2 0.4,-3.1 -1.5,-6.1 -3.6,-12.1 -4.3,-18.3 -1.3,-10.7 -2.7,-21.3 -2.3,-32.2 0.2,-5.4 -2.8,-10.7 -1.8,-16.2 1.6,-9.1 0.7,-18.2 1,-27.4 0,-1.5 0,-3 0.5,-4.4 2.3,-7.8 2.9,-15.8 5.1,-23.7 4,-14.5 7.1,-29.2 13.6,-42.9 1.8,-3.9 3.8,-7.9 4.7,-12 2.7,-12 11.4,-20 18.9,-28.7 1.6,-1.8 4.7,-2 5.3,-4.9 -10.5,-5.8 -20.7,-5.3 -30.6,0.3 z"
           id="path232"
           inkscape:connector-curvature="0"
           style="fill:#ffffff" /><path
           class="st23"
           d="m 1777.1,1580 c -2.9,-11.7 -5.5,-23.5 -10,-34.7 -0.5,16.1 -0.3,32.3 0.5,48.4 0.5,11.3 1.1,22.6 -0.2,33.9 -0.5,4.3 -0.5,8.7 0,13 1,8 1,15.9 0,23.9 -0.6,4.4 -1.5,9 -0.1,14.3 5.2,-7.3 9.9,-13.8 12.8,-21.5 l 0,0 c -0.1,-2.2 0.3,-4.3 0.6,-6.4 1,-9.9 2.4,-19.8 2.2,-29.7 -0.5,-13.9 -2.4,-27.6 -5.8,-41.2 z"
           id="path234"
           inkscape:connector-curvature="0"
           style="fill:#ffffff" /><path
           class="st23"
           d="m 1670.8,1749.3 c -7.4,-0.1 -14.9,0.3 -22.2,-1.6 -3.1,-0.8 -6.5,-1.4 -9.6,0.5 2.6,4.3 6.1,7.8 9.7,11.1 5.2,4.7 10.7,5 16.7,1.1 4.1,-2.8 7.7,-6.2 10.6,-10.2 0,0 0,0 0,0 -1.5,-1.5 -3.4,-0.8 -5.2,-0.9 z"
           id="path236"
           inkscape:connector-curvature="0"
           style="fill:#ffffff" /><path
           class="st23"
           d="m 1420.8,1751.2 c -8.5,2.4 -17.1,3 -25.8,1.2 -1.1,-0.2 -2.3,-0.2 -3.1,1 1,1.3 1.9,2.7 3,3.9 6.8,7.8 14.2,8.2 21.8,1.1 2.3,-2.1 4.2,-4.6 6.3,-6.9 l 0,0 c -0.6,-0.9 -1.4,-0.5 -2.2,-0.3 z"
           id="path238"
           inkscape:connector-curvature="0"
           style="fill:#ffffff" /><path
           class="st23"
           d="m 1760.2,833.8 c -12,-0.5 -22.9,4.6 -32.1,12.8 -4.8,4.3 -8,9.7 -7.8,16.1 0.3,9.3 2.9,18.3 6.5,26.9 0.9,2.2 2.6,4 4.6,5.1 9.5,5.3 19.4,9.4 31.4,9.6 2.1,0.4 4.8,-0.3 7.4,-1.4 16.2,-6.5 25.6,-27.7 19.1,-43.8 -5.4,-13.2 -13.5,-24.6 -29.1,-25.3 z"
           id="path240"
           inkscape:connector-curvature="0"
           style="fill:#ffffff" /><path
           class="st23"
           d="m 1287,979.5 c 9.4,-0.4 22.1,-13.7 24.1,-23.4 3.6,-17.8 -8.6,-36.3 -28.6,-35 -11.4,-1.4 -21,3.5 -29.5,9.4 -15.4,10.6 -13,32.9 3.7,41 1.3,0.6 2.6,1.5 3.9,2.2 8.2,4.2 17.3,6.2 26.4,5.8 z"
           id="path242"
           inkscape:connector-curvature="0"
           style="fill:#ffffff" /></g></g></g></svg>